<svg width="340" height="338" viewBox="0 0 340 338" fill="none" xmlns="http://www.w3.org/2000/svg">
<g clip-path="url(#clip0_3746_443)">
<path d="M226.148 338H18.5583C13.638 337.994 8.92087 336.038 5.44172 332.561C1.96257 329.084 0.00555391 324.369 0 319.451V18.5491C0.00555391 13.6313 1.96257 8.91647 5.44172 5.43904C8.92087 1.96161 13.638 0.00555116 18.5583 0H226.148C231.068 0.00554427 235.785 1.9616 239.264 5.43903C242.743 8.91646 244.7 13.6313 244.706 18.5491V319.451C244.7 324.369 242.743 329.084 239.264 332.561C235.785 336.038 231.068 337.994 226.148 338Z" fill="#3F3D56"/>
<path d="M226.513 326.165H18.1929C16.6762 326.164 15.2221 325.561 14.1497 324.489C13.0772 323.417 12.4739 321.963 12.4722 320.447V17.5527C12.4739 16.0367 13.0772 14.5833 14.1497 13.5114C15.2221 12.4394 16.6762 11.8365 18.1929 11.8347H226.513C228.03 11.8365 229.484 12.4394 230.556 13.5114C231.629 14.5833 232.232 16.0367 232.234 17.5527V320.447C232.232 321.963 231.629 323.417 230.556 324.489C229.484 325.561 228.03 326.164 226.513 326.165Z" fill="white"/>
<path d="M121.564 7.25865C122.436 7.25865 123.142 6.55217 123.142 5.68069C123.142 4.8092 122.436 4.10272 121.564 4.10272C120.692 4.10272 119.985 4.8092 119.985 5.68069C119.985 6.55217 120.692 7.25865 121.564 7.25865Z" fill="white"/>
<path d="M177.921 139.931L171.024 119.286L170.908 118.927L199.95 100.591L201.494 102.671L209.582 113.557L206.626 122.362L198.984 145.111L198.649 146.111L212.801 156.627C213.362 157.661 213.828 158.604 214.207 159.47C218.432 169.092 212.178 168.656 212.178 168.656L183.396 156.325L177.921 139.931Z" fill="#FFB7B7"/>
<path d="M193.158 143.774L191.889 139.973L185.662 121.317L184.364 117.428L183.275 114.174L197.475 105.206L212.317 95.8381L221.95 108.804L219.03 117.498L217.611 121.722L215.418 128.256L211.016 141.357L225.168 151.874C226.239 153.751 227.084 155.748 227.687 157.823C227.933 158.688 228.049 159.586 228.033 160.486C228.056 160.947 227.981 161.407 227.813 161.837C227.645 162.266 227.388 162.656 227.058 162.978C226.728 163.301 226.334 163.551 225.901 163.71C225.467 163.869 225.005 163.935 224.545 163.903L195.763 151.572L193.158 143.774Z" fill="#FFB7B7"/>
<path opacity="0.15" d="M191.808 144.616L190.137 127.017L198.46 122.507L199.005 123.511L191.346 127.661L192.894 143.976L209.911 155.624L209.266 156.566L191.808 144.616Z" fill="black"/>
<path opacity="0.15" d="M209.963 144.026L209.284 144.945L226.456 157.627L227.135 156.708L209.963 144.026Z" fill="black"/>
<path d="M208.939 161.276L122.549 100.575L35.2759 160.711L121.247 196.996L208.939 161.276Z" fill="white"/>
<path d="M147.087 109.753L176.178 81.3241L228.206 77.8107L292.879 139.538L340 165.312L326.725 204.33L269.851 177.346C258.271 176.496 250.821 172.655 246.109 168.617C244.488 167.23 243.028 165.666 241.754 163.955C240.36 162.141 239.272 160.111 238.534 157.946L215.417 128.256L210.652 122.129L207.565 118.164L197.475 105.206L196.749 104.274L179.608 103.821L170.687 115.526L164.421 123.741C164.275 126.634 163.23 129.41 161.431 131.681C155.812 138.512 144.418 137.178 144.418 137.178L147.087 109.753Z" fill="#FFB7B7"/>
<path d="M35.6087 160.655H35.6709L71.3508 175.883L120.168 196.718C120.359 196.798 120.564 196.84 120.771 196.841C120.978 196.842 121.183 196.802 121.374 196.724L171.739 175.839L208.296 160.68L208.352 160.655H208.414C208.991 160.655 209.544 160.885 209.952 161.292C210.359 161.7 210.589 162.253 210.59 162.829V257.266C210.589 257.842 210.359 258.395 209.952 258.803C209.544 259.21 208.991 259.44 208.414 259.44H35.6087C35.0319 259.44 34.4789 259.21 34.071 258.803C33.6632 258.395 33.4337 257.842 33.4331 257.266V162.829C33.4337 162.253 33.6632 161.7 34.071 161.292C34.4789 160.885 35.0319 160.655 35.6087 160.655Z" fill="white"/>
<path d="M35.4535 161.276C35.517 161.276 35.5789 161.257 35.6309 161.22L121.586 101.389C121.847 101.208 122.158 101.111 122.476 101.111C122.795 101.112 123.105 101.21 123.366 101.392L208.702 161.22C208.769 161.267 208.853 161.285 208.934 161.271C209.015 161.257 209.087 161.211 209.134 161.143C209.181 161.076 209.2 160.993 209.186 160.912C209.172 160.831 209.126 160.759 209.059 160.711L123.723 100.883C123.358 100.628 122.923 100.491 122.477 100.49C122.032 100.49 121.597 100.625 121.23 100.879L35.2757 160.711C35.2214 160.748 35.1806 160.802 35.1592 160.865C35.1379 160.928 35.137 160.995 35.1569 161.059C35.1767 161.122 35.2162 161.177 35.2696 161.216C35.3229 161.255 35.3874 161.276 35.4535 161.276Z" fill="#3F3D56"/>
<path d="M203.825 163.397L122.392 103.075L40.3408 167.689L118.196 213.82L160.465 204.19L203.825 163.397Z" fill="#E6E6E6"/>
<path d="M156.897 242.313H197.127C197.625 242.313 198.103 242.116 198.455 241.764C198.808 241.413 199.006 240.935 199.007 240.438C199.008 239.94 198.811 239.462 198.459 239.109C198.108 238.756 197.631 238.557 197.132 238.556H156.897C156.399 238.556 155.921 238.753 155.568 239.105C155.216 239.457 155.017 239.934 155.017 240.432C155.016 240.93 155.213 241.408 155.564 241.76C155.916 242.113 156.393 242.312 156.891 242.313H156.897Z" fill="#0167FF"/>
<path d="M182.694 234.237H197.127C197.625 234.237 198.103 234.039 198.456 233.688C198.808 233.336 199.007 232.859 199.008 232.361C199.008 231.863 198.811 231.385 198.46 231.032C198.108 230.68 197.631 230.481 197.133 230.479H182.694C182.196 230.479 181.718 230.677 181.365 231.028C181.013 231.38 180.814 231.857 180.813 232.355C180.813 232.853 181.01 233.331 181.361 233.684C181.713 234.036 182.19 234.235 182.688 234.237H182.694Z" fill="#0167FF"/>
<path d="M121.247 196.996C121.553 196.996 121.855 196.937 122.138 196.821L172.361 175.993V110.796C172.36 110.22 172.131 109.667 171.723 109.259C171.315 108.852 170.762 108.622 170.185 108.622H73.8372C73.2604 108.622 72.7075 108.852 72.2996 109.259C71.8917 109.667 71.6623 110.22 71.6616 110.796V176.038L71.756 176.079L120.328 196.811C120.619 196.933 120.931 196.996 121.247 196.996Z" fill="white"/>
<path d="M120.267 196.954L71.5063 176.141V110.796C71.507 110.178 71.7529 109.586 72.1899 109.149C72.6269 108.713 73.2193 108.467 73.8373 108.466H170.186C170.804 108.467 171.396 108.713 171.833 109.149C172.27 109.586 172.516 110.178 172.517 110.796V176.096L122.198 196.965C121.578 197.217 120.884 197.213 120.267 196.954ZM171.895 110.796C171.894 110.343 171.714 109.909 171.394 109.588C171.073 109.268 170.639 109.088 170.186 109.087H73.8373C73.3841 109.088 72.9496 109.268 72.6292 109.588C72.3087 109.909 72.1285 110.343 72.1279 110.796V175.731L120.51 196.382C120.973 196.576 121.495 196.579 121.961 196.391L171.895 175.681L171.895 110.796Z" fill="#3F3D56"/>
<path d="M33.8994 162.829V257.266C33.9001 257.842 34.1295 258.395 34.5373 258.803C34.9452 259.21 35.4982 259.44 36.075 259.44H208.88C209.457 259.44 210.01 259.21 210.418 258.803C210.826 258.395 211.055 257.842 211.056 257.266V162.829C211.055 162.253 210.826 161.7 210.418 161.292C210.01 160.885 209.457 160.655 208.88 160.655H208.818L208.762 160.68L172.206 175.839L121.841 196.724C121.649 196.802 121.444 196.842 121.237 196.841C121.03 196.84 120.825 196.798 120.635 196.718L71.8171 175.883L36.1373 160.655H36.075C35.4982 160.655 34.9452 160.885 34.5373 161.292C34.1295 161.7 33.9001 162.253 33.8994 162.829ZM34.521 162.829C34.522 162.428 34.6775 162.043 34.9554 161.754C35.2332 161.465 35.612 161.293 36.0128 161.276L71.8171 176.557L120.389 197.289C120.929 197.516 121.537 197.519 122.08 197.299L172.206 176.51L208.939 161.276C209.341 161.292 209.721 161.463 209.999 161.752C210.278 162.042 210.434 162.428 210.434 162.829V257.266C210.434 257.678 210.27 258.073 209.979 258.364C209.687 258.655 209.292 258.819 208.88 258.819H36.075C35.6629 258.819 35.2678 258.655 34.9764 258.364C34.685 258.073 34.5212 257.678 34.521 257.266V162.829Z" fill="#3F3D56"/>
<path d="M82.2716 132.992H116.46C117.119 132.992 117.751 132.73 118.218 132.264C118.684 131.798 118.946 131.166 118.946 130.507C118.946 129.848 118.684 129.216 118.218 128.75C117.751 128.284 117.119 128.022 116.46 128.022H82.2716C81.6121 128.022 80.9797 128.284 80.5134 128.75C80.0471 129.216 79.7852 129.848 79.7852 130.507C79.7852 131.166 80.0471 131.798 80.5134 132.264C80.9797 132.73 81.6121 132.992 82.2716 132.992Z" fill="#0167FF"/>
<path d="M82.2921 122.43H98.7645C99.424 122.43 100.056 122.168 100.523 121.702C100.989 121.236 101.251 120.604 101.251 119.945C101.251 119.286 100.989 118.654 100.523 118.188C100.056 117.722 99.424 117.46 98.7645 117.46H82.2921C81.6326 117.46 81.0002 117.722 80.5339 118.188C80.0676 118.654 79.8057 119.286 79.8057 119.945C79.8057 120.604 80.0676 121.236 80.5339 121.702C81.0002 122.168 81.6326 122.43 82.2921 122.43Z" fill="#0167FF"/>
<path d="M96.441 157.844H148.655C149.315 157.844 149.947 157.582 150.414 157.116C150.88 156.65 151.142 156.018 151.142 155.359C151.142 154.7 150.88 154.068 150.414 153.601C149.947 153.135 149.315 152.874 148.655 152.874H96.441C95.7816 152.874 95.1491 153.135 94.6828 153.601C94.2166 154.068 93.9546 154.7 93.9546 155.359C93.9546 156.018 94.2166 156.65 94.6828 157.116C95.1491 157.582 95.7816 157.844 96.441 157.844Z" fill="#CCCCCC"/>
<path d="M96.441 169.338H148.655C149.315 169.338 149.947 169.076 150.414 168.61C150.88 168.144 151.142 167.512 151.142 166.853C151.142 166.194 150.88 165.561 150.414 165.095C149.947 164.629 149.315 164.367 148.655 164.367H96.441C95.7816 164.367 95.1491 164.629 94.6828 165.095C94.2166 165.561 93.9546 166.194 93.9546 166.853C93.9546 167.512 94.2166 168.144 94.6828 168.61C95.1491 169.076 95.7816 169.338 96.441 169.338Z" fill="#CCCCCC"/>
<path opacity="0.1" d="M217.611 121.722L227.982 121.123L269.418 172.164L254.779 169.926L246.109 168.617C244.488 167.229 243.028 165.666 241.754 163.955L232.12 161.096L227.686 157.823C227.965 158.886 217.611 121.722 217.611 121.722Z" fill="black"/>
<path d="M151.321 120.098C151.618 118.189 152.659 116.475 154.216 115.33C155.773 114.186 157.721 113.704 159.632 113.989L170.687 115.526L184.364 117.428L194.934 118.897L207.565 118.164L219.03 117.498L225.804 117.107L270.843 172.587L232.12 161.096L227.687 157.822L208.275 143.492C208.275 143.492 201.915 142.321 191.889 139.973C190.397 139.619 173.519 135.386 165.59 133.084C164.055 132.636 162.677 132.169 161.431 131.681C152.592 128.203 150.823 123.745 151.321 120.098Z" fill="#FFB7B7"/>
<path opacity="0.15" d="M157.652 127.029C157.692 127.024 161.638 126.533 163.322 123.645C164.457 121.699 164.343 119.079 162.983 115.857L164.036 115.413C165.544 118.988 165.635 121.954 164.305 124.227C162.326 127.609 157.967 128.142 157.782 128.163L157.652 127.029Z" fill="black"/>
<path opacity="0.15" d="M197.551 119.316L197.548 118.175L217.863 118.142L196.446 104.758L197.052 103.79L221.836 119.277L197.551 119.316Z" fill="black"/>
</g>
<defs>
<clipPath id="clip0_3746_443">
<rect width="340" height="338" fill="white"/>
</clipPath>
</defs>
</svg>
