<svg width="36" height="30" viewBox="0 0 36 30" fill="none" xmlns="http://www.w3.org/2000/svg">
<path d="M8.82303 9.53089L2.34454 14.9294L8.82303 20.3279C8.91647 20.4044 8.99382 20.4988 9.05063 20.6054C9.10744 20.712 9.14258 20.8288 9.15403 20.9491C9.16547 21.0693 9.15299 21.1907 9.11731 21.3061C9.08163 21.4215 9.02345 21.5287 8.94613 21.6216C8.86881 21.7144 8.77388 21.791 8.66681 21.8469C8.55974 21.9029 8.44265 21.9371 8.3223 21.9476C8.20195 21.9581 8.08071 21.9446 7.96558 21.908C7.85045 21.8714 7.7437 21.8124 7.6515 21.7343L0.329447 15.6326C0.226336 15.5467 0.143376 15.4392 0.0864439 15.3177C0.0295116 15.1961 0 15.0636 0 14.9294C0 14.7952 0.0295116 14.6626 0.0864439 14.5411C0.143376 14.4196 0.226336 14.3121 0.329447 14.2262L7.6515 8.12445C7.83827 7.97139 8.07796 7.89834 8.31834 7.92121C8.55873 7.94409 8.78034 8.06103 8.93489 8.24657C9.08944 8.43211 9.1644 8.6712 9.14345 8.91177C9.1225 9.15233 9.00733 9.37487 8.82303 9.53089ZM35.6706 14.2262L28.3485 8.12445C28.2563 8.04639 28.1496 7.98735 28.0344 7.95075C27.9193 7.91415 27.7981 7.9007 27.6777 7.91118C27.5574 7.92166 27.4403 7.95587 27.3332 8.01183C27.2261 8.06778 27.1312 8.14438 27.0539 8.2372C26.9766 8.33003 26.9184 8.43724 26.8827 8.55266C26.847 8.66808 26.8345 8.78942 26.846 8.90969C26.8574 9.02995 26.8926 9.14676 26.9494 9.25338C27.0062 9.36 27.0835 9.45432 27.177 9.53089L33.6555 14.9294L27.177 20.3279C27.0835 20.4044 27.0062 20.4988 26.9494 20.6054C26.8926 20.712 26.8574 20.8288 26.846 20.9491C26.8345 21.0693 26.847 21.1907 26.8827 21.3061C26.9184 21.4215 26.9766 21.5287 27.0539 21.6216C27.1312 21.7144 27.2261 21.791 27.3332 21.8469C27.4403 21.9029 27.5574 21.9371 27.6777 21.9476C27.7981 21.9581 27.9193 21.9446 28.0344 21.908C28.1496 21.8714 28.2563 21.8124 28.3485 21.7343L35.6706 15.6326C35.7737 15.5467 35.8566 15.4392 35.9136 15.3177C35.9705 15.1961 36 15.0636 36 14.9294C36 14.7952 35.9705 14.6626 35.9136 14.5411C35.8566 14.4196 35.7737 14.3121 35.6706 14.2262ZM23.1941 0.649851C23.0809 0.60884 22.9608 0.590556 22.8405 0.596045C22.7203 0.601535 22.6023 0.63069 22.4933 0.681842C22.3844 0.732994 22.2866 0.805139 22.2055 0.894143C22.1245 0.983148 22.0618 1.08726 22.021 1.20053L12.2583 28.0481C12.178 28.2763 12.1914 28.527 12.2955 28.7453C12.3995 28.9637 12.5858 29.132 12.8135 29.2135C12.9115 29.2486 13.0146 29.2671 13.1186 29.2684C13.3065 29.2684 13.4899 29.2106 13.6438 29.1028C13.7978 28.995 13.9148 28.8425 13.979 28.6659L23.7417 1.81833C23.7828 1.70535 23.8012 1.58538 23.7959 1.46528C23.7906 1.34518 23.7618 1.22729 23.7109 1.11836C23.66 1.00942 23.5882 0.911577 23.4996 0.830404C23.4109 0.749232 23.3071 0.686324 23.1941 0.645275V0.649851Z" fill="#202024"/>
</svg>
