<svg width="480" height="348" viewBox="0 0 480 348" fill="none" xmlns="http://www.w3.org/2000/svg">
<g clip-path="url(#clip0_3746_204)">
<path d="M279.599 61.3484C288.595 61.3484 295.888 54.0787 295.888 45.1112C295.888 36.1436 288.595 28.874 279.599 28.874C270.603 28.874 263.31 36.1436 263.31 45.1112C263.31 54.0787 270.603 61.3484 279.599 61.3484Z" fill="#F2F2F2"/>
<path d="M405.957 301.327C430.168 282.944 441.732 252.054 434.493 222.586C434.313 221.854 434.123 221.124 433.923 220.395C429.124 202.903 417.249 186.279 399.943 180.69C385.412 175.997 369.551 179.606 354.391 177.74C324.632 174.076 301.56 150.074 285.327 124.943C269.093 99.8127 256.617 71.6824 235.045 50.9208C199.489 16.6988 141.487 9.33074 97.4016 31.6067C53.3164 53.8828 25.2347 103.304 26.4323 152.558C27.6299 201.813 56.9631 248.904 99.562 273.888C115.211 283.067 133.311 289.569 151.324 287.293C166.953 285.319 181.155 276.948 196.711 274.462C221.168 270.555 245.47 281.578 266.624 294.423C287.778 307.268 308.211 322.494 332.25 328.449C355.591 334.231 384.509 317.611 405.957 301.327Z" fill="url(#paint0_linear_3746_204)"/>
<path d="M371.171 33.641C370.64 33.2883 370.103 32.9538 369.572 32.6133C354.23 22.8322 337.786 14.8861 320.579 8.93927L316.589 63.8036H291.297V0.930358C289.704 0.601975 288.1 0.291835 286.496 -6.10352e-05V63.8036H256.438C239.892 63.8036 224.022 57.2513 212.322 45.588C200.622 33.9247 194.049 18.1059 194.049 1.61152C192.438 1.95815 190.84 2.32905 189.241 2.72432V63.8037H164.76L160.959 11.4873C143.277 18.2473 126.49 27.1371 110.972 37.9587C110.703 38.1411 110.435 38.3296 110.173 38.512C108.824 39.4546 107.495 40.4155 106.171 41.3884V250.696H178.321L177.046 233.091L170.031 136.431H311.312L304.297 233.091L303.022 250.696H374.373V35.7573C373.312 35.0397 372.244 34.3343 371.171 33.641ZM189.241 120.468H168.872L165.108 68.5956H189.241V120.468ZM286.496 120.468H252.284V119.44C252.284 118.946 252.186 118.457 251.996 118.001C251.807 117.544 251.528 117.13 251.178 116.781C250.827 116.432 250.411 116.155 249.952 115.966C249.494 115.778 249.003 115.681 248.508 115.682H233.635C233.14 115.682 232.649 115.779 232.192 115.968C231.734 116.157 231.319 116.433 230.968 116.782C230.618 117.131 230.341 117.546 230.151 118.002C229.962 118.458 229.864 118.947 229.865 119.44V120.468H194.049V68.5956H286.496V120.468ZM291.297 120.468V68.5956H316.242L312.478 120.468H291.297Z" fill="#3F3D56"/>
<path d="M-3.05176e-05 264.1C5.29963 270.36 11.0318 276.242 17.1546 281.705L462.845 282.313C468.968 276.85 474.7 270.968 480 264.708L-3.05176e-05 264.1Z" fill="#3F3D56"/>
<path d="M302.237 207.728V259.846C302.238 260.51 302.503 261.147 302.974 261.616C303.445 262.086 304.084 262.35 304.75 262.351H382.229C382.896 262.35 383.534 262.086 384.006 261.616C384.477 261.147 384.742 260.51 384.742 259.846V207.728C384.741 207.064 384.475 206.428 384.004 205.959C383.533 205.49 382.895 205.226 382.229 205.226H304.75C304.084 205.226 303.446 205.49 302.975 205.959C302.504 206.428 302.239 207.064 302.237 207.728Z" fill="#3F3D56"/>
<path d="M304.055 208.376V259.203C304.056 259.558 304.197 259.898 304.449 260.149C304.701 260.4 305.042 260.541 305.398 260.542H381.584C381.94 260.541 382.282 260.4 382.533 260.149C382.785 259.898 382.927 259.558 382.927 259.203V208.376C382.927 208.021 382.786 207.68 382.534 207.429C382.282 207.177 381.941 207.035 381.584 207.035H305.398C305.042 207.035 304.7 207.177 304.448 207.429C304.196 207.68 304.055 208.021 304.055 208.376Z" fill="#0167FF"/>
<path d="M300.617 270.01C300.759 270.188 300.939 270.331 301.145 270.429C301.35 270.527 301.575 270.577 301.803 270.576H384.765C384.991 270.575 385.215 270.525 385.42 270.427C385.625 270.33 385.805 270.188 385.948 270.013C386.091 269.837 386.193 269.632 386.246 269.412C386.3 269.192 386.303 268.963 386.257 268.742L384.969 262.644C384.916 262.395 384.801 262.164 384.635 261.971C384.469 261.778 384.257 261.629 384.018 261.539C383.846 261.471 383.662 261.437 383.477 261.437H303.085C302.9 261.437 302.716 261.471 302.544 261.539C302.305 261.629 302.093 261.778 301.927 261.971C301.761 262.164 301.646 262.395 301.593 262.644L300.305 268.742C300.259 268.963 300.264 269.192 300.317 269.411C300.371 269.631 300.474 269.835 300.617 270.01Z" fill="#2F2E41"/>
<path d="M380.63 264.063H382.59C382.754 264.063 382.887 263.93 382.887 263.766V262.832C382.887 262.668 382.754 262.535 382.59 262.535H380.63C380.466 262.535 380.332 262.668 380.332 262.832V263.766C380.332 263.93 380.466 264.063 380.63 264.063Z" fill="#3F3D56"/>
<path d="M375.52 264.063H377.479C377.644 264.063 377.777 263.93 377.777 263.766V262.832C377.777 262.668 377.644 262.535 377.479 262.535H375.52C375.355 262.535 375.222 262.668 375.222 262.832V263.766C375.222 263.93 375.355 264.063 375.52 264.063Z" fill="#3F3D56"/>
<path d="M370.409 264.063H372.369C372.533 264.063 372.667 263.93 372.667 263.766V262.832C372.667 262.668 372.533 262.535 372.369 262.535H370.409C370.245 262.535 370.111 262.668 370.111 262.832V263.766C370.111 263.93 370.245 264.063 370.409 264.063Z" fill="#3F3D56"/>
<path d="M365.299 264.063H367.258C367.423 264.063 367.556 263.93 367.556 263.766V262.832C367.556 262.668 367.423 262.535 367.258 262.535H365.299C365.134 262.535 365.001 262.668 365.001 262.832V263.766C365.001 263.93 365.134 264.063 365.299 264.063Z" fill="#3F3D56"/>
<path d="M360.189 264.063H362.148C362.313 264.063 362.446 263.93 362.446 263.766V262.832C362.446 262.668 362.313 262.535 362.148 262.535H360.189C360.024 262.535 359.891 262.668 359.891 262.832V263.766C359.891 263.93 360.024 264.063 360.189 264.063Z" fill="#3F3D56"/>
<path d="M355.078 264.063H357.038C357.202 264.063 357.336 263.93 357.336 263.766V262.832C357.336 262.668 357.202 262.535 357.038 262.535H355.078C354.914 262.535 354.78 262.668 354.78 262.832V263.766C354.78 263.93 354.914 264.063 355.078 264.063Z" fill="#3F3D56"/>
<path d="M349.968 264.063H351.927C352.092 264.063 352.225 263.93 352.225 263.766V262.832C352.225 262.668 352.092 262.535 351.927 262.535H349.968C349.803 262.535 349.67 262.668 349.67 262.832V263.766C349.67 263.93 349.803 264.063 349.968 264.063Z" fill="#3F3D56"/>
<path d="M344.857 264.063H346.817C346.981 264.063 347.115 263.93 347.115 263.766V262.832C347.115 262.668 346.981 262.535 346.817 262.535H344.857C344.693 262.535 344.56 262.668 344.56 262.832V263.766C344.56 263.93 344.693 264.063 344.857 264.063Z" fill="#3F3D56"/>
<path d="M339.747 264.063H341.707C341.871 264.063 342.004 263.93 342.004 263.766V262.832C342.004 262.668 341.871 262.535 341.707 262.535H339.747C339.583 262.535 339.449 262.668 339.449 262.832V263.766C339.449 263.93 339.583 264.063 339.747 264.063Z" fill="#3F3D56"/>
<path d="M334.637 264.063H336.596C336.761 264.063 336.894 263.93 336.894 263.766V262.832C336.894 262.668 336.761 262.535 336.596 262.535H334.637C334.472 262.535 334.339 262.668 334.339 262.832V263.766C334.339 263.93 334.472 264.063 334.637 264.063Z" fill="#3F3D56"/>
<path d="M329.526 264.063H331.486C331.65 264.063 331.784 263.93 331.784 263.766V262.832C331.784 262.668 331.65 262.535 331.486 262.535H329.526C329.362 262.535 329.228 262.668 329.228 262.832V263.766C329.228 263.93 329.362 264.063 329.526 264.063Z" fill="#3F3D56"/>
<path d="M324.416 264.063H326.375C326.54 264.063 326.673 263.93 326.673 263.766V262.832C326.673 262.668 326.54 262.535 326.375 262.535H324.416C324.251 262.535 324.118 262.668 324.118 262.832V263.766C324.118 263.93 324.251 264.063 324.416 264.063Z" fill="#3F3D56"/>
<path d="M319.305 264.063H321.265C321.429 264.063 321.563 263.93 321.563 263.766V262.832C321.563 262.668 321.429 262.535 321.265 262.535H319.305C319.141 262.535 319.008 262.668 319.008 262.832V263.766C319.008 263.93 319.141 264.063 319.305 264.063Z" fill="#3F3D56"/>
<path d="M314.195 264.063H316.155C316.319 264.063 316.452 263.93 316.452 263.766V262.832C316.452 262.668 316.319 262.535 316.155 262.535H314.195C314.031 262.535 313.897 262.668 313.897 262.832V263.766C313.897 263.93 314.031 264.063 314.195 264.063Z" fill="#3F3D56"/>
<path d="M309.085 264.063H311.044C311.209 264.063 311.342 263.93 311.342 263.766V262.832C311.342 262.668 311.209 262.535 311.044 262.535H309.085C308.92 262.535 308.787 262.668 308.787 262.832V263.766C308.787 263.93 308.92 264.063 309.085 264.063Z" fill="#3F3D56"/>
<path d="M303.974 264.063H305.934C306.098 264.063 306.232 263.93 306.232 263.766V262.832C306.232 262.668 306.098 262.535 305.934 262.535H303.974C303.81 262.535 303.676 262.668 303.676 262.832V263.766C303.676 263.93 303.81 264.063 303.974 264.063Z" fill="#3F3D56"/>
<path d="M380.69 266.61H382.65C382.814 266.61 382.948 266.477 382.948 266.313V265.379C382.948 265.215 382.814 265.082 382.65 265.082H380.69C380.526 265.082 380.393 265.215 380.393 265.379V266.313C380.393 266.477 380.526 266.61 380.69 266.61Z" fill="#3F3D56"/>
<path d="M375.58 266.61H377.54C377.704 266.61 377.837 266.477 377.837 266.313V265.379C377.837 265.215 377.704 265.082 377.54 265.082H375.58C375.416 265.082 375.282 265.215 375.282 265.379V266.313C375.282 266.477 375.416 266.61 375.58 266.61Z" fill="#3F3D56"/>
<path d="M370.47 266.61H372.429C372.594 266.61 372.727 266.477 372.727 266.313V265.379C372.727 265.215 372.594 265.082 372.429 265.082H370.47C370.305 265.082 370.172 265.215 370.172 265.379V266.313C370.172 266.477 370.305 266.61 370.47 266.61Z" fill="#3F3D56"/>
<path d="M365.359 266.61H367.319C367.483 266.61 367.617 266.477 367.617 266.313V265.379C367.617 265.215 367.483 265.082 367.319 265.082H365.359C365.195 265.082 365.061 265.215 365.061 265.379V266.313C365.061 266.477 365.195 266.61 365.359 266.61Z" fill="#3F3D56"/>
<path d="M360.249 266.61H362.208C362.373 266.61 362.506 266.477 362.506 266.313V265.379C362.506 265.215 362.373 265.082 362.208 265.082H360.249C360.084 265.082 359.951 265.215 359.951 265.379V266.313C359.951 266.477 360.084 266.61 360.249 266.61Z" fill="#3F3D56"/>
<path d="M355.139 266.61H357.098C357.263 266.61 357.396 266.477 357.396 266.313V265.379C357.396 265.215 357.263 265.082 357.098 265.082H355.139C354.974 265.082 354.841 265.215 354.841 265.379V266.313C354.841 266.477 354.974 266.61 355.139 266.61Z" fill="#3F3D56"/>
<path d="M350.028 266.61H351.988C352.152 266.61 352.286 266.477 352.286 266.313V265.379C352.286 265.215 352.152 265.082 351.988 265.082H350.028C349.864 265.082 349.73 265.215 349.73 265.379V266.313C349.73 266.477 349.864 266.61 350.028 266.61Z" fill="#3F3D56"/>
<path d="M344.918 266.61H346.877C347.042 266.61 347.175 266.477 347.175 266.313V265.379C347.175 265.215 347.042 265.082 346.877 265.082H344.918C344.753 265.082 344.62 265.215 344.62 265.379V266.313C344.62 266.477 344.753 266.61 344.918 266.61Z" fill="#3F3D56"/>
<path d="M339.807 266.61H341.767C341.931 266.61 342.065 266.477 342.065 266.313V265.379C342.065 265.215 341.931 265.082 341.767 265.082H339.807C339.643 265.082 339.51 265.215 339.51 265.379V266.313C339.51 266.477 339.643 266.61 339.807 266.61Z" fill="#3F3D56"/>
<path d="M334.697 266.61H336.657C336.821 266.61 336.954 266.477 336.954 266.313V265.379C336.954 265.215 336.821 265.082 336.657 265.082H334.697C334.533 265.082 334.399 265.215 334.399 265.379V266.313C334.399 266.477 334.533 266.61 334.697 266.61Z" fill="#3F3D56"/>
<path d="M329.587 266.61H331.546C331.711 266.61 331.844 266.477 331.844 266.313V265.379C331.844 265.215 331.711 265.082 331.546 265.082H329.587C329.422 265.082 329.289 265.215 329.289 265.379V266.313C329.289 266.477 329.422 266.61 329.587 266.61Z" fill="#3F3D56"/>
<path d="M324.476 266.61H326.436C326.6 266.61 326.734 266.477 326.734 266.313V265.379C326.734 265.215 326.6 265.082 326.436 265.082H324.476C324.312 265.082 324.178 265.215 324.178 265.379V266.313C324.178 266.477 324.312 266.61 324.476 266.61Z" fill="#3F3D56"/>
<path d="M319.366 266.61H321.325C321.49 266.61 321.623 266.477 321.623 266.313V265.379C321.623 265.215 321.49 265.082 321.325 265.082H319.366C319.201 265.082 319.068 265.215 319.068 265.379V266.313C319.068 266.477 319.201 266.61 319.366 266.61Z" fill="#3F3D56"/>
<path d="M314.255 266.61H316.215C316.38 266.61 316.513 266.477 316.513 266.313V265.379C316.513 265.215 316.38 265.082 316.215 265.082H314.255C314.091 265.082 313.958 265.215 313.958 265.379V266.313C313.958 266.477 314.091 266.61 314.255 266.61Z" fill="#3F3D56"/>
<path d="M309.145 266.61H311.105C311.269 266.61 311.402 266.477 311.402 266.313V265.379C311.402 265.215 311.269 265.082 311.105 265.082H309.145C308.981 265.082 308.847 265.215 308.847 265.379V266.313C308.847 266.477 308.981 266.61 309.145 266.61Z" fill="#3F3D56"/>
<path d="M304.035 266.61H305.994C306.159 266.61 306.292 266.477 306.292 266.313V265.379C306.292 265.215 306.159 265.082 305.994 265.082H304.035C303.87 265.082 303.737 265.215 303.737 265.379V266.313C303.737 266.477 303.87 266.61 304.035 266.61Z" fill="#3F3D56"/>
<path d="M338.274 269.667H358.12C358.285 269.667 358.418 269.534 358.418 269.37V268.435C358.418 268.271 358.285 268.138 358.12 268.138H338.274C338.11 268.138 337.976 268.271 337.976 268.435V269.37C337.976 269.534 338.11 269.667 338.274 269.667Z" fill="#3F3D56"/>
<path d="M317.248 218.154H315.513C314.987 218.154 314.561 218.579 314.561 219.104C314.561 219.628 314.987 220.053 315.513 220.053H317.248C317.774 220.053 318.201 219.628 318.201 219.104C318.201 218.579 317.774 218.154 317.248 218.154Z" fill="white"/>
<path d="M337.089 218.154H335.354C334.828 218.154 334.402 218.579 334.402 219.104C334.402 219.628 334.828 220.053 335.354 220.053H337.089C337.615 220.053 338.041 219.628 338.041 219.104C338.041 218.579 337.615 218.154 337.089 218.154Z" fill="white"/>
<path d="M342.71 218.154H340.976C340.45 218.154 340.023 218.579 340.023 219.104C340.023 219.628 340.45 220.053 340.976 220.053H342.71C343.236 220.053 343.663 219.628 343.663 219.104C343.663 218.579 343.236 218.154 342.71 218.154Z" fill="white"/>
<path d="M331.692 217.996H320.91C320.384 217.996 319.958 218.421 319.958 218.945C319.958 219.47 320.384 219.895 320.91 219.895H331.692C332.218 219.895 332.644 219.47 332.644 218.945C332.644 218.421 332.218 217.996 331.692 217.996Z" fill="white"/>
<path d="M358.146 217.996H347.364C346.838 217.996 346.412 218.421 346.412 218.945C346.412 219.47 346.838 219.895 347.364 219.895H358.146C358.672 219.895 359.099 219.47 359.099 218.945C359.099 218.421 358.672 217.996 358.146 217.996Z" fill="white"/>
<path d="M322.539 222.439H320.804C320.278 222.439 319.852 222.864 319.852 223.389C319.852 223.913 320.278 224.338 320.804 224.338H322.539C323.065 224.338 323.491 223.913 323.491 223.389C323.491 222.864 323.065 222.439 322.539 222.439Z" fill="white"/>
<path d="M342.38 222.439H340.645C340.119 222.439 339.693 222.864 339.693 223.389C339.693 223.913 340.119 224.338 340.645 224.338H342.38C342.906 224.338 343.332 223.913 343.332 223.389C343.332 222.864 342.906 222.439 342.38 222.439Z" fill="white"/>
<path d="M348.001 222.439H346.266C345.74 222.439 345.314 222.864 345.314 223.389C345.314 223.913 345.74 224.338 346.266 224.338H348.001C348.527 224.338 348.954 223.913 348.954 223.389C348.954 222.864 348.527 222.439 348.001 222.439Z" fill="white"/>
<path d="M336.983 222.281H326.201C325.675 222.281 325.249 222.706 325.249 223.231C325.249 223.755 325.675 224.18 326.201 224.18H336.983C337.509 224.18 337.935 223.755 337.935 223.231C337.935 222.706 337.509 222.281 336.983 222.281Z" fill="white"/>
<path d="M363.437 222.281H352.655C352.129 222.281 351.703 222.706 351.703 223.231C351.703 223.755 352.129 224.18 352.655 224.18H363.437C363.963 224.18 364.39 223.755 364.39 223.231C364.39 222.706 363.963 222.281 363.437 222.281Z" fill="white"/>
<path d="M327.83 226.725H326.095C325.569 226.725 325.143 227.15 325.143 227.674C325.143 228.198 325.569 228.623 326.095 228.623H327.83C328.356 228.623 328.782 228.198 328.782 227.674C328.782 227.15 328.356 226.725 327.83 226.725Z" fill="white"/>
<path d="M347.671 226.725H345.936C345.41 226.725 344.983 227.15 344.983 227.674C344.983 228.198 345.41 228.623 345.936 228.623H347.671C348.196 228.623 348.623 228.198 348.623 227.674C348.623 227.15 348.196 226.725 347.671 226.725Z" fill="white"/>
<path d="M353.292 226.725H351.557C351.031 226.725 350.605 227.15 350.605 227.674C350.605 228.198 351.031 228.623 351.557 228.623H353.292C353.818 228.623 354.244 228.198 354.244 227.674C354.244 227.15 353.818 226.725 353.292 226.725Z" fill="white"/>
<path d="M342.274 226.566H331.492C330.966 226.566 330.539 226.991 330.539 227.516C330.539 228.04 330.966 228.465 331.492 228.465H342.274C342.8 228.465 343.226 228.04 343.226 227.516C343.226 226.991 342.8 226.566 342.274 226.566Z" fill="white"/>
<path d="M368.728 226.566H357.946C357.42 226.566 356.994 226.991 356.994 227.516C356.994 228.04 357.42 228.465 357.946 228.465H368.728C369.254 228.465 369.68 228.04 369.68 227.516C369.68 226.991 369.254 226.566 368.728 226.566Z" fill="white"/>
<path d="M333.121 231.01H331.386C330.86 231.01 330.434 231.435 330.434 231.959C330.434 232.483 330.86 232.909 331.386 232.909H333.121C333.647 232.909 334.073 232.483 334.073 231.959C334.073 231.435 333.647 231.01 333.121 231.01Z" fill="white"/>
<path d="M352.961 231.01H351.227C350.701 231.01 350.274 231.435 350.274 231.959C350.274 232.483 350.701 232.909 351.227 232.909H352.961C353.487 232.909 353.914 232.483 353.914 231.959C353.914 231.435 353.487 231.01 352.961 231.01Z" fill="white"/>
<path d="M358.583 231.01H356.848C356.322 231.01 355.896 231.435 355.896 231.959C355.896 232.483 356.322 232.909 356.848 232.909H358.583C359.109 232.909 359.535 232.483 359.535 231.959C359.535 231.435 359.109 231.01 358.583 231.01Z" fill="white"/>
<path d="M347.565 230.852H336.783C336.257 230.852 335.83 231.277 335.83 231.801C335.83 232.325 336.257 232.75 336.783 232.75H347.565C348.091 232.75 348.517 232.325 348.517 231.801C348.517 231.277 348.091 230.852 347.565 230.852Z" fill="white"/>
<path d="M337.089 248.05H335.354C334.828 248.05 334.402 248.475 334.402 248.999C334.402 249.523 334.828 249.948 335.354 249.948H337.089C337.615 249.948 338.041 249.523 338.041 248.999C338.041 248.475 337.615 248.05 337.089 248.05Z" fill="white"/>
<path d="M342.71 248.05H340.976C340.45 248.05 340.023 248.475 340.023 248.999C340.023 249.523 340.45 249.948 340.976 249.948H342.71C343.236 249.948 343.663 249.523 343.663 248.999C343.663 248.475 343.236 248.05 342.71 248.05Z" fill="white"/>
<path d="M358.146 248.208H347.364C346.838 248.208 346.412 248.633 346.412 249.157C346.412 249.682 346.838 250.107 347.364 250.107H358.146C358.672 250.107 359.099 249.682 359.099 249.157C359.099 248.633 358.672 248.208 358.146 248.208Z" fill="white"/>
<path d="M317.248 248.05H315.513C314.987 248.05 314.561 248.475 314.561 248.999C314.561 249.523 314.987 249.948 315.513 249.948H317.248C317.774 249.948 318.201 249.523 318.201 248.999C318.201 248.475 317.774 248.05 317.248 248.05Z" fill="white"/>
<path d="M331.692 248.208H320.91C320.384 248.208 319.958 248.633 319.958 249.157C319.958 249.682 320.384 250.107 320.91 250.107H331.692C332.218 250.107 332.644 249.682 332.644 249.157C332.644 248.633 332.218 248.208 331.692 248.208Z" fill="white"/>
<path d="M322.539 243.764H320.804C320.278 243.764 319.852 244.189 319.852 244.714C319.852 245.238 320.278 245.663 320.804 245.663H322.539C323.065 245.663 323.491 245.238 323.491 244.714C323.491 244.189 323.065 243.764 322.539 243.764Z" fill="white"/>
<path d="M342.38 243.764H340.645C340.119 243.764 339.693 244.189 339.693 244.714C339.693 245.238 340.119 245.663 340.645 245.663H342.38C342.906 245.663 343.332 245.238 343.332 244.714C343.332 244.189 342.906 243.764 342.38 243.764Z" fill="white"/>
<path d="M348.001 243.764H346.266C345.74 243.764 345.314 244.189 345.314 244.714C345.314 245.238 345.74 245.663 346.266 245.663H348.001C348.527 245.663 348.954 245.238 348.954 244.714C348.954 244.189 348.527 243.764 348.001 243.764Z" fill="white"/>
<path d="M336.983 243.923H326.201C325.675 243.923 325.249 244.348 325.249 244.872C325.249 245.396 325.675 245.821 326.201 245.821H336.983C337.509 245.821 337.935 245.396 337.935 244.872C337.935 244.348 337.509 243.923 336.983 243.923Z" fill="white"/>
<path d="M327.83 239.479H326.095C325.569 239.479 325.143 239.904 325.143 240.429C325.143 240.953 325.569 241.378 326.095 241.378H327.83C328.356 241.378 328.782 240.953 328.782 240.429C328.782 239.904 328.356 239.479 327.83 239.479Z" fill="white"/>
<path d="M347.671 239.479H345.936C345.41 239.479 344.983 239.904 344.983 240.429C344.983 240.953 345.41 241.378 345.936 241.378H347.671C348.196 241.378 348.623 240.953 348.623 240.429C348.623 239.904 348.196 239.479 347.671 239.479Z" fill="white"/>
<path d="M353.292 239.479H351.557C351.031 239.479 350.605 239.904 350.605 240.429C350.605 240.953 351.031 241.378 351.557 241.378H353.292C353.818 241.378 354.244 240.953 354.244 240.429C354.244 239.904 353.818 239.479 353.292 239.479Z" fill="white"/>
<path d="M342.274 239.638H331.492C330.966 239.638 330.539 240.063 330.539 240.587C330.539 241.111 330.966 241.536 331.492 241.536H342.274C342.8 241.536 343.226 241.111 343.226 240.587C343.226 240.063 342.8 239.638 342.274 239.638Z" fill="white"/>
<path d="M333.121 235.194H331.386C330.86 235.194 330.434 235.619 330.434 236.143C330.434 236.668 330.86 237.093 331.386 237.093H333.121C333.647 237.093 334.073 236.668 334.073 236.143C334.073 235.619 333.647 235.194 333.121 235.194Z" fill="white"/>
<path d="M352.961 235.194H351.227C350.701 235.194 350.274 235.619 350.274 236.143C350.274 236.668 350.701 237.093 351.227 237.093H352.961C353.487 237.093 353.914 236.668 353.914 236.143C353.914 235.619 353.487 235.194 352.961 235.194Z" fill="white"/>
<path d="M358.583 235.194H356.848C356.322 235.194 355.896 235.619 355.896 236.143C355.896 236.668 356.322 237.093 356.848 237.093H358.583C359.109 237.093 359.535 236.668 359.535 236.143C359.535 235.619 359.109 235.194 358.583 235.194Z" fill="white"/>
<path d="M347.565 235.352H336.783C336.257 235.352 335.83 235.777 335.83 236.302C335.83 236.826 336.257 237.251 336.783 237.251H347.565C348.091 237.251 348.517 236.826 348.517 236.302C348.517 235.777 348.091 235.352 347.565 235.352Z" fill="white"/>
<path d="M308.025 298.27L299.881 285.438L325.444 265.125L335.995 253.473C337.365 251.959 339.111 250.831 341.056 250.2C343.002 249.569 345.079 249.458 347.081 249.879C349.083 250.299 350.939 251.236 352.464 252.595C353.989 253.954 355.129 255.689 355.771 257.625C356.722 260.495 356.518 263.62 355.201 266.342C353.884 269.064 351.558 271.17 348.713 272.215L332.029 278.342L308.025 298.27Z" fill="#FFB6B6"/>
<path d="M116.941 205.228V267.597H160.773V205.228C160.773 204.779 160.63 204.342 160.363 203.981C160.096 203.62 159.72 203.354 159.29 203.221C159.088 203.154 158.875 203.122 158.662 203.124H119.057C118.78 203.123 118.505 203.177 118.248 203.283C117.991 203.388 117.758 203.543 117.562 203.739C117.365 203.934 117.209 204.166 117.102 204.422C116.996 204.677 116.941 204.951 116.941 205.228ZM134.046 226.658C134.058 225.428 134.556 224.253 135.432 223.388C136.308 222.522 137.492 222.037 138.725 222.037C139.959 222.037 141.143 222.522 142.019 223.388C142.895 224.253 143.393 225.428 143.405 226.658V233.895C143.398 235.128 142.903 236.308 142.026 237.177C141.149 238.047 139.962 238.535 138.725 238.535C137.489 238.535 136.302 238.047 135.425 237.177C134.548 236.308 134.053 235.128 134.046 233.895V226.658Z" fill="#2F2E41"/>
<path d="M116.806 265.602V271.616C116.807 271.928 116.932 272.226 117.152 272.447C117.372 272.668 117.671 272.793 117.984 272.796H159.73C160.042 272.794 160.342 272.67 160.563 272.448C160.783 272.227 160.907 271.928 160.907 271.616V265.602H116.806Z" fill="#3F3D56"/>
<path d="M47.9866 111.262V225.138C47.9877 226.589 48.5666 227.98 49.596 229.007C50.6254 230.033 52.0212 230.61 53.477 230.611H222.766C224.222 230.61 225.618 230.033 226.647 229.007C227.677 227.98 228.255 226.589 228.257 225.138V111.262C228.253 109.812 227.673 108.422 226.644 107.398C225.615 106.373 224.221 105.797 222.766 105.795H53.477C52.0225 105.797 50.628 106.373 49.5989 107.398C48.5698 108.422 47.99 109.812 47.9866 111.262Z" fill="#3F3D56"/>
<path d="M51.958 112.679V223.733C51.9594 224.508 52.2689 225.252 52.8189 225.8C53.3689 226.348 54.1145 226.657 54.8923 226.658H221.357C222.135 226.657 222.88 226.348 223.43 225.8C223.98 225.252 224.29 224.508 224.291 223.733V112.679C224.291 111.902 223.982 111.158 223.432 110.608C222.882 110.059 222.136 109.749 221.357 109.747H54.8923C54.1136 109.749 53.3673 110.059 52.8172 110.608C52.2671 111.158 51.9581 111.902 51.958 112.679Z" fill="white"/>
<path d="M82.851 272.389C83.0204 272.6 83.2358 272.771 83.4809 272.888C83.726 273.005 83.9945 273.065 84.2663 273.064H183.302C183.573 273.063 183.84 273.003 184.085 272.886C184.329 272.77 184.544 272.601 184.715 272.391C184.886 272.182 185.007 271.937 185.071 271.674C185.135 271.412 185.139 271.139 185.083 270.874L183.546 263.595C183.482 263.298 183.345 263.022 183.147 262.792C182.949 262.561 182.696 262.384 182.411 262.276C182.205 262.195 181.986 262.154 181.765 262.154H85.7975C85.5762 262.154 85.3569 262.195 85.1509 262.276C84.8663 262.384 84.6134 262.561 84.4152 262.792C84.2171 263.022 84.0799 263.298 84.0162 263.595L82.4788 270.874C82.4241 271.138 82.4292 271.411 82.4935 271.673C82.5579 271.935 82.68 272.18 82.851 272.389Z" fill="#2F2E41"/>
<path d="M215.955 125.046H60.1944C60.0325 125.042 59.8784 124.975 59.7652 124.86C59.652 124.745 59.5886 124.59 59.5886 124.428C59.5886 124.267 59.652 124.112 59.7652 123.996C59.8784 123.881 60.0325 123.814 60.1944 123.811H215.955C216.116 123.814 216.271 123.881 216.384 123.996C216.497 124.112 216.56 124.267 216.56 124.428C216.56 124.59 216.497 124.745 216.384 124.86C216.271 124.975 216.116 125.042 215.955 125.046Z" fill="#3F3D56"/>
<path d="M70.7972 120.658C72.802 120.658 74.4272 119.002 74.4272 116.959C74.4272 114.916 72.802 113.26 70.7972 113.26C68.7923 113.26 67.1671 114.916 67.1671 116.959C67.1671 119.002 68.7923 120.658 70.7972 120.658Z" fill="#3F3D56"/>
<path d="M83.3374 120.658C85.3422 120.658 86.9675 119.002 86.9675 116.959C86.9675 114.916 85.3422 113.26 83.3374 113.26C81.3326 113.26 79.7073 114.916 79.7073 116.959C79.7073 119.002 81.3326 120.658 83.3374 120.658Z" fill="#3F3D56"/>
<path d="M95.8776 120.658C97.8824 120.658 99.5077 119.002 99.5077 116.959C99.5077 114.916 97.8824 113.26 95.8776 113.26C93.8728 113.26 92.2476 114.916 92.2476 116.959C92.2476 119.002 93.8728 120.658 95.8776 120.658Z" fill="#3F3D56"/>
<path d="M208.403 114.175H199.497C199.32 114.179 199.153 114.251 199.03 114.377C198.907 114.502 198.838 114.671 198.838 114.847C198.838 115.022 198.907 115.191 199.03 115.316C199.153 115.442 199.32 115.514 199.497 115.519H208.403C208.58 115.516 208.749 115.444 208.874 115.318C208.998 115.193 209.068 115.023 209.068 114.847C209.068 114.67 208.998 114.501 208.874 114.375C208.749 114.249 208.58 114.177 208.403 114.175Z" fill="#3F3D56"/>
<path d="M208.403 116.698H199.497C199.32 116.702 199.153 116.775 199.029 116.9C198.906 117.026 198.837 117.195 198.837 117.37C198.837 117.546 198.906 117.715 199.029 117.84C199.153 117.966 199.32 118.038 199.497 118.042H208.403C208.581 118.04 208.75 117.968 208.875 117.843C208.999 117.717 209.069 117.547 209.069 117.37C209.069 117.193 208.999 117.024 208.875 116.898C208.75 116.772 208.581 116.7 208.403 116.698Z" fill="#3F3D56"/>
<path d="M208.403 119.222H199.497C199.32 119.226 199.153 119.299 199.03 119.424C198.907 119.55 198.838 119.718 198.838 119.894C198.838 120.069 198.907 120.238 199.03 120.364C199.153 120.489 199.32 120.562 199.497 120.566H208.403C208.58 120.563 208.749 120.491 208.874 120.366C208.998 120.24 209.068 120.07 209.068 119.894C209.068 119.717 208.998 119.548 208.874 119.422C208.749 119.296 208.58 119.224 208.403 119.222Z" fill="#3F3D56"/>
<path d="M423.129 268.241C423.397 269.021 423.907 269.697 424.585 270.17C425.263 270.643 426.073 270.89 426.901 270.875L443.062 270.461C443.895 270.444 444.701 270.16 445.359 269.649C446.016 269.139 446.491 268.43 446.711 267.629L448.997 243.251C449.809 243.617 450.692 243.798 451.583 243.78C452.357 243.761 453.119 243.59 453.826 243.277C454.534 242.964 455.172 242.515 455.706 241.956C456.239 241.397 456.657 240.738 456.935 240.018C457.213 239.298 457.346 238.531 457.327 237.76C457.308 236.988 457.136 236.228 456.822 235.523C456.508 234.818 456.058 234.181 455.497 233.65C454.936 233.118 454.275 232.702 453.553 232.424C452.831 232.147 452.061 232.014 451.287 232.034C450.931 232.032 450.576 232.069 450.228 232.143C449.849 231.735 449.389 231.41 448.877 231.19C448.365 230.97 447.812 230.859 447.254 230.865L422.395 231.505C422.188 231.512 421.983 231.537 421.781 231.58C421.236 231.682 420.719 231.898 420.265 232.215C419.811 232.533 419.43 232.943 419.148 233.419C418.867 233.896 418.691 234.426 418.632 234.976C418.573 235.526 418.634 236.082 418.808 236.606L423.129 268.241ZM449.467 241.596L451.094 235.786C451.279 235.115 451.283 234.408 451.106 233.734C451.185 233.734 451.255 233.697 451.334 233.697C452.45 233.674 453.529 234.093 454.336 234.862C455.142 235.631 455.61 236.687 455.636 237.8C455.662 238.912 455.244 239.989 454.475 240.795C453.706 241.601 452.647 242.07 451.531 242.099C450.81 242.122 450.096 241.947 449.467 241.596Z" fill="#2F2E41"/>
<path d="M421.781 231.58C422.311 234.599 428.266 236.721 435.426 236.352C442.01 236.05 447.393 233.745 448.38 231.014C448.015 230.906 447.635 230.856 447.254 230.865L422.395 231.504C422.188 231.512 421.983 231.537 421.781 231.58Z" fill="#3F3D56"/>
<path d="M436.738 254.846C436.771 254.837 436.802 254.824 436.83 254.805L440.34 252.515C440.382 252.488 440.417 252.45 440.441 252.406C440.465 252.361 440.478 252.312 440.478 252.261C440.478 252.211 440.465 252.161 440.441 252.117C440.417 252.072 440.382 252.034 440.34 252.007L436.692 249.625C436.658 249.603 436.621 249.588 436.581 249.58C436.542 249.573 436.502 249.573 436.462 249.581C436.423 249.589 436.386 249.605 436.352 249.627C436.319 249.65 436.291 249.678 436.269 249.712C436.247 249.745 436.232 249.783 436.224 249.822C436.217 249.861 436.217 249.902 436.225 249.941C436.234 249.98 436.25 250.017 436.272 250.05C436.295 250.083 436.324 250.112 436.358 250.133L439.616 252.261L436.496 254.297C436.436 254.336 436.391 254.395 436.371 254.464C436.35 254.533 436.355 254.607 436.384 254.673C436.413 254.739 436.464 254.793 436.529 254.824C436.594 254.856 436.668 254.863 436.738 254.846Z" fill="#0167FF"/>
<path d="M431.195 255.101C431.253 255.086 431.307 255.054 431.347 255.008C431.388 254.963 431.414 254.907 431.422 254.847C431.43 254.787 431.42 254.726 431.393 254.672C431.367 254.617 431.324 254.572 431.271 254.542L428.036 252.693L431.163 250.378C431.195 250.354 431.222 250.324 431.243 250.29C431.263 250.256 431.277 250.218 431.283 250.178C431.289 250.139 431.287 250.099 431.277 250.06C431.267 250.021 431.25 249.985 431.226 249.953C431.202 249.921 431.172 249.894 431.138 249.873C431.103 249.853 431.065 249.839 431.026 249.833C430.986 249.828 430.946 249.83 430.907 249.839C430.868 249.849 430.832 249.866 430.8 249.89L427.299 252.482C427.258 252.512 427.226 252.552 427.204 252.598C427.183 252.644 427.173 252.694 427.176 252.744C427.179 252.795 427.195 252.843 427.221 252.886C427.248 252.929 427.285 252.965 427.329 252.99L430.968 255.07C431.037 255.109 431.118 255.12 431.195 255.101Z" fill="#0167FF"/>
<path d="M436.389 256.852C436.418 256.845 436.447 256.833 436.472 256.817C436.507 256.797 436.536 256.769 436.56 256.737C436.584 256.705 436.601 256.668 436.61 256.629C436.62 256.591 436.622 256.55 436.615 256.511C436.609 256.471 436.595 256.434 436.575 256.399L431.599 248.246C431.557 248.177 431.489 248.128 431.411 248.109C431.332 248.09 431.249 248.103 431.18 248.145C431.111 248.186 431.062 248.254 431.042 248.332C431.023 248.411 431.036 248.493 431.078 248.562L436.053 256.716C436.087 256.771 436.138 256.815 436.199 256.839C436.259 256.864 436.326 256.868 436.389 256.852Z" fill="#0167FF"/>
<path d="M156.685 158.614H129.726C128.627 158.614 127.735 159.502 127.735 160.599V163.224C127.735 164.32 128.627 165.209 129.726 165.209H156.685C157.785 165.209 158.676 164.32 158.676 163.224V160.599C158.676 159.502 157.785 158.614 156.685 158.614Z" fill="#0167FF"/>
<path d="M172.399 171.805H114.012C112.913 171.805 112.021 172.693 112.021 173.789V176.415C112.021 177.511 112.913 178.4 114.012 178.4H172.399C173.499 178.4 174.39 177.511 174.39 176.415V173.789C174.39 172.693 173.499 171.805 172.399 171.805Z" fill="#E6E6E6"/>
<path d="M172.399 184.995H114.012C112.913 184.995 112.021 185.884 112.021 186.98V189.606C112.021 190.702 112.913 191.591 114.012 191.591H172.399C173.499 191.591 174.39 190.702 174.39 189.606V186.98C174.39 185.884 173.499 184.995 172.399 184.995Z" fill="#E6E6E6"/>
<path d="M177.349 229.167L177.481 229.583L177.488 229.597L181.468 241.66L186.048 255.563L194.663 281.688L194.747 285.746V285.76L195.387 318.407L193.612 322.833L195.61 330.089C195.61 330.089 194.691 319.12 189.764 325.419C186.973 328.999 183.709 332.662 181.03 336.096C184.934 337.671 188.901 339.095 192.93 340.369C193.8 340.647 194.677 340.91 195.554 341.174C195.742 341.229 195.93 341.285 196.118 341.34C209.475 345.278 223.283 347.49 237.205 347.924C237.929 347.945 238.639 347.958 239.328 347.972C239.571 347.979 239.808 347.986 240.044 347.986C240.824 347.993 241.596 348 242.376 348C243.949 348 245.514 347.977 247.073 347.931C258.611 347.606 270.082 346.06 281.292 343.317C281.215 338.704 281.007 333.314 280.707 327.556C280.568 324.733 277.444 321.673 277.256 318.718C277.123 316.498 279.928 314.41 279.782 312.155C278.835 298.274 277.652 303.603 276.775 293.773C276.685 292.808 276.601 291.886 276.525 291.005C275.961 284.692 275.571 280.745 275.571 280.745L279.316 257.221L285.196 220.287L284.744 219.545L284.236 219.295L253.218 203.991L251.534 199.69C251.043 198.451 250.192 197.387 249.09 196.634C247.987 195.881 246.684 195.474 245.347 195.466L224.915 195.382C223.855 195.378 222.808 195.625 221.863 196.104C220.918 196.583 220.101 197.28 219.48 198.136L213.947 205.774L177.349 229.167Z" fill="#3F3D56"/>
<path d="M199.375 275.875L194.747 285.746L191.587 292.489L186.152 320.856L183.431 323.735L181.1 313.543L156.699 318.944C155.899 314.511 156.485 319.094 155.991 314.231C156.13 314.092 156.276 313.953 156.422 313.814C156.812 313.454 157.139 313.114 157.132 312.788C156.854 296.013 157.689 267.467 164.662 250.172C165.754 247.349 167.194 244.671 168.949 242.202C169.088 242.014 169.22 241.827 169.352 241.64C172.568 237.151 174.6 232.732 177.481 229.59V229.583C177.499 229.568 177.515 229.552 177.53 229.534C177.54 229.529 177.549 229.522 177.557 229.513L197.349 219.052L198.198 242.833L198.804 259.926L199.375 275.875Z" fill="#3F3D56"/>
<path d="M270.741 278.679L276.522 291.008L278.54 295.302L283.973 323.666L286.686 326.538L289.022 316.348L290.12 316.124L309.922 312.036L315.693 330.308C316.994 328.147 317.506 325.605 317.144 323.111C316.781 320.618 315.566 318.325 313.704 316.622C313.309 316.266 312.981 315.92 312.99 315.593C313.319 295.863 312.108 259.838 301.175 245.011C297.703 240.305 295.62 235.619 292.588 232.344C292.579 232.335 292.579 232.326 292.57 232.326L285.193 220.286L284.743 219.547L284.236 219.295L270.741 278.679Z" fill="#3F3D56"/>
<path d="M235.721 189.586C250.734 189.586 262.904 177.454 262.904 162.489C262.904 147.524 250.734 135.393 235.721 135.393C220.709 135.393 208.539 147.524 208.539 162.489C208.539 177.454 220.709 189.586 235.721 189.586Z" fill="#FFB6B6"/>
<path d="M272.462 143.562C272.252 143.338 271.998 143.158 271.716 143.034C271.434 142.91 271.129 142.843 270.821 142.839L271.23 141.708C271.363 141.351 271.399 140.966 271.334 140.591C271.269 140.217 271.105 139.866 270.859 139.575C270.614 139.284 270.295 139.064 269.935 138.936C269.576 138.809 269.189 138.779 268.814 138.85L267.326 139.135L267.466 138.144C267.52 137.775 267.476 137.398 267.34 137.051C267.203 136.704 266.978 136.398 266.687 136.163C266.396 135.929 266.048 135.774 265.679 135.714C265.31 135.654 264.931 135.691 264.58 135.821C264.261 135.946 263.918 135.999 263.576 135.975C263.234 135.95 262.902 135.85 262.604 135.681C262.304 135.518 262.045 135.291 261.842 135.017C261.64 134.742 261.5 134.428 261.432 134.094L260.914 131.601L260.859 131.467C258.333 127.271 253.477 124.218 247.536 123.099C242.246 122.096 236.823 122.607 231.595 123.087C229.521 123.282 227.178 123.501 225.226 124.693C223.567 125.714 222.164 127.757 222.45 129.819C217.295 128.244 211.768 131.388 209.029 135.353C205.784 140.072 205.253 145.983 205.168 150.604C204.936 161.538 207.199 170.484 211.878 177.197C212.22 177.684 212.305 178.699 212.982 179.04L212.842 178.815C213.598 179.192 214.367 179.8 214.08 180.451C213.257 182.324 218.729 186.465 222.584 187.833C229.618 190.333 238.97 190.12 245.547 189.22L245.779 187.669C248.152 187.347 249.823 186.733 250.293 185.772C251.123 185.066 251.83 184.434 252.446 183.85L252.453 183.844C252.465 183.832 252.489 183.814 252.501 183.802C255.472 180.962 256.162 179.344 256.473 176.881C256.772 174.467 256.241 172.016 255.698 169.809C267.13 171.572 251.196 157.671 261.847 154.983C261.969 154.945 262.094 154.915 262.219 154.892C262.531 154.819 262.842 154.746 263.141 154.661C264.582 154.271 265.961 153.683 267.24 152.915C270.217 151.109 271.199 148.713 272.737 146.013C272.959 145.629 273.052 145.184 273.002 144.743C272.953 144.302 272.764 143.889 272.462 143.562Z" fill="#2F2E41"/>
<path d="M331.863 280.608C331.857 281.672 331.845 283.162 331.796 285.004C331.79 285.26 331.783 285.521 331.777 285.789C331.698 289.176 331.619 292.016 331.491 295.172C331.485 295.391 331.478 295.604 331.466 295.823C331.295 300.226 331.027 305.352 330.563 313.47C329.703 328.467 328.202 315.532 326.696 320.792C326.622 321.054 326.543 321.364 326.47 321.729C326.242 323.053 325.857 324.345 325.323 325.578C324.524 326.052 323.7 326.509 322.889 326.965C320.577 328.248 318.228 329.482 315.861 330.656C314.531 331.313 313.195 331.957 311.853 332.578C311.64 332.675 311.432 332.772 311.225 332.863C304.352 336.032 297.269 338.726 290.026 340.927C288.61 341.353 287.201 341.766 285.774 342.149C284.285 342.563 282.796 342.952 281.29 343.317C270.08 346.06 258.61 347.607 247.072 347.932C245.516 347.981 243.948 347.999 242.375 347.999C241.594 347.999 240.825 347.993 240.044 347.987C239.806 347.987 239.568 347.981 239.33 347.975C238.641 347.957 237.927 347.945 237.207 347.926C223.285 347.494 209.477 345.28 196.12 341.341L195.553 341.176C194.675 340.909 193.802 340.647 192.93 340.368C188.904 339.097 184.936 337.674 181.028 336.099C178.045 334.901 175.096 333.615 172.182 332.243C172.155 332.236 172.131 332.223 172.109 332.207C171.499 331.927 170.883 331.635 170.273 331.337C170.193 331.294 170.108 331.252 170.023 331.209C167.747 330.102 165.496 328.943 163.269 327.731C161.396 323.444 158.761 322.623 157.126 318.852C156.65 317.732 156.306 316.561 156.101 315.362C156.101 315.35 156.095 315.337 156.095 315.319C156.266 317.581 155.369 311.306 156.089 315.295C156.083 315.222 156.077 315.143 156.071 315.052C156.052 314.833 156.028 314.565 155.991 314.231C153.899 293.865 154.033 270.574 153.124 251.382C153.063 250.141 153 248.953 152.935 247.818C152.917 247.441 152.892 247.07 152.868 246.705C152.911 246.596 152.959 246.48 153.014 246.371C153.026 246.339 153.04 246.309 153.057 246.28C153.075 246.242 153.095 246.205 153.118 246.17C153.13 246.152 153.149 246.128 153.161 246.109C153.17 246.088 153.18 246.068 153.191 246.048C153.246 245.963 153.307 245.872 153.374 245.787C153.405 245.751 153.429 245.72 153.46 245.69C153.481 245.659 153.505 245.63 153.533 245.605C153.552 245.575 153.574 245.549 153.6 245.526C153.624 245.501 153.649 245.471 153.679 245.44C153.692 245.421 153.709 245.405 153.728 245.392C153.776 245.336 153.829 245.286 153.887 245.24C154.104 245.04 154.337 244.857 154.582 244.692C154.668 244.638 154.759 244.583 154.844 244.522C155.459 244.156 156.107 243.846 156.778 243.598C157.01 243.513 157.242 243.434 157.492 243.348C157.584 243.324 157.669 243.294 157.76 243.263C157.895 243.221 158.029 243.178 158.169 243.148C158.865 242.941 159.615 242.765 160.426 242.6C160.524 242.582 160.628 242.564 160.731 242.54C160.878 242.509 161.03 242.485 161.183 242.461C161.39 242.424 161.604 242.388 161.817 242.351C163.629 242.065 165.685 241.853 167.954 241.713C168.168 241.7 168.381 241.688 168.595 241.676C168.845 241.664 169.095 241.652 169.351 241.64C169.565 241.628 169.785 241.621 170.004 241.615C170.218 241.603 170.437 241.597 170.663 241.591C171.279 241.573 171.914 241.555 172.56 241.542C174.403 241.506 176.343 241.518 178.38 241.561C179.326 241.585 180.29 241.609 181.278 241.652C181.345 241.652 181.406 241.658 181.467 241.658C182.327 241.688 183.193 241.725 184.084 241.773C184.706 241.804 185.335 241.834 185.963 241.871C186.555 241.907 187.153 241.944 187.757 241.986C188.226 242.011 188.696 242.047 189.172 242.077C189.575 242.108 189.977 242.138 190.38 242.163L190.929 242.199C191.228 242.223 191.527 242.242 191.832 242.272C192.503 242.327 193.174 242.382 193.857 242.436C194.534 242.497 195.224 242.558 195.913 242.619C196.602 242.68 197.298 242.746 197.993 242.813C198.067 242.819 198.134 242.825 198.201 242.832C198.835 242.898 199.47 242.959 200.11 243.026C200.257 243.038 200.409 243.05 200.556 243.069C201.166 243.13 201.789 243.201 202.405 243.267C202.594 243.287 202.782 243.307 202.972 243.328C203.455 243.38 203.931 243.425 204.417 243.482C205.058 243.555 205.71 243.622 206.345 243.707C206.839 243.762 207.333 243.817 207.827 243.878C208.602 243.969 209.389 244.066 210.176 244.169C210.475 244.206 210.774 244.242 211.073 244.285C213.318 244.565 215.587 244.875 217.893 245.197C221.389 245.69 224.939 246.225 228.514 246.803C232.095 247.38 235.696 247.99 239.318 248.633C240.233 248.797 241.148 248.961 242.069 249.132C242.484 249.211 242.899 249.29 243.314 249.369C244.022 249.496 244.729 249.63 245.437 249.764C246.145 249.898 246.852 250.032 247.56 250.172C248.402 250.336 249.25 250.5 250.092 250.664C255.637 251.759 261.152 252.926 266.532 254.149C267.417 254.349 268.302 254.556 269.18 254.757C270.937 255.164 272.678 255.578 274.402 255.997C274.878 256.107 275.348 256.222 275.817 256.338C276.989 256.63 278.16 256.922 279.313 257.22L279.514 257.274C280.362 257.481 281.192 257.694 282.022 257.913C283.98 258.424 285.906 258.941 287.799 259.464C289.055 259.81 290.298 260.161 291.526 260.516C293.362 261.045 295.162 261.58 296.913 262.121C297.346 262.255 297.779 262.389 298.206 262.516C299.487 262.912 300.75 263.313 301.976 263.714C302.952 264.031 303.904 264.353 304.844 264.675C305.783 264.997 306.704 265.32 307.607 265.642C308.187 265.849 308.76 266.068 309.334 266.274C310.157 266.579 310.969 266.883 311.762 267.187C312.006 267.278 312.244 267.375 312.481 267.466C312.634 267.533 312.78 267.588 312.927 267.649C313.213 267.764 313.506 267.874 313.787 267.989C314.074 268.099 314.354 268.214 314.635 268.336C314.909 268.445 315.19 268.561 315.458 268.677C315.733 268.786 316.001 268.902 316.27 269.023C316.496 269.114 316.715 269.212 316.929 269.309C317.362 269.497 317.795 269.686 318.216 269.881C318.423 269.978 318.631 270.069 318.838 270.166L319.314 270.385C319.381 270.422 319.448 270.452 319.515 270.483C319.668 270.556 319.826 270.635 319.979 270.708C320.333 270.872 320.681 271.048 321.022 271.212C321.48 271.443 321.925 271.675 322.352 271.9C322.785 272.131 323.206 272.362 323.609 272.587C323.676 272.623 323.737 272.66 323.804 272.696C323.895 272.745 323.987 272.8 324.079 272.848C324.39 273.025 324.689 273.207 324.987 273.383C325.573 273.742 326.128 274.095 326.647 274.448C326.763 274.527 326.873 274.606 326.988 274.679C327.373 274.952 327.739 275.22 328.08 275.493C328.08 275.5 328.08 275.5 328.087 275.5C328.202 275.585 328.312 275.676 328.422 275.761C328.514 275.846 328.611 275.919 328.703 276.004C329.02 276.278 329.313 276.539 329.581 276.807C329.671 276.89 329.757 276.977 329.837 277.069C329.873 277.098 329.906 277.13 329.935 277.166C330.057 277.287 330.167 277.409 330.271 277.531C330.287 277.547 330.301 277.566 330.313 277.585C330.46 277.756 330.594 277.926 330.722 278.096C330.783 278.181 330.85 278.267 330.905 278.352C330.978 278.455 331.051 278.565 331.112 278.668C331.167 278.753 331.216 278.844 331.265 278.929C331.394 279.149 331.505 279.378 331.594 279.617C331.663 279.778 331.718 279.945 331.759 280.115C331.805 280.277 331.84 280.441 331.863 280.608Z" fill="#2F2E41"/>
<path opacity="0.2" d="M331.863 280.608C331.857 281.672 331.845 283.162 331.796 285.004C331.79 285.26 331.777 285.521 331.771 285.789C331.71 288.373 331.619 291.566 331.491 295.172C331.485 295.391 331.478 295.604 331.466 295.823C331.295 300.226 331.027 305.352 330.563 313.47C329.703 328.467 328.202 315.532 326.696 320.792C322.511 318.226 317.923 315.538 313.018 312.777C312.134 312.279 311.241 311.778 310.34 311.275C300.531 305.82 289.574 300.104 278.136 294.442C277.684 294.217 277.227 293.992 276.775 293.774C250.574 280.863 221.974 268.306 198.805 259.926C194.333 258.308 190.063 256.849 186.048 255.565C177.593 252.872 170.285 250.986 164.66 250.171C158.804 249.32 154.759 249.624 153.124 251.382C153.063 250.141 153 248.953 152.935 247.818C152.911 247.441 152.886 247.07 152.862 246.705C152.899 246.605 152.948 246.51 152.996 246.413C153.002 246.399 153.007 246.385 153.014 246.371C153.026 246.339 153.04 246.309 153.057 246.28C153.075 246.242 153.095 246.205 153.118 246.17C153.138 246.127 153.162 246.086 153.191 246.048C153.246 245.963 153.307 245.872 153.374 245.787C153.424 245.723 153.476 245.662 153.533 245.604C153.552 245.575 153.574 245.549 153.6 245.525C153.624 245.501 153.649 245.471 153.679 245.44C153.692 245.421 153.709 245.405 153.728 245.392C153.776 245.336 153.829 245.286 153.887 245.24C154.104 245.04 154.337 244.857 154.582 244.692C154.667 244.638 154.759 244.583 154.844 244.522C155.459 244.155 156.107 243.846 156.778 243.598C157.01 243.513 157.242 243.434 157.492 243.348C157.584 243.324 157.669 243.294 157.76 243.263C157.895 243.221 158.029 243.178 158.169 243.148C158.865 242.941 159.615 242.765 160.426 242.6C160.67 242.552 160.927 242.503 161.183 242.461C161.39 242.424 161.604 242.388 161.817 242.351C163.629 242.065 165.685 241.852 167.954 241.713C168.168 241.7 168.381 241.688 168.595 241.676C168.845 241.664 169.095 241.652 169.351 241.64C169.565 241.627 169.785 241.621 170.004 241.615C170.218 241.603 170.437 241.597 170.663 241.591C171.279 241.573 171.914 241.554 172.56 241.542C174.403 241.512 176.343 241.524 178.38 241.567C179.326 241.585 180.29 241.615 181.278 241.658C181.339 241.658 181.406 241.664 181.467 241.664C182.327 241.688 183.2 241.731 184.084 241.773C184.706 241.804 185.335 241.834 185.963 241.871C186.555 241.907 187.153 241.944 187.757 241.986C188.226 242.011 188.696 242.047 189.172 242.077C189.575 242.108 189.977 242.138 190.38 242.163C190.862 242.199 191.344 242.236 191.832 242.272C192.503 242.327 193.174 242.381 193.857 242.436C194.534 242.497 195.224 242.558 195.913 242.619C196.602 242.679 197.298 242.746 197.993 242.813C198.066 242.819 198.134 242.825 198.201 242.831C198.835 242.898 199.47 242.959 200.11 243.026C203.661 243.385 207.315 243.804 211.073 244.285C213.318 244.571 215.591 244.877 217.893 245.203C221.389 245.696 224.939 246.231 228.514 246.802C232.095 247.38 235.696 247.99 239.318 248.633C240.233 248.797 241.148 248.961 242.069 249.132C243.192 249.338 244.314 249.549 245.437 249.764C246.145 249.898 246.852 250.032 247.56 250.171C248.402 250.336 249.25 250.5 250.092 250.664C255.637 251.759 261.152 252.926 266.532 254.149C267.417 254.349 268.302 254.556 269.18 254.757C270.937 255.164 272.678 255.578 274.402 255.997C274.878 256.113 275.348 256.228 275.817 256.344C276.995 256.636 278.16 256.928 279.313 257.22V257.226C279.38 257.238 279.447 257.256 279.514 257.274C280.356 257.487 281.192 257.7 282.022 257.919C283.98 258.43 285.906 258.945 287.799 259.463C289.056 259.816 290.3 260.163 291.526 260.516C293.362 261.051 295.162 261.586 296.913 262.121C297.346 262.255 297.779 262.389 298.206 262.516C299.487 262.918 300.744 263.317 301.976 263.714C302.952 264.03 303.904 264.353 304.844 264.675C305.783 264.997 306.704 265.32 307.607 265.642C308.193 265.849 308.766 266.062 309.334 266.268C310.163 266.572 310.969 266.876 311.762 267.187C312.006 267.278 312.244 267.375 312.481 267.466C312.927 267.637 313.36 267.813 313.787 267.989C314.074 268.099 314.354 268.214 314.635 268.336C314.909 268.445 315.19 268.561 315.458 268.676C315.733 268.786 316.001 268.901 316.27 269.023C316.496 269.114 316.715 269.212 316.929 269.309C317.362 269.497 317.795 269.686 318.216 269.881C318.423 269.978 318.631 270.069 318.838 270.166L319.314 270.385C319.381 270.422 319.448 270.452 319.515 270.483C320.034 270.726 320.534 270.969 321.022 271.212C321.48 271.443 321.925 271.675 322.352 271.9C322.858 272.167 323.34 272.429 323.804 272.696C323.895 272.745 323.987 272.8 324.079 272.848C324.39 273.025 324.689 273.207 324.987 273.383C325.573 273.742 326.128 274.095 326.647 274.447C327.159 274.8 327.635 275.147 328.08 275.493C328.08 275.5 328.08 275.5 328.087 275.5C328.3 275.67 328.507 275.84 328.703 276.004C329.02 276.278 329.313 276.539 329.581 276.807C329.671 276.89 329.757 276.977 329.837 277.068C329.873 277.098 329.906 277.13 329.935 277.166C330.063 277.306 330.191 277.446 330.313 277.585C330.46 277.756 330.594 277.926 330.722 278.096C330.783 278.181 330.85 278.266 330.905 278.352C330.978 278.455 331.051 278.564 331.112 278.668C331.167 278.753 331.216 278.844 331.265 278.929C331.394 279.148 331.505 279.378 331.594 279.616C331.661 279.779 331.716 279.945 331.759 280.115C331.805 280.277 331.84 280.441 331.863 280.608Z" fill="black"/>
</g>
<defs>
<linearGradient id="paint0_linear_3746_204" x1="231.512" y1="18.9002" x2="231.512" y2="329.623" gradientUnits="userSpaceOnUse">
<stop stop-color="#0068B3"/>
<stop offset="1" stop-color="#00B37E"/>
</linearGradient>
<clipPath id="clip0_3746_204">
<rect width="480" height="348" fill="white"/>
</clipPath>
</defs>
</svg>
