<svg width="36" height="22" viewBox="0 0 36 22" fill="none" xmlns="http://www.w3.org/2000/svg">
<path d="M12.799 2.1028L3.00731 10.7986L12.793 19.4943C12.9112 19.5989 13.0076 19.7257 13.0767 19.8675C13.1458 20.0093 13.1863 20.1633 13.1959 20.3207C13.2056 20.4782 13.1841 20.636 13.1327 20.7851C13.0813 20.9343 13.001 21.0719 12.8965 21.19C12.7919 21.3081 12.6651 21.4045 12.5234 21.4736C12.3816 21.5428 12.2275 21.5833 12.0701 21.5929C11.9126 21.6025 11.7548 21.581 11.6057 21.5296C11.4565 21.4782 11.3189 21.398 11.2008 21.2934L0.406077 11.6981C0.278451 11.5856 0.176236 11.4471 0.106223 11.292C0.0362094 11.137 0 10.9687 0 10.7986C0 10.6284 0.0362094 10.4602 0.106223 10.3051C0.176236 10.15 0.278451 10.0116 0.406077 9.899L11.2008 0.303679C11.3189 0.198739 11.4566 0.118093 11.6059 0.066348C11.7552 0.0146026 11.9132 -0.00722933 12.071 0.00209841C12.2287 0.0114261 12.383 0.051731 12.5252 0.120712C12.6674 0.189693 12.7945 0.285998 12.8995 0.40413C13.0044 0.522262 13.0851 0.659907 13.1368 0.809206C13.1886 0.958505 13.2104 1.11653 13.2011 1.27427C13.1917 1.43201 13.1514 1.58636 13.0825 1.72852C13.0135 1.87068 12.9172 1.99786 12.799 2.1028ZM35.5879 9.899L24.7932 0.303679C24.5546 0.0925374 24.2419 -0.015182 23.9239 0.00421854C23.6059 0.0236191 23.3087 0.16855 23.0975 0.407129C22.8864 0.645707 22.7787 0.958391 22.7981 1.27639C22.8175 1.59439 22.9624 1.89166 23.201 2.1028L32.9927 10.7986L23.207 19.4943C23.0888 19.5989 22.9924 19.7257 22.9233 19.8675C22.8542 20.0093 22.8137 20.1633 22.8041 20.3207C22.7944 20.4782 22.8159 20.636 22.8673 20.7851C22.9187 20.9343 22.999 21.0719 23.1035 21.19C23.2081 21.3081 23.3349 21.4045 23.4766 21.4736C23.6184 21.5428 23.7725 21.5833 23.9299 21.5929C24.0874 21.6025 24.2452 21.581 24.3943 21.5296C24.5435 21.4782 24.6811 21.398 24.7992 21.2934L35.5939 11.6981C35.7215 11.5856 35.8238 11.4471 35.8938 11.292C35.9638 11.137 36 10.9687 36 10.7986C36 10.6284 35.9638 10.4602 35.8938 10.3051C35.8238 10.15 35.7215 10.0116 35.5939 9.899H35.5879Z" fill="#202024"/>
</svg>
