<svg width="307" height="92" viewBox="0 0 307 92" fill="none" xmlns="http://www.w3.org/2000/svg">
<path d="M0.590909 8.11364V7.40909C1.22348 7.40909 1.66477 7.27651 1.91477 7.01136C2.16856 6.74621 2.29545 6.30303 2.29545 5.68182V3.86364C2.29545 3.34091 2.3447 2.88826 2.44318 2.50568C2.54545 2.12311 2.71023 1.80682 2.9375 1.55682C3.16477 1.30682 3.4678 1.12121 3.84659 1C4.22538 0.878787 4.69318 0.818181 5.25 0.818181V1.93182C4.81061 1.93182 4.46402 2 4.21023 2.13636C3.96023 2.27273 3.7822 2.48485 3.67614 2.77273C3.57386 3.05682 3.52273 3.42045 3.52273 3.86364V6.13636C3.52273 6.43182 3.48295 6.70076 3.40341 6.94318C3.32765 7.18561 3.18561 7.39394 2.97727 7.56818C2.76894 7.74242 2.47159 7.87689 2.08523 7.97159C1.70265 8.06629 1.20455 8.11364 0.590909 8.11364ZM5.25 15.3636C4.69318 15.3636 4.22538 15.303 3.84659 15.1818C3.4678 15.0606 3.16477 14.875 2.9375 14.625C2.71023 14.375 2.54545 14.0587 2.44318 13.6761C2.3447 13.2936 2.29545 12.8409 2.29545 12.3182V10.5C2.29545 9.87879 2.16856 9.43561 1.91477 9.17045C1.66477 8.9053 1.22348 8.77273 0.590909 8.77273V8.06818C1.20455 8.06818 1.70265 8.11553 2.08523 8.21023C2.47159 8.30492 2.76894 8.43939 2.97727 8.61364C3.18561 8.78788 3.32765 8.99621 3.40341 9.23864C3.48295 9.48106 3.52273 9.75 3.52273 10.0455V12.3182C3.52273 12.7614 3.57386 13.125 3.67614 13.4091C3.7822 13.6932 3.96023 13.9034 4.21023 14.0398C4.46402 14.1799 4.81061 14.25 5.25 14.25V15.3636ZM0.590909 8.77273V7.40909H1.93182V8.77273H0.590909ZM55.9858 32.0909C55.7055 32.0909 55.465 31.9905 55.2642 31.7898C55.0634 31.589 54.9631 31.3485 54.9631 31.0682C54.9631 30.7879 55.0634 30.5473 55.2642 30.3466C55.465 30.1458 55.7055 30.0455 55.9858 30.0455C56.2661 30.0455 56.5066 30.1458 56.7074 30.3466C56.9081 30.5473 57.0085 30.7879 57.0085 31.0682C57.0085 31.2538 56.9612 31.4242 56.8665 31.5795C56.7756 31.7348 56.6525 31.8598 56.4972 31.9545C56.3456 32.0455 56.1752 32.0909 55.9858 32.0909ZM55.9858 25.6136C55.7055 25.6136 55.465 25.5133 55.2642 25.3125C55.0634 25.1117 54.9631 24.8712 54.9631 24.5909C54.9631 24.3106 55.0634 24.0701 55.2642 23.8693C55.465 23.6686 55.7055 23.5682 55.9858 23.5682C56.2661 23.5682 56.5066 23.6686 56.7074 23.8693C56.9081 24.0701 57.0085 24.3106 57.0085 24.5909C57.0085 24.7765 56.9612 24.947 56.8665 25.1023C56.7756 25.2576 56.6525 25.3826 56.4972 25.4773C56.3456 25.5682 56.1752 25.6136 55.9858 25.6136ZM72.267 51.0909C71.9867 51.0909 71.7462 50.9905 71.5455 50.7898C71.3447 50.589 71.2443 50.3485 71.2443 50.0682C71.2443 49.7879 71.3447 49.5473 71.5455 49.3466C71.7462 49.1458 71.9867 49.0455 72.267 49.0455C72.5473 49.0455 72.7879 49.1458 72.9886 49.3466C73.1894 49.5473 73.2898 49.7879 73.2898 50.0682C73.2898 50.2538 73.2424 50.4242 73.1477 50.5795C73.0568 50.7348 72.9337 50.8598 72.7784 50.9545C72.6269 51.0455 72.4564 51.0909 72.267 51.0909ZM72.267 44.6136C71.9867 44.6136 71.7462 44.5133 71.5455 44.3125C71.3447 44.1117 71.2443 43.8712 71.2443 43.5909C71.2443 43.3106 71.3447 43.0701 71.5455 42.8693C71.7462 42.6686 71.9867 42.5682 72.267 42.5682C72.5473 42.5682 72.7879 42.6686 72.9886 42.8693C73.1894 43.0701 73.2898 43.3106 73.2898 43.5909C73.2898 43.7765 73.2424 43.947 73.1477 44.1023C73.0568 44.2576 72.9337 44.3826 72.7784 44.4773C72.6269 44.5682 72.4564 44.6136 72.267 44.6136ZM143.236 70.0909C142.955 70.0909 142.715 69.9905 142.514 69.7898C142.313 69.589 142.213 69.3485 142.213 69.0682C142.213 68.7879 142.313 68.5473 142.514 68.3466C142.715 68.1458 142.955 68.0455 143.236 68.0455C143.516 68.0455 143.757 68.1458 143.957 68.3466C144.158 68.5473 144.259 68.7879 144.259 69.0682C144.259 69.2538 144.211 69.4242 144.116 69.5795C144.026 69.7348 143.902 69.8598 143.747 69.9545C143.596 70.0455 143.425 70.0909 143.236 70.0909ZM143.236 63.6136C142.955 63.6136 142.715 63.5133 142.514 63.3125C142.313 63.1117 142.213 62.8712 142.213 62.5909C142.213 62.3106 142.313 62.0701 142.514 61.8693C142.715 61.6686 142.955 61.5682 143.236 61.5682C143.516 61.5682 143.757 61.6686 143.957 61.8693C144.158 62.0701 144.259 62.3106 144.259 62.5909C144.259 62.7765 144.211 62.947 144.116 63.1023C144.026 63.2576 143.902 63.3826 143.747 63.4773C143.596 63.5682 143.425 63.6136 143.236 63.6136ZM5.20455 84.0682V84.7727C4.57197 84.7727 4.12879 84.9053 3.875 85.1705C3.625 85.4356 3.5 85.8788 3.5 86.5V88.3182C3.5 88.8409 3.44886 89.2936 3.34659 89.6761C3.24811 90.0587 3.08523 90.375 2.85795 90.625C2.63068 90.875 2.32765 91.0606 1.94886 91.1818C1.57008 91.303 1.10227 91.3636 0.545455 91.3636V90.25C0.984849 90.25 1.32955 90.1799 1.57955 90.0398C1.83333 89.9034 2.01136 89.6932 2.11364 89.4091C2.2197 89.125 2.27273 88.7614 2.27273 88.3182V86.0455C2.27273 85.75 2.31061 85.4811 2.38636 85.2386C2.46591 84.9962 2.60985 84.7879 2.81818 84.6136C3.02652 84.4394 3.32197 84.3049 3.70455 84.2102C4.09091 84.1155 4.59091 84.0682 5.20455 84.0682ZM0.545455 76.8182C1.10227 76.8182 1.57008 76.8788 1.94886 77C2.32765 77.1212 2.63068 77.3068 2.85795 77.5568C3.08523 77.8068 3.24811 78.1231 3.34659 78.5057C3.44886 78.8883 3.5 79.3409 3.5 79.8636V81.6818C3.5 82.303 3.625 82.7462 3.875 83.0114C4.12879 83.2765 4.57197 83.4091 5.20455 83.4091V84.1136C4.59091 84.1136 4.09091 84.0663 3.70455 83.9716C3.32197 83.8769 3.02652 83.7424 2.81818 83.5682C2.60985 83.3939 2.46591 83.1856 2.38636 82.9432C2.31061 82.7008 2.27273 82.4318 2.27273 82.1364V79.8636C2.27273 79.4205 2.2197 79.0568 2.11364 78.7727C2.01136 78.4848 1.83333 78.2727 1.57955 78.1364C1.32955 78 0.984849 77.9318 0.545455 77.9318V76.8182ZM5.20455 83.4091V84.7727H3.86364V83.4091H5.20455Z" fill="white"/>
<path d="M0.772727 24V22.9773C0.772727 22.6667 0.827652 22.3371 0.9375 21.9886C1.05114 21.6364 1.21402 21.2973 1.42614 20.9716C1.64205 20.642 1.90152 20.3561 2.20455 20.1136L2.93182 20.7045C2.69318 21.0455 2.48485 21.4015 2.30682 21.7727C2.13258 22.1402 2.04545 22.5341 2.04545 22.9545V24H0.772727ZM3.68182 24V22.9773C3.68182 22.6667 3.73674 22.3371 3.84659 21.9886C3.96023 21.6364 4.12311 21.2973 4.33523 20.9716C4.55114 20.642 4.81061 20.3561 5.11364 20.1136L5.84091 20.7045C5.60227 21.0455 5.39394 21.4015 5.21591 21.7727C5.04167 22.1402 4.95455 22.5341 4.95455 22.9545V24H3.68182ZM8.66193 26.75V32H7.32102V23.2727H8.61648V24.6364H8.73011C8.93466 24.1932 9.24527 23.8371 9.66193 23.5682C10.0786 23.2955 10.6165 23.1591 11.2756 23.1591C11.8665 23.1591 12.3835 23.2803 12.8267 23.5227C13.2699 23.7614 13.6146 24.125 13.8608 24.6136C14.107 25.0985 14.2301 25.7121 14.2301 26.4545V32H12.8892V26.5455C12.8892 25.8598 12.7112 25.3258 12.3551 24.9432C11.9991 24.5568 11.5104 24.3636 10.8892 24.3636C10.4612 24.3636 10.0786 24.4564 9.74148 24.642C9.40814 24.8277 9.14489 25.0985 8.9517 25.4545C8.75852 25.8106 8.66193 26.2424 8.66193 26.75ZM19.2486 32.2045C18.6955 32.2045 18.1937 32.1004 17.7429 31.892C17.2921 31.6799 16.9342 31.375 16.669 30.9773C16.4039 30.5758 16.2713 30.0909 16.2713 29.5227C16.2713 29.0227 16.3698 28.6174 16.5668 28.3068C16.7637 27.9924 17.027 27.7462 17.3565 27.5682C17.6861 27.3902 18.0497 27.2576 18.4474 27.1705C18.849 27.0795 19.2524 27.0076 19.6577 26.9545C20.188 26.8864 20.6179 26.8352 20.9474 26.8011C21.2808 26.7633 21.5232 26.7008 21.6747 26.6136C21.83 26.5265 21.9077 26.375 21.9077 26.1591V26.1136C21.9077 25.553 21.7543 25.1174 21.4474 24.8068C21.1444 24.4962 20.6842 24.3409 20.0668 24.3409C19.4266 24.3409 18.9247 24.4811 18.5611 24.7614C18.1974 25.0417 17.9418 25.3409 17.794 25.6591L16.5213 25.2045C16.7486 24.6742 17.0516 24.2614 17.4304 23.9659C17.813 23.6667 18.2296 23.4583 18.6804 23.3409C19.1349 23.2197 19.5819 23.1591 20.0213 23.1591C20.3016 23.1591 20.6236 23.1932 20.9872 23.2614C21.3546 23.3258 21.7088 23.4602 22.0497 23.6648C22.3944 23.8693 22.6804 24.178 22.9077 24.5909C23.1349 25.0038 23.2486 25.5568 23.2486 26.25V32H21.9077V30.8182H21.8395C21.7486 31.0076 21.5971 31.2102 21.3849 31.4261C21.1728 31.642 20.8906 31.8258 20.5384 31.9773C20.1861 32.1288 19.7562 32.2045 19.2486 32.2045ZM19.4531 31C19.9834 31 20.4304 30.8958 20.794 30.6875C21.1615 30.4792 21.438 30.2102 21.6236 29.8807C21.813 29.5511 21.9077 29.2045 21.9077 28.8409V27.6136C21.8509 27.6818 21.7259 27.7443 21.5327 27.8011C21.3433 27.8542 21.1236 27.9015 20.8736 27.9432C20.6274 27.9811 20.3868 28.0152 20.152 28.0455C19.9209 28.072 19.7334 28.0947 19.5895 28.1136C19.241 28.1591 18.9152 28.233 18.6122 28.3352C18.313 28.4337 18.0705 28.5833 17.8849 28.7841C17.7031 28.9811 17.6122 29.25 17.6122 29.5909C17.6122 30.0568 17.7846 30.4091 18.1293 30.6477C18.4777 30.8826 18.919 31 19.4531 31ZM25.696 32V23.2727H26.9915V24.6364H27.1051C27.2869 24.1705 27.5805 23.8087 27.9858 23.5511C28.3911 23.2898 28.8778 23.1591 29.446 23.1591C30.0218 23.1591 30.5009 23.2898 30.8835 23.5511C31.2699 23.8087 31.571 24.1705 31.7869 24.6364H31.8778C32.1013 24.1856 32.4366 23.8277 32.8835 23.5625C33.3305 23.2936 33.8665 23.1591 34.4915 23.1591C35.2718 23.1591 35.91 23.4034 36.4062 23.892C36.9025 24.3769 37.1506 25.1326 37.1506 26.1591V32H35.8097V26.1591C35.8097 25.5152 35.6335 25.0549 35.2812 24.7784C34.929 24.5019 34.5142 24.3636 34.0369 24.3636C33.4233 24.3636 32.9479 24.5492 32.6108 24.9205C32.2737 25.2879 32.1051 25.7538 32.1051 26.3182V32H30.7415V26.0227C30.7415 25.5265 30.5805 25.1269 30.2585 24.8239C29.9366 24.517 29.5218 24.3636 29.0142 24.3636C28.6657 24.3636 28.34 24.4564 28.0369 24.642C27.7377 24.8277 27.4953 25.0852 27.3097 25.4148C27.1278 25.7405 27.0369 26.1174 27.0369 26.5455V32H25.696ZM43.2614 32.1818C42.4205 32.1818 41.6951 31.9962 41.0852 31.625C40.4792 31.25 40.0114 30.7273 39.6818 30.0568C39.3561 29.3826 39.1932 28.5985 39.1932 27.7045C39.1932 26.8106 39.3561 26.0227 39.6818 25.3409C40.0114 24.6553 40.4697 24.1212 41.0568 23.7386C41.6477 23.3523 42.3371 23.1591 43.125 23.1591C43.5795 23.1591 44.0284 23.2348 44.4716 23.3864C44.9148 23.5379 45.3182 23.7841 45.6818 24.125C46.0455 24.4621 46.3352 24.9091 46.5511 25.4659C46.767 26.0227 46.875 26.7083 46.875 27.5227V28.0909H40.1477V26.9318H45.5114C45.5114 26.4394 45.4129 26 45.2159 25.6136C45.0227 25.2273 44.7462 24.9223 44.3864 24.6989C44.0303 24.4754 43.6098 24.3636 43.125 24.3636C42.5909 24.3636 42.1288 24.4962 41.7386 24.7614C41.3523 25.0227 41.0549 25.3636 40.8466 25.7841C40.6383 26.2045 40.5341 26.6553 40.5341 27.1364V27.9091C40.5341 28.5682 40.6477 29.1269 40.875 29.5852C41.1061 30.0398 41.4261 30.3864 41.8352 30.625C42.2443 30.8598 42.7197 30.9773 43.2614 30.9773C43.6136 30.9773 43.9318 30.928 44.2159 30.8295C44.5038 30.7273 44.7519 30.5758 44.9602 30.375C45.1686 30.1705 45.3295 29.9167 45.4432 29.6136L46.7386 29.9773C46.6023 30.4167 46.3731 30.803 46.0511 31.1364C45.7292 31.4659 45.3314 31.7235 44.858 31.9091C44.3845 32.0909 43.8523 32.1818 43.2614 32.1818ZM50.0966 20.3636V21.3864C50.0966 21.697 50.0398 22.0284 49.9261 22.3807C49.8163 22.7292 49.6534 23.0682 49.4375 23.3977C49.2254 23.7235 48.9678 24.0076 48.6648 24.25L47.9375 23.6591C48.1761 23.3182 48.3826 22.964 48.5568 22.5966C48.7348 22.2254 48.8239 21.8295 48.8239 21.4091V20.3636H50.0966ZM53.0057 20.3636V21.3864C53.0057 21.697 52.9489 22.0284 52.8352 22.3807C52.7254 22.7292 52.5625 23.0682 52.3466 23.3977C52.1345 23.7235 51.8769 24.0076 51.5739 24.25L50.8466 23.6591C51.0852 23.3182 51.2917 22.964 51.4659 22.5966C51.6439 22.2254 51.733 21.8295 51.733 21.4091V20.3636H53.0057ZM0.772727 43V41.9773C0.772727 41.6667 0.827652 41.3371 0.9375 40.9886C1.05114 40.6364 1.21402 40.2973 1.42614 39.9716C1.64205 39.642 1.90152 39.3561 2.20455 39.1136L2.93182 39.7045C2.69318 40.0455 2.48485 40.4015 2.30682 40.7727C2.13258 41.1402 2.04545 41.5341 2.04545 41.9545V43H0.772727ZM3.68182 43V41.9773C3.68182 41.6667 3.73674 41.3371 3.84659 40.9886C3.96023 40.6364 4.12311 40.2973 4.33523 39.9716C4.55114 39.642 4.81061 39.3561 5.11364 39.1136L5.84091 39.7045C5.60227 40.0455 5.39394 40.4015 5.21591 40.7727C5.04167 41.1402 4.95455 41.5341 4.95455 41.9545V43H3.68182ZM10.8665 51.1818C10.0483 51.1818 9.34375 50.9886 8.75284 50.6023C8.16193 50.2159 7.70739 49.6837 7.3892 49.0057C7.07102 48.3277 6.91193 47.553 6.91193 46.6818C6.91193 45.7955 7.07481 45.0133 7.40057 44.3352C7.73011 43.6534 8.18845 43.1212 8.77557 42.7386C9.36648 42.3523 10.0559 42.1591 10.8438 42.1591C11.4574 42.1591 12.0104 42.2727 12.5028 42.5C12.9953 42.7273 13.3987 43.0455 13.7131 43.4545C14.0275 43.8636 14.2225 44.3409 14.2983 44.8864H12.9574C12.8551 44.4886 12.6278 44.1364 12.2756 43.8295C11.9271 43.5189 11.4574 43.3636 10.8665 43.3636C10.3438 43.3636 9.88542 43.5 9.49148 43.7727C9.10133 44.0417 8.7964 44.4223 8.5767 44.9148C8.3608 45.4034 8.25284 45.9773 8.25284 46.6364C8.25284 47.3106 8.3589 47.8977 8.57102 48.3977C8.78693 48.8977 9.08996 49.286 9.48011 49.5625C9.87405 49.839 10.3362 49.9773 10.8665 49.9773C11.215 49.9773 11.5312 49.9167 11.8153 49.7955C12.0994 49.6742 12.34 49.5 12.5369 49.2727C12.7339 49.0455 12.8741 48.7727 12.9574 48.4545H14.2983C14.2225 48.9697 14.035 49.4337 13.7358 49.8466C13.4403 50.2557 13.0483 50.5814 12.5597 50.8239C12.0748 51.0625 11.5104 51.1818 10.8665 51.1818ZM19.804 51.1818C19.0161 51.1818 18.3248 50.9943 17.7301 50.6193C17.1392 50.2443 16.6771 49.7197 16.3438 49.0455C16.0142 48.3712 15.8494 47.5833 15.8494 46.6818C15.8494 45.7727 16.0142 44.9792 16.3438 44.3011C16.6771 43.6231 17.1392 43.0966 17.7301 42.7216C18.3248 42.3466 19.0161 42.1591 19.804 42.1591C20.5919 42.1591 21.2813 42.3466 21.8722 42.7216C22.4669 43.0966 22.929 43.6231 23.2585 44.3011C23.5919 44.9792 23.7585 45.7727 23.7585 46.6818C23.7585 47.5833 23.5919 48.3712 23.2585 49.0455C22.929 49.7197 22.4669 50.2443 21.8722 50.6193C21.2813 50.9943 20.5919 51.1818 19.804 51.1818ZM19.804 49.9773C20.4025 49.9773 20.8949 49.8239 21.2812 49.517C21.6676 49.2102 21.9536 48.8068 22.1392 48.3068C22.3248 47.8068 22.4176 47.2652 22.4176 46.6818C22.4176 46.0985 22.3248 45.5549 22.1392 45.0511C21.9536 44.5473 21.6676 44.1402 21.2812 43.8295C20.8949 43.5189 20.4025 43.3636 19.804 43.3636C19.2055 43.3636 18.7131 43.5189 18.3267 43.8295C17.9403 44.1402 17.6544 44.5473 17.4688 45.0511C17.2831 45.5549 17.1903 46.0985 17.1903 46.6818C17.1903 47.2652 17.2831 47.8068 17.4688 48.3068C17.6544 48.8068 17.9403 49.2102 18.3267 49.517C18.7131 49.8239 19.2055 49.9773 19.804 49.9773ZM27.1463 45.75V51H25.8054V42.2727H27.1009V43.6364H27.2145C27.419 43.1932 27.7296 42.8371 28.1463 42.5682C28.563 42.2955 29.1009 42.1591 29.7599 42.1591C30.3509 42.1591 30.8679 42.2803 31.3111 42.5227C31.7543 42.7614 32.099 43.125 32.3452 43.6136C32.5914 44.0985 32.7145 44.7121 32.7145 45.4545V51H31.3736V45.5455C31.3736 44.8598 31.1955 44.3258 30.8395 43.9432C30.4834 43.5568 29.9948 43.3636 29.3736 43.3636C28.9455 43.3636 28.563 43.4564 28.2259 43.642C27.8925 43.8277 27.6293 44.0985 27.4361 44.4545C27.2429 44.8106 27.1463 45.2424 27.1463 45.75ZM38.9602 42.2727V43.4091H34.4375V42.2727H38.9602ZM35.7557 40.1818H37.0966V48.5C37.0966 48.8788 37.1515 49.1629 37.2614 49.3523C37.375 49.5379 37.5189 49.6629 37.6932 49.7273C37.8712 49.7879 38.0587 49.8182 38.2557 49.8182C38.4034 49.8182 38.5246 49.8106 38.6193 49.7955C38.714 49.7765 38.7898 49.7614 38.8466 49.75L39.1193 50.9545C39.0284 50.9886 38.9015 51.0227 38.7386 51.0568C38.5758 51.0947 38.3693 51.1136 38.1193 51.1136C37.7405 51.1136 37.3693 51.0322 37.0057 50.8693C36.6458 50.7064 36.3466 50.4583 36.108 50.125C35.8731 49.7917 35.7557 49.3712 35.7557 48.8636V40.1818ZM43.5455 51.2045C42.9924 51.2045 42.4905 51.1004 42.0398 50.892C41.589 50.6799 41.2311 50.375 40.9659 49.9773C40.7008 49.5758 40.5682 49.0909 40.5682 48.5227C40.5682 48.0227 40.6667 47.6174 40.8636 47.3068C41.0606 46.9924 41.3239 46.7462 41.6534 46.5682C41.983 46.3902 42.3466 46.2576 42.7443 46.1705C43.1458 46.0795 43.5492 46.0076 43.9545 45.9545C44.4848 45.8864 44.9148 45.8352 45.2443 45.8011C45.5777 45.7633 45.8201 45.7008 45.9716 45.6136C46.1269 45.5265 46.2045 45.375 46.2045 45.1591V45.1136C46.2045 44.553 46.0511 44.1174 45.7443 43.8068C45.4413 43.4962 44.9811 43.3409 44.3636 43.3409C43.7235 43.3409 43.2216 43.4811 42.858 43.7614C42.4943 44.0417 42.2386 44.3409 42.0909 44.6591L40.8182 44.2045C41.0455 43.6742 41.3485 43.2614 41.7273 42.9659C42.1098 42.6667 42.5265 42.4583 42.9773 42.3409C43.4318 42.2197 43.8788 42.1591 44.3182 42.1591C44.5985 42.1591 44.9205 42.1932 45.2841 42.2614C45.6515 42.3258 46.0057 42.4602 46.3466 42.6648C46.6913 42.8693 46.9773 43.178 47.2045 43.5909C47.4318 44.0038 47.5455 44.5568 47.5455 45.25V51H46.2045V49.8182H46.1364C46.0455 50.0076 45.8939 50.2102 45.6818 50.4261C45.4697 50.642 45.1875 50.8258 44.8352 50.9773C44.483 51.1288 44.053 51.2045 43.5455 51.2045ZM43.75 50C44.2803 50 44.7273 49.8958 45.0909 49.6875C45.4583 49.4792 45.7348 49.2102 45.9205 48.8807C46.1098 48.5511 46.2045 48.2045 46.2045 47.8409V46.6136C46.1477 46.6818 46.0227 46.7443 45.8295 46.8011C45.6402 46.8542 45.4205 46.9015 45.1705 46.9432C44.9242 46.9811 44.6837 47.0152 44.4489 47.0455C44.2178 47.072 44.0303 47.0947 43.8864 47.1136C43.5379 47.1591 43.2121 47.233 42.9091 47.3352C42.6098 47.4337 42.3674 47.5833 42.1818 47.7841C42 47.9811 41.9091 48.25 41.9091 48.5909C41.9091 49.0568 42.0814 49.4091 42.4261 49.6477C42.7746 49.8826 43.2159 50 43.75 50ZM53.5384 51.1818C52.7202 51.1818 52.0156 50.9886 51.4247 50.6023C50.8338 50.2159 50.3793 49.6837 50.0611 49.0057C49.7429 48.3277 49.5838 47.553 49.5838 46.6818C49.5838 45.7955 49.7467 45.0133 50.0724 44.3352C50.402 43.6534 50.8603 43.1212 51.4474 42.7386C52.0384 42.3523 52.7277 42.1591 53.5156 42.1591C54.1293 42.1591 54.6823 42.2727 55.1747 42.5C55.6671 42.7273 56.0705 43.0455 56.3849 43.4545C56.6993 43.8636 56.8944 44.3409 56.9702 44.8864H55.6293C55.527 44.4886 55.2997 44.1364 54.9474 43.8295C54.599 43.5189 54.1293 43.3636 53.5384 43.3636C53.0156 43.3636 52.5573 43.5 52.1634 43.7727C51.7732 44.0417 51.4683 44.4223 51.2486 44.9148C51.0327 45.4034 50.9247 45.9773 50.9247 46.6364C50.9247 47.3106 51.0308 47.8977 51.2429 48.3977C51.4588 48.8977 51.7618 49.286 52.152 49.5625C52.5459 49.839 53.008 49.9773 53.5384 49.9773C53.8868 49.9773 54.2031 49.9167 54.4872 49.7955C54.7713 49.6742 55.0118 49.5 55.2088 49.2727C55.4058 49.0455 55.5459 48.7727 55.6293 48.4545H56.9702C56.8944 48.9697 56.7069 49.4337 56.4077 49.8466C56.1122 50.2557 55.7202 50.5814 55.2315 50.8239C54.7467 51.0625 54.1823 51.1818 53.5384 51.1818ZM62.7259 42.2727V43.4091H58.2031V42.2727H62.7259ZM59.5213 40.1818H60.8622V48.5C60.8622 48.8788 60.9171 49.1629 61.027 49.3523C61.1406 49.5379 61.2846 49.6629 61.4588 49.7273C61.6368 49.7879 61.8243 49.8182 62.0213 49.8182C62.169 49.8182 62.2902 49.8106 62.3849 49.7955C62.4796 49.7765 62.5554 49.7614 62.6122 49.75L62.8849 50.9545C62.794 50.9886 62.6671 51.0227 62.5043 51.0568C62.3414 51.0947 62.1349 51.1136 61.8849 51.1136C61.5062 51.1136 61.1349 51.0322 60.7713 50.8693C60.4115 50.7064 60.1122 50.4583 59.8736 50.125C59.6387 49.7917 59.5213 49.3712 59.5213 48.8636V40.1818ZM66.3778 39.3636V40.3864C66.3778 40.697 66.321 41.0284 66.2074 41.3807C66.0975 41.7292 65.9347 42.0682 65.7188 42.3977C65.5066 42.7235 65.2491 43.0076 64.946 43.25L64.2188 42.6591C64.4574 42.3182 64.6638 41.964 64.8381 41.5966C65.0161 41.2254 65.1051 40.8295 65.1051 40.4091V39.3636H66.3778ZM69.2869 39.3636V40.3864C69.2869 40.697 69.2301 41.0284 69.1165 41.3807C69.0066 41.7292 68.8438 42.0682 68.6278 42.3977C68.4157 42.7235 68.1581 43.0076 67.8551 43.25L67.1278 42.6591C67.3665 42.3182 67.5729 41.964 67.7472 41.5966C67.9252 41.2254 68.0142 40.8295 68.0142 40.4091V39.3636H69.2869ZM0.772727 62V60.9773C0.772727 60.6667 0.827652 60.3371 0.9375 59.9886C1.05114 59.6364 1.21402 59.2973 1.42614 58.9716C1.64205 58.642 1.90152 58.3561 2.20455 58.1136L2.93182 58.7045C2.69318 59.0455 2.48485 59.4015 2.30682 59.7727C2.13258 60.1402 2.04545 60.5341 2.04545 60.9545V62H0.772727ZM3.68182 62V60.9773C3.68182 60.6667 3.73674 60.3371 3.84659 59.9886C3.96023 59.6364 4.12311 59.2973 4.33523 58.9716C4.55114 58.642 4.81061 58.3561 5.11364 58.1136L5.84091 58.7045C5.60227 59.0455 5.39394 59.4015 5.21591 59.7727C5.04167 60.1402 4.95455 60.5341 4.95455 60.9545V62H3.68182ZM9.8892 70.2045C9.33617 70.2045 8.83428 70.1004 8.38352 69.892C7.93277 69.6799 7.57481 69.375 7.30966 68.9773C7.04451 68.5758 6.91193 68.0909 6.91193 67.5227C6.91193 67.0227 7.01042 66.6174 7.20739 66.3068C7.40436 65.9924 7.66761 65.7462 7.99716 65.5682C8.3267 65.3902 8.69034 65.2576 9.08807 65.1705C9.48958 65.0795 9.89299 65.0076 10.2983 64.9545C10.8286 64.8864 11.2585 64.8352 11.5881 64.8011C11.9214 64.7633 12.1638 64.7008 12.3153 64.6136C12.4706 64.5265 12.5483 64.375 12.5483 64.1591V64.1136C12.5483 63.553 12.3949 63.1174 12.0881 62.8068C11.785 62.4962 11.3248 62.3409 10.7074 62.3409C10.0672 62.3409 9.56534 62.4811 9.2017 62.7614C8.83807 63.0417 8.58239 63.3409 8.43466 63.6591L7.16193 63.2045C7.3892 62.6742 7.69223 62.2614 8.07102 61.9659C8.4536 61.6667 8.87027 61.4583 9.32102 61.3409C9.77557 61.2197 10.2225 61.1591 10.6619 61.1591C10.9422 61.1591 11.2642 61.1932 11.6278 61.2614C11.9953 61.3258 12.3494 61.4602 12.6903 61.6648C13.035 61.8693 13.321 62.178 13.5483 62.5909C13.7756 63.0038 13.8892 63.5568 13.8892 64.25V70H12.5483V68.8182H12.4801C12.3892 69.0076 12.2377 69.2102 12.0256 69.4261C11.8134 69.642 11.5313 69.8258 11.179 69.9773C10.8267 70.1288 10.3968 70.2045 9.8892 70.2045ZM10.0938 69C10.6241 69 11.071 68.8958 11.4347 68.6875C11.8021 68.4792 12.0786 68.2102 12.2642 67.8807C12.4536 67.5511 12.5483 67.2045 12.5483 66.8409V65.6136C12.4915 65.6818 12.3665 65.7443 12.1733 65.8011C11.9839 65.8542 11.7642 65.9015 11.5142 65.9432C11.268 65.9811 11.0275 66.0152 10.7926 66.0455C10.5616 66.072 10.3741 66.0947 10.2301 66.1136C9.88163 66.1591 9.55587 66.233 9.25284 66.3352C8.9536 66.4337 8.71117 66.5833 8.52557 66.7841C8.34375 66.9811 8.25284 67.25 8.25284 67.5909C8.25284 68.0568 8.42519 68.4091 8.76989 68.6477C9.11837 68.8826 9.55966 69 10.0938 69ZM23.1605 61.2727L19.9332 70H18.5696L15.3423 61.2727H16.7969L19.206 68.2273H19.2969L21.706 61.2727H23.1605ZM27.233 70.2045C26.6799 70.2045 26.178 70.1004 25.7273 69.892C25.2765 69.6799 24.9186 69.375 24.6534 68.9773C24.3883 68.5758 24.2557 68.0909 24.2557 67.5227C24.2557 67.0227 24.3542 66.6174 24.5511 66.3068C24.7481 65.9924 25.0114 65.7462 25.3409 65.5682C25.6705 65.3902 26.0341 65.2576 26.4318 65.1705C26.8333 65.0795 27.2367 65.0076 27.642 64.9545C28.1723 64.8864 28.6023 64.8352 28.9318 64.8011C29.2652 64.7633 29.5076 64.7008 29.6591 64.6136C29.8144 64.5265 29.892 64.375 29.892 64.1591V64.1136C29.892 63.553 29.7386 63.1174 29.4318 62.8068C29.1288 62.4962 28.6686 62.3409 28.0511 62.3409C27.411 62.3409 26.9091 62.4811 26.5455 62.7614C26.1818 63.0417 25.9261 63.3409 25.7784 63.6591L24.5057 63.2045C24.733 62.6742 25.036 62.2614 25.4148 61.9659C25.7973 61.6667 26.214 61.4583 26.6648 61.3409C27.1193 61.2197 27.5663 61.1591 28.0057 61.1591C28.286 61.1591 28.608 61.1932 28.9716 61.2614C29.339 61.3258 29.6932 61.4602 30.0341 61.6648C30.3788 61.8693 30.6648 62.178 30.892 62.5909C31.1193 63.0038 31.233 63.5568 31.233 64.25V70H29.892V68.8182H29.8239C29.733 69.0076 29.5814 69.2102 29.3693 69.4261C29.1572 69.642 28.875 69.8258 28.5227 69.9773C28.1705 70.1288 27.7405 70.2045 27.233 70.2045ZM27.4375 69C27.9678 69 28.4148 68.8958 28.7784 68.6875C29.1458 68.4792 29.4223 68.2102 29.608 67.8807C29.7973 67.5511 29.892 67.2045 29.892 66.8409V65.6136C29.8352 65.6818 29.7102 65.7443 29.517 65.8011C29.3277 65.8542 29.108 65.9015 28.858 65.9432C28.6117 65.9811 28.3712 66.0152 28.1364 66.0455C27.9053 66.072 27.7178 66.0947 27.5739 66.1136C27.2254 66.1591 26.8996 66.233 26.5966 66.3352C26.2973 66.4337 26.0549 66.5833 25.8693 66.7841C25.6875 66.9811 25.5966 67.25 25.5966 67.5909C25.5966 68.0568 25.7689 68.4091 26.1136 68.6477C26.4621 68.8826 26.9034 69 27.4375 69ZM35.0213 58.3636V70H33.6804V58.3636H35.0213ZM37.4773 70V61.2727H38.8182V70H37.4773ZM38.1591 59.8182C37.8977 59.8182 37.6723 59.7292 37.483 59.5511C37.2973 59.3731 37.2045 59.1591 37.2045 58.9091C37.2045 58.6591 37.2973 58.4451 37.483 58.267C37.6723 58.089 37.8977 58 38.1591 58C38.4205 58 38.6439 58.089 38.8295 58.267C39.0189 58.4451 39.1136 58.6591 39.1136 58.9091C39.1136 59.1591 39.0189 59.3731 38.8295 59.5511C38.6439 59.7292 38.4205 59.8182 38.1591 59.8182ZM43.8423 70.2045C43.2893 70.2045 42.7874 70.1004 42.3366 69.892C41.8859 69.6799 41.5279 69.375 41.2628 68.9773C40.9976 68.5758 40.8651 68.0909 40.8651 67.5227C40.8651 67.0227 40.9635 66.6174 41.1605 66.3068C41.3575 65.9924 41.6207 65.7462 41.9503 65.5682C42.2798 65.3902 42.6435 65.2576 43.0412 65.1705C43.4427 65.0795 43.8461 65.0076 44.2514 64.9545C44.7817 64.8864 45.2116 64.8352 45.5412 64.8011C45.8745 64.7633 46.117 64.7008 46.2685 64.6136C46.4238 64.5265 46.5014 64.375 46.5014 64.1591V64.1136C46.5014 63.553 46.348 63.1174 46.0412 62.8068C45.7382 62.4962 45.2779 62.3409 44.6605 62.3409C44.0204 62.3409 43.5185 62.4811 43.1548 62.7614C42.7912 63.0417 42.5355 63.3409 42.3878 63.6591L41.1151 63.2045C41.3423 62.6742 41.6454 62.2614 42.0241 61.9659C42.4067 61.6667 42.8234 61.4583 43.2741 61.3409C43.7287 61.2197 44.1757 61.1591 44.6151 61.1591C44.8954 61.1591 45.2173 61.1932 45.581 61.2614C45.9484 61.3258 46.3026 61.4602 46.6435 61.6648C46.9882 61.8693 47.2741 62.178 47.5014 62.5909C47.7287 63.0038 47.8423 63.5568 47.8423 64.25V70H46.5014V68.8182H46.4332C46.3423 69.0076 46.1908 69.2102 45.9787 69.4261C45.7666 69.642 45.4844 69.8258 45.1321 69.9773C44.7798 70.1288 44.3499 70.2045 43.8423 70.2045ZM44.0469 69C44.5772 69 45.0241 68.8958 45.3878 68.6875C45.7552 68.4792 46.0317 68.2102 46.2173 67.8807C46.4067 67.5511 46.5014 67.2045 46.5014 66.8409V65.6136C46.4446 65.6818 46.3196 65.7443 46.1264 65.8011C45.937 65.8542 45.7173 65.9015 45.4673 65.9432C45.2211 65.9811 44.9806 66.0152 44.7457 66.0455C44.5147 66.072 44.3272 66.0947 44.1832 66.1136C43.8348 66.1591 43.509 66.233 43.206 66.3352C42.9067 66.4337 42.6643 66.5833 42.4787 66.7841C42.2969 66.9811 42.206 67.25 42.206 67.5909C42.206 68.0568 42.3783 68.4091 42.723 68.6477C43.0715 68.8826 43.5128 69 44.0469 69ZM50.4716 70V58.3636H51.8125V62.6591H51.9261C52.0246 62.5076 52.161 62.3144 52.3352 62.0795C52.5133 61.8409 52.767 61.6288 53.0966 61.4432C53.4299 61.2538 53.8807 61.1591 54.4489 61.1591C55.1837 61.1591 55.8314 61.3428 56.392 61.7102C56.9527 62.0777 57.3902 62.5985 57.7045 63.2727C58.0189 63.947 58.1761 64.7424 58.1761 65.6591C58.1761 66.5833 58.0189 67.3845 57.7045 68.0625C57.3902 68.7367 56.9545 69.2595 56.3977 69.6307C55.8409 69.9981 55.1989 70.1818 54.4716 70.1818C53.911 70.1818 53.4621 70.089 53.125 69.9034C52.7879 69.714 52.5284 69.5 52.3466 69.2614C52.1648 69.0189 52.0246 68.8182 51.9261 68.6591H51.767V70H50.4716ZM51.7898 65.6364C51.7898 66.2955 51.8864 66.8769 52.0795 67.3807C52.2727 67.8807 52.5549 68.2727 52.9261 68.5568C53.2973 68.8371 53.7519 68.9773 54.2898 68.9773C54.8504 68.9773 55.3182 68.8295 55.6932 68.5341C56.072 68.2348 56.3561 67.8333 56.5455 67.3295C56.7386 66.822 56.8352 66.2576 56.8352 65.6364C56.8352 65.0227 56.7405 64.4697 56.5511 63.9773C56.3655 63.4811 56.0833 63.089 55.7045 62.8011C55.3295 62.5095 54.858 62.3636 54.2898 62.3636C53.7443 62.3636 53.286 62.5019 52.9148 62.7784C52.5436 63.0511 52.2633 63.4337 52.0739 63.9261C51.8845 64.4148 51.7898 64.9848 51.7898 65.6364ZM61.5682 58.3636V70H60.2273V58.3636H61.5682ZM67.6832 70.1818C66.8423 70.1818 66.117 69.9962 65.5071 69.625C64.901 69.25 64.4332 68.7273 64.1037 68.0568C63.7779 67.3826 63.6151 66.5985 63.6151 65.7045C63.6151 64.8106 63.7779 64.0227 64.1037 63.3409C64.4332 62.6553 64.8916 62.1212 65.4787 61.7386C66.0696 61.3523 66.759 61.1591 67.5469 61.1591C68.0014 61.1591 68.4503 61.2348 68.8935 61.3864C69.3366 61.5379 69.7401 61.7841 70.1037 62.125C70.4673 62.4621 70.7571 62.9091 70.973 63.4659C71.1889 64.0227 71.2969 64.7083 71.2969 65.5227V66.0909H64.5696V64.9318H69.9332C69.9332 64.4394 69.8348 64 69.6378 63.6136C69.4446 63.2273 69.1681 62.9223 68.8082 62.6989C68.4522 62.4754 68.0317 62.3636 67.5469 62.3636C67.0128 62.3636 66.5507 62.4962 66.1605 62.7614C65.7741 63.0227 65.4768 63.3636 65.2685 63.7841C65.0601 64.2045 64.956 64.6553 64.956 65.1364V65.9091C64.956 66.5682 65.0696 67.1269 65.2969 67.5852C65.5279 68.0398 65.848 68.3864 66.2571 68.625C66.6662 68.8598 67.1416 68.9773 67.6832 68.9773C68.0355 68.9773 68.3537 68.928 68.6378 68.8295C68.9257 68.7273 69.1738 68.5758 69.3821 68.375C69.5904 68.1705 69.7514 67.9167 69.8651 67.6136L71.1605 67.9773C71.0241 68.4167 70.795 68.803 70.473 69.1364C70.151 69.4659 69.7533 69.7235 69.2798 69.9091C68.8063 70.0909 68.2741 70.1818 67.6832 70.1818ZM73.5185 70V58.3636H80.4957V59.6136H74.9276V63.5455H79.973V64.7955H74.9276V70H73.5185ZM85.6321 70.1818C84.8442 70.1818 84.1529 69.9943 83.5582 69.6193C82.9673 69.2443 82.5052 68.7197 82.1719 68.0455C81.8423 67.3712 81.6776 66.5833 81.6776 65.6818C81.6776 64.7727 81.8423 63.9792 82.1719 63.3011C82.5052 62.6231 82.9673 62.0966 83.5582 61.7216C84.1529 61.3466 84.8442 61.1591 85.6321 61.1591C86.42 61.1591 87.1094 61.3466 87.7003 61.7216C88.295 62.0966 88.7571 62.6231 89.0866 63.3011C89.42 63.9792 89.5866 64.7727 89.5866 65.6818C89.5866 66.5833 89.42 67.3712 89.0866 68.0455C88.7571 68.7197 88.295 69.2443 87.7003 69.6193C87.1094 69.9943 86.42 70.1818 85.6321 70.1818ZM85.6321 68.9773C86.2306 68.9773 86.723 68.8239 87.1094 68.517C87.4957 68.2102 87.7817 67.8068 87.9673 67.3068C88.1529 66.8068 88.2457 66.2652 88.2457 65.6818C88.2457 65.0985 88.1529 64.5549 87.9673 64.0511C87.7817 63.5473 87.4957 63.1402 87.1094 62.8295C86.723 62.5189 86.2306 62.3636 85.6321 62.3636C85.0336 62.3636 84.5412 62.5189 84.1548 62.8295C83.7685 63.1402 83.4825 63.5473 83.2969 64.0511C83.1113 64.5549 83.0185 65.0985 83.0185 65.6818C83.0185 66.2652 83.1113 66.8068 83.2969 67.3068C83.4825 67.8068 83.7685 68.2102 84.1548 68.517C84.5412 68.8239 85.0336 68.9773 85.6321 68.9773ZM91.6335 70V61.2727H92.929V62.5909H93.0199C93.179 62.1591 93.4669 61.8087 93.8835 61.5398C94.3002 61.2708 94.7699 61.1364 95.2926 61.1364C95.3911 61.1364 95.5142 61.1383 95.6619 61.142C95.8097 61.1458 95.9214 61.1515 95.9972 61.1591V62.5227C95.9517 62.5114 95.8475 62.4943 95.6847 62.4716C95.5256 62.4451 95.357 62.4318 95.179 62.4318C94.7547 62.4318 94.3759 62.5208 94.0426 62.6989C93.7131 62.8731 93.4517 63.1155 93.2585 63.4261C93.0691 63.733 92.9744 64.0833 92.9744 64.4773V70H91.6335ZM99.8821 70L96.7003 58.3636H98.1321L100.564 67.8409H100.678L103.155 58.3636H104.746L107.223 67.8409H107.337L109.768 58.3636H111.2L108.018 70H106.564L103.996 60.7273H103.905L101.337 70H99.8821ZM115.507 70.1818C114.719 70.1818 114.028 69.9943 113.433 69.6193C112.842 69.2443 112.38 68.7197 112.047 68.0455C111.717 67.3712 111.553 66.5833 111.553 65.6818C111.553 64.7727 111.717 63.9792 112.047 63.3011C112.38 62.6231 112.842 62.0966 113.433 61.7216C114.028 61.3466 114.719 61.1591 115.507 61.1591C116.295 61.1591 116.984 61.3466 117.575 61.7216C118.17 62.0966 118.632 62.6231 118.962 63.3011C119.295 63.9792 119.462 64.7727 119.462 65.6818C119.462 66.5833 119.295 67.3712 118.962 68.0455C118.632 68.7197 118.17 69.2443 117.575 69.6193C116.984 69.9943 116.295 70.1818 115.507 70.1818ZM115.507 68.9773C116.106 68.9773 116.598 68.8239 116.984 68.517C117.371 68.2102 117.657 67.8068 117.842 67.3068C118.028 66.8068 118.121 66.2652 118.121 65.6818C118.121 65.0985 118.028 64.5549 117.842 64.0511C117.657 63.5473 117.371 63.1402 116.984 62.8295C116.598 62.5189 116.106 62.3636 115.507 62.3636C114.909 62.3636 114.416 62.5189 114.03 62.8295C113.643 63.1402 113.357 63.5473 113.172 64.0511C112.986 64.5549 112.893 65.0985 112.893 65.6818C112.893 66.2652 112.986 66.8068 113.172 67.3068C113.357 67.8068 113.643 68.2102 114.03 68.517C114.416 68.8239 114.909 68.9773 115.507 68.9773ZM121.509 70V61.2727H122.804V62.5909H122.895C123.054 62.1591 123.342 61.8087 123.759 61.5398C124.175 61.2708 124.645 61.1364 125.168 61.1364C125.266 61.1364 125.389 61.1383 125.537 61.142C125.685 61.1458 125.796 61.1515 125.872 61.1591V62.5227C125.827 62.5114 125.723 62.4943 125.56 62.4716C125.401 62.4451 125.232 62.4318 125.054 62.4318C124.63 62.4318 124.251 62.5208 123.918 62.6989C123.588 62.8731 123.327 63.1155 123.134 63.4261C122.944 63.733 122.849 64.0833 122.849 64.4773V70H121.509ZM128.712 66.8182L128.689 65.1591H128.962L132.78 61.2727H134.439L130.371 65.3864H130.257L128.712 66.8182ZM127.462 70V58.3636H128.803V70H127.462ZM133.007 70L129.598 65.6818L130.553 64.75L134.712 70H133.007ZM137.347 58.3636V59.3864C137.347 59.697 137.29 60.0284 137.176 60.3807C137.066 60.7292 136.903 61.0682 136.688 61.3977C136.475 61.7235 136.218 62.0076 135.915 62.25L135.188 61.6591C135.426 61.3182 135.633 60.964 135.807 60.5966C135.985 60.2254 136.074 59.8295 136.074 59.4091V58.3636H137.347ZM140.256 58.3636V59.3864C140.256 59.697 140.199 60.0284 140.085 60.3807C139.975 60.7292 139.812 61.0682 139.597 61.3977C139.384 61.7235 139.127 62.0076 138.824 62.25L138.097 61.6591C138.335 61.3182 138.542 60.964 138.716 60.5966C138.894 60.2254 138.983 59.8295 138.983 59.4091V58.3636H140.256ZM150.71 59.6136V58.3636H159.438V59.6136H155.778V70H154.369V59.6136H150.71ZM160.524 70V61.2727H161.82V62.5909H161.911C162.07 62.1591 162.357 61.8087 162.774 61.5398C163.191 61.2708 163.661 61.1364 164.183 61.1364C164.282 61.1364 164.405 61.1383 164.553 61.142C164.7 61.1458 164.812 61.1515 164.888 61.1591V62.5227C164.842 62.5114 164.738 62.4943 164.575 62.4716C164.416 62.4451 164.248 62.4318 164.07 62.4318C163.645 62.4318 163.267 62.5208 162.933 62.6989C162.604 62.8731 162.342 63.1155 162.149 63.4261C161.96 63.733 161.865 64.0833 161.865 64.4773V70H160.524ZM171.977 66.4318V61.2727H173.318V70H171.977V68.5227H171.886C171.682 68.9659 171.364 69.3428 170.932 69.6534C170.5 69.9602 169.955 70.1136 169.295 70.1136C168.75 70.1136 168.265 69.9943 167.841 69.7557C167.417 69.5133 167.083 69.1496 166.841 68.6648C166.598 68.1761 166.477 67.5606 166.477 66.8182V61.2727H167.818V66.7273C167.818 67.3636 167.996 67.8712 168.352 68.25C168.712 68.6288 169.17 68.8182 169.727 68.8182C170.061 68.8182 170.4 68.733 170.744 68.5625C171.093 68.392 171.384 68.1307 171.619 67.7784C171.858 67.4261 171.977 66.9773 171.977 66.4318ZM179.433 70.1818C178.592 70.1818 177.867 69.9962 177.257 69.625C176.651 69.25 176.183 68.7273 175.854 68.0568C175.528 67.3826 175.365 66.5985 175.365 65.7045C175.365 64.8106 175.528 64.0227 175.854 63.3409C176.183 62.6553 176.642 62.1212 177.229 61.7386C177.82 61.3523 178.509 61.1591 179.297 61.1591C179.751 61.1591 180.2 61.2348 180.643 61.3864C181.087 61.5379 181.49 61.7841 181.854 62.125C182.217 62.4621 182.507 62.9091 182.723 63.4659C182.939 64.0227 183.047 64.7083 183.047 65.5227V66.0909H176.32V64.9318H181.683C181.683 64.4394 181.585 64 181.388 63.6136C181.195 63.2273 180.918 62.9223 180.558 62.6989C180.202 62.4754 179.782 62.3636 179.297 62.3636C178.763 62.3636 178.301 62.4962 177.911 62.7614C177.524 63.0227 177.227 63.3636 177.018 63.7841C176.81 64.2045 176.706 64.6553 176.706 65.1364V65.9091C176.706 66.5682 176.82 67.1269 177.047 67.5852C177.278 68.0398 177.598 68.3864 178.007 68.625C178.416 68.8598 178.892 68.9773 179.433 68.9773C179.786 68.9773 180.104 68.928 180.388 68.8295C180.676 68.7273 180.924 68.5758 181.132 68.375C181.34 68.1705 181.501 67.9167 181.615 67.6136L182.911 67.9773C182.774 68.4167 182.545 68.803 182.223 69.1364C181.901 69.4659 181.503 69.7235 181.03 69.9091C180.556 70.0909 180.024 70.1818 179.433 70.1818Z" fill="#0068B3"/>
<path d="M63.4602 24V22.9773C63.4602 22.6667 63.5152 22.3371 63.625 21.9886C63.7386 21.6364 63.9015 21.2973 64.1136 20.9716C64.3295 20.642 64.589 20.3561 64.892 20.1136L65.6193 20.7045C65.3807 21.0455 65.1723 21.4015 64.9943 21.7727C64.8201 22.1402 64.733 22.5341 64.733 22.9545V24H63.4602ZM66.3693 24V22.9773C66.3693 22.6667 66.4242 22.3371 66.5341 21.9886C66.6477 21.6364 66.8106 21.2973 67.0227 20.9716C67.2386 20.642 67.4981 20.3561 67.8011 20.1136L68.5284 20.7045C68.2898 21.0455 68.0814 21.4015 67.9034 21.7727C67.7292 22.1402 67.642 22.5341 67.642 22.9545V24H66.3693ZM79.554 24H78.1449C78.0616 23.5947 77.9157 23.2386 77.7074 22.9318C77.5028 22.625 77.2528 22.3674 76.9574 22.1591C76.6657 21.947 76.3419 21.7879 75.9858 21.6818C75.6297 21.5758 75.2585 21.5227 74.8722 21.5227C74.1676 21.5227 73.5294 21.7008 72.9574 22.0568C72.3892 22.4129 71.9366 22.9375 71.5994 23.6307C71.2661 24.3239 71.0994 25.1742 71.0994 26.1818C71.0994 27.1894 71.2661 28.0398 71.5994 28.733C71.9366 29.4261 72.3892 29.9508 72.9574 30.3068C73.5294 30.6629 74.1676 30.8409 74.8722 30.8409C75.2585 30.8409 75.6297 30.7879 75.9858 30.6818C76.3419 30.5758 76.6657 30.4186 76.9574 30.2102C77.2528 29.9981 77.5028 29.7386 77.7074 29.4318C77.9157 29.1212 78.0616 28.7652 78.1449 28.3636H79.554C79.4479 28.9583 79.2547 29.4905 78.9744 29.9602C78.6941 30.4299 78.3456 30.8295 77.929 31.1591C77.5123 31.4848 77.0445 31.733 76.5256 31.9034C76.0104 32.0739 75.4593 32.1591 74.8722 32.1591C73.8797 32.1591 72.9972 31.9167 72.2244 31.4318C71.4517 30.947 70.8438 30.2576 70.4006 29.3636C69.9574 28.4697 69.7358 27.4091 69.7358 26.1818C69.7358 24.9545 69.9574 23.8939 70.4006 23C70.8438 22.1061 71.4517 21.4167 72.2244 20.9318C72.9972 20.447 73.8797 20.2045 74.8722 20.2045C75.4593 20.2045 76.0104 20.2898 76.5256 20.4602C77.0445 20.6307 77.5123 20.8807 77.929 21.2102C78.3456 21.536 78.6941 21.9337 78.9744 22.4034C79.2547 22.8693 79.4479 23.4015 79.554 24ZM84.2173 32.2045C83.6643 32.2045 83.1624 32.1004 82.7116 31.892C82.2609 31.6799 81.9029 31.375 81.6378 30.9773C81.3726 30.5758 81.2401 30.0909 81.2401 29.5227C81.2401 29.0227 81.3385 28.6174 81.5355 28.3068C81.7325 27.9924 81.9957 27.7462 82.3253 27.5682C82.6548 27.3902 83.0185 27.2576 83.4162 27.1705C83.8177 27.0795 84.2211 27.0076 84.6264 26.9545C85.1567 26.8864 85.5866 26.8352 85.9162 26.8011C86.2495 26.7633 86.492 26.7008 86.6435 26.6136C86.7988 26.5265 86.8764 26.375 86.8764 26.1591V26.1136C86.8764 25.553 86.723 25.1174 86.4162 24.8068C86.1132 24.4962 85.6529 24.3409 85.0355 24.3409C84.3954 24.3409 83.8935 24.4811 83.5298 24.7614C83.1662 25.0417 82.9105 25.3409 82.7628 25.6591L81.4901 25.2045C81.7173 24.6742 82.0204 24.2614 82.3991 23.9659C82.7817 23.6667 83.1984 23.4583 83.6491 23.3409C84.1037 23.2197 84.5507 23.1591 84.9901 23.1591C85.2704 23.1591 85.5923 23.1932 85.956 23.2614C86.3234 23.3258 86.6776 23.4602 87.0185 23.6648C87.3632 23.8693 87.6491 24.178 87.8764 24.5909C88.1037 25.0038 88.2173 25.5568 88.2173 26.25V32H86.8764V30.8182H86.8082C86.7173 31.0076 86.5658 31.2102 86.3537 31.4261C86.1416 31.642 85.8594 31.8258 85.5071 31.9773C85.1548 32.1288 84.7249 32.2045 84.2173 32.2045ZM84.4219 31C84.9522 31 85.3991 30.8958 85.7628 30.6875C86.1302 30.4792 86.4067 30.2102 86.5923 29.8807C86.7817 29.5511 86.8764 29.2045 86.8764 28.8409V27.6136C86.8196 27.6818 86.6946 27.7443 86.5014 27.8011C86.312 27.8542 86.0923 27.9015 85.8423 27.9432C85.5961 27.9811 85.3556 28.0152 85.1207 28.0455C84.8897 28.072 84.7022 28.0947 84.5582 28.1136C84.2098 28.1591 83.884 28.233 83.581 28.3352C83.2817 28.4337 83.0393 28.5833 82.8537 28.7841C82.6719 28.9811 82.581 29.25 82.581 29.5909C82.581 30.0568 82.7533 30.4091 83.098 30.6477C83.4465 30.8826 83.8878 31 84.4219 31ZM90.6648 32V23.2727H91.9602V24.5909H92.0511C92.2102 24.1591 92.4981 23.8087 92.9148 23.5398C93.3314 23.2708 93.8011 23.1364 94.3239 23.1364C94.4223 23.1364 94.5455 23.1383 94.6932 23.142C94.8409 23.1458 94.9527 23.1515 95.0284 23.1591V24.5227C94.983 24.5114 94.8788 24.4943 94.7159 24.4716C94.5568 24.4451 94.3883 24.4318 94.2102 24.4318C93.786 24.4318 93.4072 24.5208 93.0739 24.6989C92.7443 24.8731 92.483 25.1155 92.2898 25.4261C92.1004 25.733 92.0057 26.0833 92.0057 26.4773V32H90.6648ZM97.9588 20.3636V32H96.6179V20.3636H97.9588ZM103.96 32.1818C103.172 32.1818 102.481 31.9943 101.886 31.6193C101.295 31.2443 100.833 30.7197 100.5 30.0455C100.17 29.3712 100.006 28.5833 100.006 27.6818C100.006 26.7727 100.17 25.9792 100.5 25.3011C100.833 24.6231 101.295 24.0966 101.886 23.7216C102.481 23.3466 103.172 23.1591 103.96 23.1591C104.748 23.1591 105.438 23.3466 106.028 23.7216C106.623 24.0966 107.085 24.6231 107.415 25.3011C107.748 25.9792 107.915 26.7727 107.915 27.6818C107.915 28.5833 107.748 29.3712 107.415 30.0455C107.085 30.7197 106.623 31.2443 106.028 31.6193C105.438 31.9943 104.748 32.1818 103.96 32.1818ZM103.96 30.9773C104.559 30.9773 105.051 30.8239 105.438 30.517C105.824 30.2102 106.11 29.8068 106.295 29.3068C106.481 28.8068 106.574 28.2652 106.574 27.6818C106.574 27.0985 106.481 26.5549 106.295 26.0511C106.11 25.5473 105.824 25.1402 105.438 24.8295C105.051 24.5189 104.559 24.3636 103.96 24.3636C103.362 24.3636 102.869 24.5189 102.483 24.8295C102.097 25.1402 101.811 25.5473 101.625 26.0511C101.439 26.5549 101.347 27.0985 101.347 27.6818C101.347 28.2652 101.439 28.8068 101.625 29.3068C101.811 29.8068 102.097 30.2102 102.483 30.517C102.869 30.8239 103.362 30.9773 103.96 30.9773ZM116.143 25.2273L114.939 25.5682C114.863 25.3674 114.751 25.1723 114.604 24.983C114.46 24.7898 114.263 24.6307 114.013 24.5057C113.763 24.3807 113.443 24.3182 113.053 24.3182C112.518 24.3182 112.073 24.4413 111.717 24.6875C111.365 24.9299 111.189 25.2386 111.189 25.6136C111.189 25.947 111.31 26.2102 111.553 26.4034C111.795 26.5966 112.174 26.7576 112.689 26.8864L113.984 27.2045C114.765 27.3939 115.346 27.6837 115.729 28.0739C116.111 28.4602 116.303 28.9583 116.303 29.5682C116.303 30.0682 116.159 30.5152 115.871 30.9091C115.587 31.303 115.189 31.6136 114.678 31.8409C114.166 32.0682 113.571 32.1818 112.893 32.1818C112.003 32.1818 111.267 31.9886 110.683 31.6023C110.1 31.2159 109.731 30.6515 109.575 29.9091L110.848 29.5909C110.969 30.0606 111.198 30.4129 111.536 30.6477C111.876 30.8826 112.321 31 112.871 31C113.496 31 113.992 30.8674 114.359 30.6023C114.731 30.3333 114.916 30.0114 114.916 29.6364C114.916 29.3333 114.81 29.0795 114.598 28.875C114.386 28.6667 114.06 28.5114 113.621 28.4091L112.166 28.0682C111.367 27.8788 110.78 27.5852 110.405 27.1875C110.034 26.786 109.848 26.2841 109.848 25.6818C109.848 25.1894 109.986 24.7538 110.263 24.375C110.543 23.9962 110.924 23.6989 111.405 23.483C111.89 23.267 112.439 23.1591 113.053 23.1591C113.916 23.1591 114.594 23.3485 115.087 23.7273C115.583 24.1061 115.935 24.6061 116.143 25.2273ZM130.639 20.3636H132.048V28.0682C132.048 28.8636 131.861 29.5739 131.486 30.1989C131.115 30.8201 130.59 31.3106 129.912 31.6705C129.234 32.0265 128.438 32.2045 127.526 32.2045C126.613 32.2045 125.817 32.0265 125.139 31.6705C124.461 31.3106 123.935 30.8201 123.56 30.1989C123.188 29.5739 123.003 28.8636 123.003 28.0682V20.3636H124.412V27.9545C124.412 28.5227 124.537 29.0284 124.787 29.4716C125.037 29.911 125.393 30.2576 125.855 30.5114C126.321 30.7614 126.878 30.8864 127.526 30.8864C128.173 30.8864 128.73 30.7614 129.196 30.5114C129.662 30.2576 130.018 29.911 130.264 29.4716C130.514 29.0284 130.639 28.5227 130.639 27.9545V20.3636ZM134.43 32V30.9773L139.385 24.6136V24.5227H134.589V23.2727H141.112V24.3409L136.294 30.6591V30.75H141.271V32H134.43ZM146.746 32.1818C145.905 32.1818 145.179 31.9962 144.57 31.625C143.964 31.25 143.496 30.7273 143.166 30.0568C142.84 29.3826 142.678 28.5985 142.678 27.7045C142.678 26.8106 142.84 26.0227 143.166 25.3409C143.496 24.6553 143.954 24.1212 144.541 23.7386C145.132 23.3523 145.821 23.1591 146.609 23.1591C147.064 23.1591 147.513 23.2348 147.956 23.3864C148.399 23.5379 148.803 23.7841 149.166 24.125C149.53 24.4621 149.82 24.9091 150.036 25.4659C150.251 26.0227 150.359 26.7083 150.359 27.5227V28.0909H143.632V26.9318H148.996C148.996 26.4394 148.897 26 148.7 25.6136C148.507 25.2273 148.231 24.9223 147.871 24.6989C147.515 24.4754 147.094 24.3636 146.609 24.3636C146.075 24.3636 145.613 24.4962 145.223 24.7614C144.837 25.0227 144.539 25.3636 144.331 25.7841C144.123 26.2045 144.018 26.6553 144.018 27.1364V27.9091C144.018 28.5682 144.132 29.1269 144.359 29.5852C144.59 30.0398 144.911 30.3864 145.32 30.625C145.729 30.8598 146.204 30.9773 146.746 30.9773C147.098 30.9773 147.416 30.928 147.7 30.8295C147.988 30.7273 148.236 30.5758 148.445 30.375C148.653 30.1705 148.814 29.9167 148.928 29.6136L150.223 29.9773C150.087 30.4167 149.857 30.803 149.536 31.1364C149.214 31.4659 148.816 31.7235 148.342 31.9091C147.869 32.0909 147.337 32.1818 146.746 32.1818ZM155.695 32.1818C154.967 32.1818 154.325 31.9981 153.768 31.6307C153.212 31.2595 152.776 30.7367 152.462 30.0625C152.147 29.3845 151.99 28.5833 151.99 27.6591C151.99 26.7424 152.147 25.947 152.462 25.2727C152.776 24.5985 153.214 24.0777 153.774 23.7102C154.335 23.3428 154.982 23.1591 155.717 23.1591C156.286 23.1591 156.734 23.2538 157.064 23.4432C157.397 23.6288 157.651 23.8409 157.825 24.0795C158.003 24.3144 158.142 24.5076 158.24 24.6591H158.354V20.3636H159.695V32H158.399V30.6591H158.24C158.142 30.8182 158.001 31.0189 157.82 31.2614C157.638 31.5 157.378 31.714 157.041 31.9034C156.704 32.089 156.255 32.1818 155.695 32.1818ZM155.876 30.9773C156.414 30.9773 156.869 30.8371 157.24 30.5568C157.611 30.2727 157.893 29.8807 158.087 29.3807C158.28 28.8769 158.376 28.2955 158.376 27.6364C158.376 26.9848 158.282 26.4148 158.092 25.9261C157.903 25.4337 157.623 25.0511 157.251 24.7784C156.88 24.5019 156.422 24.3636 155.876 24.3636C155.308 24.3636 154.835 24.5095 154.456 24.8011C154.081 25.089 153.799 25.4811 153.609 25.9773C153.424 26.4697 153.331 27.0227 153.331 27.6364C153.331 28.2576 153.426 28.822 153.615 29.3295C153.808 29.8333 154.092 30.2348 154.467 30.5341C154.846 30.8295 155.316 30.9773 155.876 30.9773ZM164.905 32.2045C164.352 32.2045 163.85 32.1004 163.399 31.892C162.948 31.6799 162.59 31.375 162.325 30.9773C162.06 30.5758 161.928 30.0909 161.928 29.5227C161.928 29.0227 162.026 28.6174 162.223 28.3068C162.42 27.9924 162.683 27.7462 163.013 27.5682C163.342 27.3902 163.706 27.2576 164.104 27.1705C164.505 27.0795 164.909 27.0076 165.314 26.9545C165.844 26.8864 166.274 26.8352 166.604 26.8011C166.937 26.7633 167.179 26.7008 167.331 26.6136C167.486 26.5265 167.564 26.375 167.564 26.1591V26.1136C167.564 25.553 167.411 25.1174 167.104 24.8068C166.801 24.4962 166.34 24.3409 165.723 24.3409C165.083 24.3409 164.581 24.4811 164.217 24.7614C163.854 25.0417 163.598 25.3409 163.45 25.6591L162.178 25.2045C162.405 24.6742 162.708 24.2614 163.087 23.9659C163.469 23.6667 163.886 23.4583 164.337 23.3409C164.791 23.2197 165.238 23.1591 165.678 23.1591C165.958 23.1591 166.28 23.1932 166.643 23.2614C167.011 23.3258 167.365 23.4602 167.706 23.6648C168.051 23.8693 168.337 24.178 168.564 24.5909C168.791 25.0038 168.905 25.5568 168.905 26.25V32H167.564V30.8182H167.496C167.405 31.0076 167.253 31.2102 167.041 31.4261C166.829 31.642 166.547 31.8258 166.195 31.9773C165.842 32.1288 165.412 32.2045 164.905 32.2045ZM165.109 31C165.64 31 166.087 30.8958 166.45 30.6875C166.818 30.4792 167.094 30.2102 167.28 29.8807C167.469 29.5511 167.564 29.2045 167.564 28.8409V27.6136C167.507 27.6818 167.382 27.7443 167.189 27.8011C167 27.8542 166.78 27.9015 166.53 27.9432C166.284 27.9811 166.043 28.0152 165.808 28.0455C165.577 28.072 165.39 28.0947 165.246 28.1136C164.897 28.1591 164.571 28.233 164.268 28.3352C163.969 28.4337 163.727 28.5833 163.541 28.7841C163.359 28.9811 163.268 29.25 163.268 29.5909C163.268 30.0568 163.441 30.4091 163.786 30.6477C164.134 30.8826 164.575 31 165.109 31ZM172.534 20.3636V21.3864C172.534 21.697 172.477 22.0284 172.364 22.3807C172.254 22.7292 172.091 23.0682 171.875 23.3977C171.663 23.7235 171.405 24.0076 171.102 24.25L170.375 23.6591C170.614 23.3182 170.82 22.964 170.994 22.5966C171.172 22.2254 171.261 21.8295 171.261 21.4091V20.3636H172.534ZM175.443 20.3636V21.3864C175.443 21.697 175.386 22.0284 175.273 22.3807C175.163 22.7292 175 23.0682 174.784 23.3977C174.572 23.7235 174.314 24.0076 174.011 24.25L173.284 23.6591C173.523 23.3182 173.729 22.964 173.903 22.5966C174.081 22.2254 174.17 21.8295 174.17 21.4091V20.3636H175.443ZM177.852 30.4091L177.761 31.0227C177.697 31.4545 177.598 31.9167 177.466 32.4091C177.337 32.9015 177.203 33.3655 177.062 33.8011C176.922 34.2367 176.807 34.5833 176.716 34.8409H175.693C175.742 34.5985 175.807 34.2784 175.886 33.8807C175.966 33.483 176.045 33.0379 176.125 32.5455C176.208 32.0568 176.277 31.5568 176.33 31.0455L176.398 30.4091H177.852ZM79.7415 43V41.9773C79.7415 41.6667 79.7964 41.3371 79.9062 40.9886C80.0199 40.6364 80.1828 40.2973 80.3949 39.9716C80.6108 39.642 80.8703 39.3561 81.1733 39.1136L81.9006 39.7045C81.6619 40.0455 81.4536 40.4015 81.2756 40.7727C81.1013 41.1402 81.0142 41.5341 81.0142 41.9545V43H79.7415ZM82.6506 43V41.9773C82.6506 41.6667 82.7055 41.3371 82.8153 40.9886C82.929 40.6364 83.0919 40.2973 83.304 39.9716C83.5199 39.642 83.7794 39.3561 84.0824 39.1136L84.8097 39.7045C84.571 40.0455 84.3627 40.4015 84.1847 40.7727C84.0104 41.1402 83.9233 41.5341 83.9233 41.9545V43H82.6506ZM89.8352 51.1818C89.017 51.1818 88.3125 50.9886 87.7216 50.6023C87.1307 50.2159 86.6761 49.6837 86.358 49.0057C86.0398 48.3277 85.8807 47.553 85.8807 46.6818C85.8807 45.7955 86.0436 45.0133 86.3693 44.3352C86.6989 43.6534 87.1572 43.1212 87.7443 42.7386C88.3352 42.3523 89.0246 42.1591 89.8125 42.1591C90.4261 42.1591 90.9792 42.2727 91.4716 42.5C91.964 42.7273 92.3674 43.0455 92.6818 43.4545C92.9962 43.8636 93.1913 44.3409 93.267 44.8864H91.9261C91.8239 44.4886 91.5966 44.1364 91.2443 43.8295C90.8958 43.5189 90.4261 43.3636 89.8352 43.3636C89.3125 43.3636 88.8542 43.5 88.4602 43.7727C88.0701 44.0417 87.7652 44.4223 87.5455 44.9148C87.3295 45.4034 87.2216 45.9773 87.2216 46.6364C87.2216 47.3106 87.3277 47.8977 87.5398 48.3977C87.7557 48.8977 88.0587 49.286 88.4489 49.5625C88.8428 49.839 89.3049 49.9773 89.8352 49.9773C90.1837 49.9773 90.5 49.9167 90.7841 49.7955C91.0682 49.6742 91.3087 49.5 91.5057 49.2727C91.7027 49.0455 91.8428 48.7727 91.9261 48.4545H93.267C93.1913 48.9697 93.0038 49.4337 92.7045 49.8466C92.4091 50.2557 92.017 50.5814 91.5284 50.8239C91.0436 51.0625 90.4792 51.1818 89.8352 51.1818ZM97.7955 51.2045C97.2424 51.2045 96.7405 51.1004 96.2898 50.892C95.839 50.6799 95.4811 50.375 95.2159 49.9773C94.9508 49.5758 94.8182 49.0909 94.8182 48.5227C94.8182 48.0227 94.9167 47.6174 95.1136 47.3068C95.3106 46.9924 95.5739 46.7462 95.9034 46.5682C96.233 46.3902 96.5966 46.2576 96.9943 46.1705C97.3958 46.0795 97.7992 46.0076 98.2045 45.9545C98.7348 45.8864 99.1648 45.8352 99.4943 45.8011C99.8277 45.7633 100.07 45.7008 100.222 45.6136C100.377 45.5265 100.455 45.375 100.455 45.1591V45.1136C100.455 44.553 100.301 44.1174 99.9943 43.8068C99.6913 43.4962 99.2311 43.3409 98.6136 43.3409C97.9735 43.3409 97.4716 43.4811 97.108 43.7614C96.7443 44.0417 96.4886 44.3409 96.3409 44.6591L95.0682 44.2045C95.2955 43.6742 95.5985 43.2614 95.9773 42.9659C96.3598 42.6667 96.7765 42.4583 97.2273 42.3409C97.6818 42.2197 98.1288 42.1591 98.5682 42.1591C98.8485 42.1591 99.1705 42.1932 99.5341 42.2614C99.9015 42.3258 100.256 42.4602 100.597 42.6648C100.941 42.8693 101.227 43.178 101.455 43.5909C101.682 44.0038 101.795 44.5568 101.795 45.25V51H100.455V49.8182H100.386C100.295 50.0076 100.144 50.2102 99.9318 50.4261C99.7197 50.642 99.4375 50.8258 99.0852 50.9773C98.733 51.1288 98.303 51.2045 97.7955 51.2045ZM98 50C98.5303 50 98.9773 49.8958 99.3409 49.6875C99.7083 49.4792 99.9848 49.2102 100.17 48.8807C100.36 48.5511 100.455 48.2045 100.455 47.8409V46.6136C100.398 46.6818 100.273 46.7443 100.08 46.8011C99.8902 46.8542 99.6705 46.9015 99.4205 46.9432C99.1742 46.9811 98.9337 47.0152 98.6989 47.0455C98.4678 47.072 98.2803 47.0947 98.1364 47.1136C97.7879 47.1591 97.4621 47.233 97.1591 47.3352C96.8598 47.4337 96.6174 47.5833 96.4318 47.7841C96.25 47.9811 96.1591 48.25 96.1591 48.5909C96.1591 49.0568 96.3314 49.4091 96.6761 49.6477C97.0246 49.8826 97.4659 50 98 50ZM104.243 51V42.2727H105.538V43.5909H105.629C105.788 43.1591 106.076 42.8087 106.493 42.5398C106.91 42.2708 107.379 42.1364 107.902 42.1364C108 42.1364 108.124 42.1383 108.271 42.142C108.419 42.1458 108.531 42.1515 108.607 42.1591V43.5227C108.561 43.5114 108.457 43.4943 108.294 43.4716C108.135 43.4451 107.966 43.4318 107.788 43.4318C107.364 43.4318 106.985 43.5208 106.652 43.6989C106.322 43.8731 106.061 44.1155 105.868 44.4261C105.679 44.733 105.584 45.0833 105.584 45.4773V51H104.243ZM111.537 39.3636V51H110.196V39.3636H111.537ZM117.538 51.1818C116.75 51.1818 116.059 50.9943 115.464 50.6193C114.874 50.2443 114.411 49.7197 114.078 49.0455C113.749 48.3712 113.584 47.5833 113.584 46.6818C113.584 45.7727 113.749 44.9792 114.078 44.3011C114.411 43.6231 114.874 43.0966 115.464 42.7216C116.059 42.3466 116.75 42.1591 117.538 42.1591C118.326 42.1591 119.016 42.3466 119.607 42.7216C120.201 43.0966 120.663 43.6231 120.993 44.3011C121.326 44.9792 121.493 45.7727 121.493 46.6818C121.493 47.5833 121.326 48.3712 120.993 49.0455C120.663 49.7197 120.201 50.2443 119.607 50.6193C119.016 50.9943 118.326 51.1818 117.538 51.1818ZM117.538 49.9773C118.137 49.9773 118.629 49.8239 119.016 49.517C119.402 49.2102 119.688 48.8068 119.874 48.3068C120.059 47.8068 120.152 47.2652 120.152 46.6818C120.152 46.0985 120.059 45.5549 119.874 45.0511C119.688 44.5473 119.402 44.1402 119.016 43.8295C118.629 43.5189 118.137 43.3636 117.538 43.3636C116.94 43.3636 116.447 43.5189 116.061 43.8295C115.675 44.1402 115.389 44.5473 115.203 45.0511C115.018 45.5549 114.925 46.0985 114.925 46.6818C114.925 47.2652 115.018 47.8068 115.203 48.3068C115.389 48.8068 115.675 49.2102 116.061 49.517C116.447 49.8239 116.94 49.9773 117.538 49.9773ZM129.722 44.2273L128.517 44.5682C128.441 44.3674 128.33 44.1723 128.182 43.983C128.038 43.7898 127.841 43.6307 127.591 43.5057C127.341 43.3807 127.021 43.3182 126.631 43.3182C126.097 43.3182 125.652 43.4413 125.295 43.6875C124.943 43.9299 124.767 44.2386 124.767 44.6136C124.767 44.947 124.888 45.2102 125.131 45.4034C125.373 45.5966 125.752 45.7576 126.267 45.8864L127.562 46.2045C128.343 46.3939 128.924 46.6837 129.307 47.0739C129.689 47.4602 129.881 47.9583 129.881 48.5682C129.881 49.0682 129.737 49.5152 129.449 49.9091C129.165 50.303 128.767 50.6136 128.256 50.8409C127.744 51.0682 127.15 51.1818 126.472 51.1818C125.581 51.1818 124.845 50.9886 124.261 50.6023C123.678 50.2159 123.309 49.6515 123.153 48.9091L124.426 48.5909C124.547 49.0606 124.777 49.4129 125.114 49.6477C125.455 49.8826 125.9 50 126.449 50C127.074 50 127.57 49.8674 127.938 49.6023C128.309 49.3333 128.494 49.0114 128.494 48.6364C128.494 48.3333 128.388 48.0795 128.176 47.875C127.964 47.6667 127.638 47.5114 127.199 47.4091L125.744 47.0682C124.945 46.8788 124.358 46.5852 123.983 46.1875C123.612 45.786 123.426 45.2841 123.426 44.6818C123.426 44.1894 123.564 43.7538 123.841 43.375C124.121 42.9962 124.502 42.6989 124.983 42.483C125.468 42.267 126.017 42.1591 126.631 42.1591C127.494 42.1591 128.172 42.3485 128.665 42.7273C129.161 43.1061 129.513 43.6061 129.722 44.2273ZM137.399 47.4318V42.2727H138.74V51H137.399V49.5227H137.308C137.104 49.9659 136.786 50.3428 136.354 50.6534C135.922 50.9602 135.376 51.1136 134.717 51.1136C134.172 51.1136 133.687 50.9943 133.263 50.7557C132.839 50.5133 132.505 50.1496 132.263 49.6648C132.02 49.1761 131.899 48.5606 131.899 47.8182V42.2727H133.24V47.7273C133.24 48.3636 133.418 48.8712 133.774 49.25C134.134 49.6288 134.592 49.8182 135.149 49.8182C135.482 49.8182 135.821 49.733 136.166 49.5625C136.515 49.392 136.806 49.1307 137.041 48.7784C137.28 48.4261 137.399 47.9773 137.399 47.4318ZM140.946 51V49.9773L145.901 43.6136V43.5227H141.105V42.2727H147.628V43.3409L142.81 49.6591V49.75H147.787V51H140.946ZM153.261 51.1818C152.42 51.1818 151.695 50.9962 151.085 50.625C150.479 50.25 150.011 49.7273 149.682 49.0568C149.356 48.3826 149.193 47.5985 149.193 46.7045C149.193 45.8106 149.356 45.0227 149.682 44.3409C150.011 43.6553 150.47 43.1212 151.057 42.7386C151.648 42.3523 152.337 42.1591 153.125 42.1591C153.58 42.1591 154.028 42.2348 154.472 42.3864C154.915 42.5379 155.318 42.7841 155.682 43.125C156.045 43.4621 156.335 43.9091 156.551 44.4659C156.767 45.0227 156.875 45.7083 156.875 46.5227V47.0909H150.148V45.9318H155.511C155.511 45.4394 155.413 45 155.216 44.6136C155.023 44.2273 154.746 43.9223 154.386 43.6989C154.03 43.4754 153.61 43.3636 153.125 43.3636C152.591 43.3636 152.129 43.4962 151.739 43.7614C151.352 44.0227 151.055 44.3636 150.847 44.7841C150.638 45.2045 150.534 45.6553 150.534 46.1364V46.9091C150.534 47.5682 150.648 48.1269 150.875 48.5852C151.106 49.0398 151.426 49.3864 151.835 49.625C152.244 49.8598 152.72 49.9773 153.261 49.9773C153.614 49.9773 153.932 49.928 154.216 49.8295C154.504 49.7273 154.752 49.5758 154.96 49.375C155.169 49.1705 155.33 48.9167 155.443 48.6136L156.739 48.9773C156.602 49.4167 156.373 49.803 156.051 50.1364C155.729 50.4659 155.331 50.7235 154.858 50.9091C154.384 51.0909 153.852 51.1818 153.261 51.1818ZM162.21 51.1818C161.483 51.1818 160.841 50.9981 160.284 50.6307C159.727 50.2595 159.292 49.7367 158.977 49.0625C158.663 48.3845 158.506 47.5833 158.506 46.6591C158.506 45.7424 158.663 44.947 158.977 44.2727C159.292 43.5985 159.729 43.0777 160.29 42.7102C160.85 42.3428 161.498 42.1591 162.233 42.1591C162.801 42.1591 163.25 42.2538 163.58 42.4432C163.913 42.6288 164.167 42.8409 164.341 43.0795C164.519 43.3144 164.657 43.5076 164.756 43.6591H164.869V39.3636H166.21V51H164.915V49.6591H164.756C164.657 49.8182 164.517 50.0189 164.335 50.2614C164.153 50.5 163.894 50.714 163.557 50.9034C163.22 51.089 162.771 51.1818 162.21 51.1818ZM162.392 49.9773C162.93 49.9773 163.384 49.8371 163.756 49.5568C164.127 49.2727 164.409 48.8807 164.602 48.3807C164.795 47.8769 164.892 47.2955 164.892 46.6364C164.892 45.9848 164.797 45.4148 164.608 44.9261C164.419 44.4337 164.138 44.0511 163.767 43.7784C163.396 43.5019 162.938 43.3636 162.392 43.3636C161.824 43.3636 161.35 43.5095 160.972 43.8011C160.597 44.089 160.314 44.4811 160.125 44.9773C159.939 45.4697 159.847 46.0227 159.847 46.6364C159.847 47.2576 159.941 47.822 160.131 48.3295C160.324 48.8333 160.608 49.2348 160.983 49.5341C161.362 49.8295 161.831 49.9773 162.392 49.9773ZM171.42 51.2045C170.867 51.2045 170.366 51.1004 169.915 50.892C169.464 50.6799 169.106 50.375 168.841 49.9773C168.576 49.5758 168.443 49.0909 168.443 48.5227C168.443 48.0227 168.542 47.6174 168.739 47.3068C168.936 46.9924 169.199 46.7462 169.528 46.5682C169.858 46.3902 170.222 46.2576 170.619 46.1705C171.021 46.0795 171.424 46.0076 171.83 45.9545C172.36 45.8864 172.79 45.8352 173.119 45.8011C173.453 45.7633 173.695 45.7008 173.847 45.6136C174.002 45.5265 174.08 45.375 174.08 45.1591V45.1136C174.08 44.553 173.926 44.1174 173.619 43.8068C173.316 43.4962 172.856 43.3409 172.239 43.3409C171.598 43.3409 171.097 43.4811 170.733 43.7614C170.369 44.0417 170.114 44.3409 169.966 44.6591L168.693 44.2045C168.92 43.6742 169.223 43.2614 169.602 42.9659C169.985 42.6667 170.402 42.4583 170.852 42.3409C171.307 42.2197 171.754 42.1591 172.193 42.1591C172.473 42.1591 172.795 42.1932 173.159 42.2614C173.527 42.3258 173.881 42.4602 174.222 42.6648C174.566 42.8693 174.852 43.178 175.08 43.5909C175.307 44.0038 175.42 44.5568 175.42 45.25V51H174.08V49.8182H174.011C173.92 50.0076 173.769 50.2102 173.557 50.4261C173.345 50.642 173.063 50.8258 172.71 50.9773C172.358 51.1288 171.928 51.2045 171.42 51.2045ZM171.625 50C172.155 50 172.602 49.8958 172.966 49.6875C173.333 49.4792 173.61 49.2102 173.795 48.8807C173.985 48.5511 174.08 48.2045 174.08 47.8409V46.6136C174.023 46.6818 173.898 46.7443 173.705 46.8011C173.515 46.8542 173.295 46.9015 173.045 46.9432C172.799 46.9811 172.559 47.0152 172.324 47.0455C172.093 47.072 171.905 47.0947 171.761 47.1136C171.413 47.1591 171.087 47.233 170.784 47.3352C170.485 47.4337 170.242 47.5833 170.057 47.7841C169.875 47.9811 169.784 48.25 169.784 48.5909C169.784 49.0568 169.956 49.4091 170.301 49.6477C170.65 49.8826 171.091 50 171.625 50ZM178.845 51.0909C178.565 51.0909 178.324 50.9905 178.124 50.7898C177.923 50.589 177.822 50.3485 177.822 50.0682C177.822 49.7879 177.923 49.5473 178.124 49.3466C178.324 49.1458 178.565 49.0455 178.845 49.0455C179.125 49.0455 179.366 49.1458 179.567 49.3466C179.768 49.5473 179.868 49.7879 179.868 50.0682C179.868 50.2538 179.821 50.4242 179.726 50.5795C179.635 50.7348 179.512 50.8598 179.357 50.9545C179.205 51.0455 179.035 51.0909 178.845 51.0909ZM185.57 51.1818C184.842 51.1818 184.2 50.9981 183.643 50.6307C183.087 50.2595 182.651 49.7367 182.337 49.0625C182.022 48.3845 181.865 47.5833 181.865 46.6591C181.865 45.7424 182.022 44.947 182.337 44.2727C182.651 43.5985 183.089 43.0777 183.649 42.7102C184.21 42.3428 184.857 42.1591 185.592 42.1591C186.161 42.1591 186.609 42.2538 186.939 42.4432C187.272 42.6288 187.526 42.8409 187.7 43.0795C187.878 43.3144 188.017 43.5076 188.115 43.6591H188.229V39.3636H189.57V51H188.274V49.6591H188.115C188.017 49.8182 187.876 50.0189 187.695 50.2614C187.513 50.5 187.253 50.714 186.916 50.9034C186.579 51.089 186.13 51.1818 185.57 51.1818ZM185.751 49.9773C186.289 49.9773 186.744 49.8371 187.115 49.5568C187.486 49.2727 187.768 48.8807 187.962 48.3807C188.155 47.8769 188.251 47.2955 188.251 46.6364C188.251 45.9848 188.157 45.4148 187.967 44.9261C187.778 44.4337 187.498 44.0511 187.126 43.7784C186.755 43.5019 186.297 43.3636 185.751 43.3636C185.183 43.3636 184.71 43.5095 184.331 43.8011C183.956 44.089 183.674 44.4811 183.484 44.9773C183.299 45.4697 183.206 46.0227 183.206 46.6364C183.206 47.2576 183.301 47.822 183.49 48.3295C183.683 48.8333 183.967 49.2348 184.342 49.5341C184.721 49.8295 185.191 49.9773 185.751 49.9773ZM195.871 51.1818C195.03 51.1818 194.304 50.9962 193.695 50.625C193.089 50.25 192.621 49.7273 192.291 49.0568C191.965 48.3826 191.803 47.5985 191.803 46.7045C191.803 45.8106 191.965 45.0227 192.291 44.3409C192.621 43.6553 193.079 43.1212 193.666 42.7386C194.257 42.3523 194.946 42.1591 195.734 42.1591C196.189 42.1591 196.638 42.2348 197.081 42.3864C197.524 42.5379 197.928 42.7841 198.291 43.125C198.655 43.4621 198.945 43.9091 199.161 44.4659C199.376 45.0227 199.484 45.7083 199.484 46.5227V47.0909H192.757V45.9318H198.121C198.121 45.4394 198.022 45 197.825 44.6136C197.632 44.2273 197.356 43.9223 196.996 43.6989C196.64 43.4754 196.219 43.3636 195.734 43.3636C195.2 43.3636 194.738 43.4962 194.348 43.7614C193.962 44.0227 193.664 44.3636 193.456 44.7841C193.248 45.2045 193.143 45.6553 193.143 46.1364V46.9091C193.143 47.5682 193.257 48.1269 193.484 48.5852C193.715 49.0398 194.036 49.3864 194.445 49.625C194.854 49.8598 195.329 49.9773 195.871 49.9773C196.223 49.9773 196.541 49.928 196.825 49.8295C197.113 49.7273 197.361 49.5758 197.57 49.375C197.778 49.1705 197.939 48.9167 198.053 48.6136L199.348 48.9773C199.212 49.4167 198.982 49.803 198.661 50.1364C198.339 50.4659 197.941 50.7235 197.467 50.9091C196.994 51.0909 196.462 51.1818 195.871 51.1818ZM208.395 42.2727L205.168 51H203.804L200.577 42.2727H202.031L204.44 49.2273H204.531L206.94 42.2727H208.395ZM216.869 54.0682C215.71 54.0682 214.686 53.9091 213.795 53.5909C212.905 53.2765 212.157 52.8125 211.551 52.1989C210.945 51.5852 210.487 50.8333 210.176 49.9432C209.866 49.053 209.71 48.0341 209.71 46.8864C209.71 45.7765 209.867 44.7841 210.182 43.9091C210.5 43.0341 210.96 42.2917 211.562 41.6818C212.169 41.0682 212.903 40.6004 213.767 40.2784C214.634 39.9564 215.616 39.7955 216.71 39.7955C217.775 39.7955 218.706 39.9697 219.506 40.3182C220.309 40.6629 220.979 41.1307 221.517 41.7216C222.059 42.3087 222.464 42.9697 222.733 43.7045C223.006 44.4394 223.142 45.197 223.142 45.9773C223.142 46.5265 223.116 47.0833 223.062 47.6477C223.009 48.2121 222.898 48.7311 222.727 49.2045C222.557 49.6742 222.294 50.053 221.938 50.3409C221.585 50.6288 221.108 50.7727 220.506 50.7727C220.241 50.7727 219.949 50.7311 219.631 50.6477C219.312 50.5644 219.03 50.4261 218.784 50.233C218.538 50.0398 218.392 49.7803 218.347 49.4545H218.278C218.188 49.6742 218.047 49.8826 217.858 50.0795C217.672 50.2765 217.428 50.4337 217.125 50.5511C216.826 50.6686 216.46 50.7197 216.028 50.7045C215.536 50.6856 215.102 50.5758 214.727 50.375C214.352 50.1705 214.038 49.8939 213.784 49.5455C213.534 49.1932 213.345 48.786 213.216 48.3239C213.091 47.858 213.028 47.3561 213.028 46.8182C213.028 46.3068 213.104 45.839 213.256 45.4148C213.407 44.9905 213.617 44.6193 213.886 44.3011C214.159 43.983 214.477 43.7292 214.841 43.5398C215.208 43.3466 215.604 43.2273 216.028 43.1818C216.407 43.1439 216.752 43.161 217.062 43.233C217.373 43.3011 217.629 43.4053 217.83 43.5455C218.03 43.6818 218.157 43.8333 218.21 44H218.278V43.3636H219.483V48.5C219.483 48.8182 219.572 49.0985 219.75 49.3409C219.928 49.5833 220.188 49.7045 220.528 49.7045C220.915 49.7045 221.21 49.572 221.415 49.3068C221.623 49.0417 221.765 48.6326 221.841 48.0795C221.92 47.5265 221.96 46.8182 221.96 45.9545C221.96 45.447 221.89 44.947 221.75 44.4545C221.614 43.9583 221.405 43.4943 221.125 43.0625C220.848 42.6307 220.498 42.25 220.074 41.9205C219.65 41.5909 219.152 41.3333 218.58 41.1477C218.011 40.9583 217.366 40.8636 216.642 40.8636C215.752 40.8636 214.955 41.0019 214.25 41.2784C213.549 41.5511 212.953 41.9508 212.46 42.4773C211.972 43 211.598 43.6364 211.341 44.3864C211.087 45.1326 210.96 45.9811 210.96 46.9318C210.96 47.8977 211.087 48.7557 211.341 49.5057C211.598 50.2557 211.977 50.8883 212.477 51.4034C212.981 51.9186 213.604 52.3087 214.347 52.5739C215.089 52.8428 215.945 52.9773 216.915 52.9773C217.331 52.9773 217.742 52.9375 218.148 52.858C218.553 52.7784 218.911 52.6913 219.222 52.5966C219.532 52.5019 219.756 52.4318 219.892 52.3864L220.21 53.4318C219.975 53.5303 219.669 53.6288 219.29 53.7273C218.915 53.8258 218.513 53.9072 218.085 53.9716C217.661 54.036 217.256 54.0682 216.869 54.0682ZM216.21 49.5455C216.718 49.5455 217.129 49.4432 217.443 49.2386C217.758 49.0341 217.987 48.7254 218.131 48.3125C218.275 47.8996 218.347 47.3788 218.347 46.75C218.347 46.1136 218.267 45.6174 218.108 45.2614C217.949 44.9053 217.714 44.6553 217.403 44.5114C217.093 44.3674 216.71 44.2955 216.256 44.2955C215.824 44.2955 215.455 44.4091 215.148 44.6364C214.845 44.8598 214.612 45.1591 214.449 45.5341C214.29 45.9053 214.21 46.3106 214.21 46.75C214.21 47.2348 214.275 47.6913 214.403 48.1193C214.532 48.5436 214.742 48.8883 215.034 49.1534C215.326 49.4148 215.718 49.5455 216.21 49.5455ZM228.672 54.4545C228.024 54.4545 227.467 54.3712 227.001 54.2045C226.536 54.0417 226.147 53.8258 225.837 53.5568C225.53 53.2917 225.286 53.0076 225.104 52.7045L226.172 51.9545C226.293 52.1136 226.446 52.2955 226.632 52.5C226.818 52.7083 227.071 52.8883 227.393 53.0398C227.719 53.1951 228.145 53.2727 228.672 53.2727C229.376 53.2727 229.958 53.1023 230.416 52.7614C230.875 52.4205 231.104 51.8864 231.104 51.1591V49.3864H230.99C230.892 49.5455 230.751 49.7424 230.57 49.9773C230.392 50.2083 230.134 50.4148 229.797 50.5966C229.464 50.7746 229.013 50.8636 228.445 50.8636C227.74 50.8636 227.107 50.697 226.547 50.3636C225.99 50.0303 225.549 49.5455 225.223 48.9091C224.901 48.2727 224.74 47.5 224.74 46.5909C224.74 45.697 224.897 44.9186 225.212 44.2557C225.526 43.589 225.964 43.0739 226.524 42.7102C227.085 42.3428 227.732 42.1591 228.467 42.1591C229.036 42.1591 229.486 42.2538 229.82 42.4432C230.157 42.6288 230.414 42.8409 230.592 43.0795C230.774 43.3144 230.914 43.5076 231.013 43.6591H231.149V42.2727H232.445V51.25C232.445 52 232.274 52.6098 231.933 53.0795C231.596 53.553 231.142 53.8996 230.57 54.1193C230.001 54.3428 229.369 54.4545 228.672 54.4545ZM228.626 49.6591C229.164 49.6591 229.619 49.536 229.99 49.2898C230.361 49.0436 230.643 48.6894 230.837 48.2273C231.03 47.7652 231.126 47.2121 231.126 46.5682C231.126 45.9394 231.032 45.3845 230.842 44.9034C230.653 44.4223 230.373 44.0455 230.001 43.7727C229.63 43.5 229.172 43.3636 228.626 43.3636C228.058 43.3636 227.585 43.5076 227.206 43.7955C226.831 44.0833 226.549 44.4697 226.359 44.9545C226.174 45.4394 226.081 45.9773 226.081 46.5682C226.081 47.1742 226.176 47.7102 226.365 48.1761C226.558 48.6383 226.842 49.0019 227.217 49.267C227.596 49.5284 228.066 49.6591 228.626 49.6591ZM234.899 51V42.2727H236.195V43.6364H236.308C236.49 43.1705 236.784 42.8087 237.189 42.5511C237.594 42.2898 238.081 42.1591 238.649 42.1591C239.225 42.1591 239.704 42.2898 240.087 42.5511C240.473 42.8087 240.774 43.1705 240.99 43.6364H241.081C241.304 43.1856 241.64 42.8277 242.087 42.5625C242.534 42.2936 243.07 42.1591 243.695 42.1591C244.475 42.1591 245.113 42.4034 245.609 42.892C246.106 43.3769 246.354 44.1326 246.354 45.1591V51H245.013V45.1591C245.013 44.5152 244.837 44.0549 244.484 43.7784C244.132 43.5019 243.717 43.3636 243.24 43.3636C242.626 43.3636 242.151 43.5492 241.814 43.9205C241.477 44.2879 241.308 44.7538 241.308 45.3182V51H239.945V45.0227C239.945 44.5265 239.784 44.1269 239.462 43.8239C239.14 43.517 238.725 43.3636 238.217 43.3636C237.869 43.3636 237.543 43.4564 237.24 43.642C236.941 43.8277 236.698 44.0852 236.513 44.4148C236.331 44.7405 236.24 45.1174 236.24 45.5455V51H234.899ZM251.374 51.2045C250.821 51.2045 250.319 51.1004 249.868 50.892C249.417 50.6799 249.059 50.375 248.794 49.9773C248.529 49.5758 248.396 49.0909 248.396 48.5227C248.396 48.0227 248.495 47.6174 248.692 47.3068C248.889 46.9924 249.152 46.7462 249.482 46.5682C249.811 46.3902 250.175 46.2576 250.572 46.1705C250.974 46.0795 251.377 46.0076 251.783 45.9545C252.313 45.8864 252.743 45.8352 253.072 45.8011C253.406 45.7633 253.648 45.7008 253.8 45.6136C253.955 45.5265 254.033 45.375 254.033 45.1591V45.1136C254.033 44.553 253.879 44.1174 253.572 43.8068C253.269 43.4962 252.809 43.3409 252.192 43.3409C251.552 43.3409 251.05 43.4811 250.686 43.7614C250.322 44.0417 250.067 44.3409 249.919 44.6591L248.646 44.2045C248.874 43.6742 249.177 43.2614 249.555 42.9659C249.938 42.6667 250.355 42.4583 250.805 42.3409C251.26 42.2197 251.707 42.1591 252.146 42.1591C252.427 42.1591 252.749 42.1932 253.112 42.2614C253.48 42.3258 253.834 42.4602 254.175 42.6648C254.519 42.8693 254.805 43.178 255.033 43.5909C255.26 44.0038 255.374 44.5568 255.374 45.25V51H254.033V49.8182H253.964C253.874 50.0076 253.722 50.2102 253.51 50.4261C253.298 50.642 253.016 50.8258 252.663 50.9773C252.311 51.1288 251.881 51.2045 251.374 51.2045ZM251.578 50C252.108 50 252.555 49.8958 252.919 49.6875C253.286 49.4792 253.563 49.2102 253.749 48.8807C253.938 48.5511 254.033 48.2045 254.033 47.8409V46.6136C253.976 46.6818 253.851 46.7443 253.658 46.8011C253.468 46.8542 253.249 46.9015 252.999 46.9432C252.752 46.9811 252.512 47.0152 252.277 47.0455C252.046 47.072 251.858 47.0947 251.714 47.1136C251.366 47.1591 251.04 47.233 250.737 47.3352C250.438 47.4337 250.196 47.5833 250.01 47.7841C249.828 47.9811 249.737 48.25 249.737 48.5909C249.737 49.0568 249.91 49.4091 250.254 49.6477C250.603 49.8826 251.044 50 251.578 50ZM257.821 51V42.2727H259.162V51H257.821ZM258.503 40.8182C258.241 40.8182 258.016 40.7292 257.827 40.5511C257.641 40.3731 257.548 40.1591 257.548 39.9091C257.548 39.6591 257.641 39.4451 257.827 39.267C258.016 39.089 258.241 39 258.503 39C258.764 39 258.988 39.089 259.173 39.267C259.363 39.4451 259.457 39.6591 259.457 39.9091C259.457 40.1591 259.363 40.3731 259.173 40.5511C258.988 40.7292 258.764 40.8182 258.503 40.8182ZM262.959 39.3636V51H261.618V39.3636H262.959ZM266.392 51.0909C266.112 51.0909 265.871 50.9905 265.67 50.7898C265.47 50.589 265.369 50.3485 265.369 50.0682C265.369 49.7879 265.47 49.5473 265.67 49.3466C265.871 49.1458 266.112 49.0455 266.392 49.0455C266.672 49.0455 266.913 49.1458 267.114 49.3466C267.314 49.5473 267.415 49.7879 267.415 50.0682C267.415 50.2538 267.367 50.4242 267.273 50.5795C267.182 50.7348 267.059 50.8598 266.903 50.9545C266.752 51.0455 266.581 51.0909 266.392 51.0909ZM273.366 51.1818C272.548 51.1818 271.844 50.9886 271.253 50.6023C270.662 50.2159 270.207 49.6837 269.889 49.0057C269.571 48.3277 269.412 47.553 269.412 46.6818C269.412 45.7955 269.575 45.0133 269.901 44.3352C270.23 43.6534 270.688 43.1212 271.276 42.7386C271.866 42.3523 272.556 42.1591 273.344 42.1591C273.957 42.1591 274.51 42.2727 275.003 42.5C275.495 42.7273 275.899 43.0455 276.213 43.4545C276.527 43.8636 276.723 44.3409 276.798 44.8864H275.457C275.355 44.4886 275.128 44.1364 274.776 43.8295C274.427 43.5189 273.957 43.3636 273.366 43.3636C272.844 43.3636 272.385 43.5 271.991 43.7727C271.601 44.0417 271.296 44.4223 271.077 44.9148C270.861 45.4034 270.753 45.9773 270.753 46.6364C270.753 47.3106 270.859 47.8977 271.071 48.3977C271.287 48.8977 271.59 49.286 271.98 49.5625C272.374 49.839 272.836 49.9773 273.366 49.9773C273.715 49.9773 274.031 49.9167 274.315 49.7955C274.599 49.6742 274.84 49.5 275.037 49.2727C275.234 49.0455 275.374 48.7727 275.457 48.4545H276.798C276.723 48.9697 276.535 49.4337 276.236 49.8466C275.94 50.2557 275.548 50.5814 275.06 50.8239C274.575 51.0625 274.01 51.1818 273.366 51.1818ZM282.304 51.1818C281.516 51.1818 280.825 50.9943 280.23 50.6193C279.639 50.2443 279.177 49.7197 278.844 49.0455C278.514 48.3712 278.349 47.5833 278.349 46.6818C278.349 45.7727 278.514 44.9792 278.844 44.3011C279.177 43.6231 279.639 43.0966 280.23 42.7216C280.825 42.3466 281.516 42.1591 282.304 42.1591C283.092 42.1591 283.781 42.3466 284.372 42.7216C284.967 43.0966 285.429 43.6231 285.759 44.3011C286.092 44.9792 286.259 45.7727 286.259 46.6818C286.259 47.5833 286.092 48.3712 285.759 49.0455C285.429 49.7197 284.967 50.2443 284.372 50.6193C283.781 50.9943 283.092 51.1818 282.304 51.1818ZM282.304 49.9773C282.902 49.9773 283.395 49.8239 283.781 49.517C284.168 49.2102 284.454 48.8068 284.639 48.3068C284.825 47.8068 284.918 47.2652 284.918 46.6818C284.918 46.0985 284.825 45.5549 284.639 45.0511C284.454 44.5473 284.168 44.1402 283.781 43.8295C283.395 43.5189 282.902 43.3636 282.304 43.3636C281.705 43.3636 281.213 43.5189 280.827 43.8295C280.44 44.1402 280.154 44.5473 279.969 45.0511C279.783 45.5549 279.69 46.0985 279.69 46.6818C279.69 47.2652 279.783 47.8068 279.969 48.3068C280.154 48.8068 280.44 49.2102 280.827 49.517C281.213 49.8239 281.705 49.9773 282.304 49.9773ZM288.305 51V42.2727H289.601V43.6364H289.714C289.896 43.1705 290.19 42.8087 290.595 42.5511C291 42.2898 291.487 42.1591 292.055 42.1591C292.631 42.1591 293.11 42.2898 293.493 42.5511C293.879 42.8087 294.18 43.1705 294.396 43.6364H294.487C294.711 43.1856 295.046 42.8277 295.493 42.5625C295.94 42.2936 296.476 42.1591 297.101 42.1591C297.881 42.1591 298.519 42.4034 299.016 42.892C299.512 43.3769 299.76 44.1326 299.76 45.1591V51H298.419V45.1591C298.419 44.5152 298.243 44.0549 297.891 43.7784C297.538 43.5019 297.124 43.3636 296.646 43.3636C296.033 43.3636 295.557 43.5492 295.22 43.9205C294.883 44.2879 294.714 44.7538 294.714 45.3182V51H293.351V45.0227C293.351 44.5265 293.19 44.1269 292.868 43.8239C292.546 43.517 292.131 43.3636 291.624 43.3636C291.275 43.3636 290.949 43.4564 290.646 43.642C290.347 43.8277 290.105 44.0852 289.919 44.4148C289.737 44.7405 289.646 45.1174 289.646 45.5455V51H288.305ZM303.393 39.3636V40.3864C303.393 40.697 303.337 41.0284 303.223 41.3807C303.113 41.7292 302.95 42.0682 302.734 42.3977C302.522 42.7235 302.265 43.0076 301.962 43.25L301.234 42.6591C301.473 42.3182 301.679 41.964 301.854 41.5966C302.032 41.2254 302.121 40.8295 302.121 40.4091V39.3636H303.393ZM306.303 39.3636V40.3864C306.303 40.697 306.246 41.0284 306.132 41.3807C306.022 41.7292 305.859 42.0682 305.643 42.3977C305.431 42.7235 305.174 43.0076 304.871 43.25L304.143 42.6591C304.382 42.3182 304.589 41.964 304.763 41.5966C304.941 41.2254 305.03 40.8295 305.03 40.4091V39.3636H306.303Z" fill="#B39600"/>
</svg>
