<svg width="307" height="92" viewBox="0 0 307 92" fill="none" xmlns="http://www.w3.org/2000/svg">
<path d="M0.590909 8.11364V7.40909C1.22348 7.40909 1.66477 7.27651 1.91477 7.01136C2.16856 6.74621 2.29545 6.30303 2.29545 5.68182V3.86364C2.29545 3.34091 2.3447 2.88826 2.44318 2.50568C2.54545 2.12311 2.71023 1.80682 2.9375 1.55682C3.16477 1.30682 3.4678 1.12121 3.84659 1C4.22538 0.878787 4.69318 0.818181 5.25 0.818181V1.93182C4.81061 1.93182 4.46402 2 4.21023 2.13636C3.96023 2.27273 3.7822 2.48485 3.67614 2.77273C3.57386 3.05682 3.52273 3.42045 3.52273 3.86364V6.13636C3.52273 6.43182 3.48295 6.70076 3.40341 6.94318C3.32765 7.18561 3.18561 7.39394 2.97727 7.56818C2.76894 7.74242 2.47159 7.87689 2.08523 7.97159C1.70265 8.06629 1.20455 8.11364 0.590909 8.11364ZM5.25 15.3636C4.69318 15.3636 4.22538 15.303 3.84659 15.1818C3.4678 15.0606 3.16477 14.875 2.9375 14.625C2.71023 14.375 2.54545 14.0587 2.44318 13.6761C2.3447 13.2936 2.29545 12.8409 2.29545 12.3182V10.5C2.29545 9.87879 2.16856 9.43561 1.91477 9.17045C1.66477 8.9053 1.22348 8.77273 0.590909 8.77273V8.06818C1.20455 8.06818 1.70265 8.11553 2.08523 8.21023C2.47159 8.30492 2.76894 8.43939 2.97727 8.61364C3.18561 8.78788 3.32765 8.99621 3.40341 9.23864C3.48295 9.48106 3.52273 9.75 3.52273 10.0455V12.3182C3.52273 12.7614 3.57386 13.125 3.67614 13.4091C3.7822 13.6932 3.96023 13.9034 4.21023 14.0398C4.46402 14.1799 4.81061 14.25 5.25 14.25V15.3636ZM0.590909 8.77273V7.40909H1.93182V8.77273H0.590909ZM56.517 32.0909C56.2367 32.0909 55.9962 31.9905 55.7955 31.7898C55.5947 31.589 55.4943 31.3485 55.4943 31.0682C55.4943 30.7879 55.5947 30.5473 55.7955 30.3466C55.9962 30.1458 56.2367 30.0455 56.517 30.0455C56.7973 30.0455 57.0379 30.1458 57.2386 30.3466C57.4394 30.5473 57.5398 30.7879 57.5398 31.0682C57.5398 31.2538 57.4924 31.4242 57.3977 31.5795C57.3068 31.7348 57.1837 31.8598 57.0284 31.9545C56.8769 32.0455 56.7064 32.0909 56.517 32.0909ZM56.517 25.6136C56.2367 25.6136 55.9962 25.5133 55.7955 25.3125C55.5947 25.1117 55.4943 24.8712 55.4943 24.5909C55.4943 24.3106 55.5947 24.0701 55.7955 23.8693C55.9962 23.6686 56.2367 23.5682 56.517 23.5682C56.7973 23.5682 57.0379 23.6686 57.2386 23.8693C57.4394 24.0701 57.5398 24.3106 57.5398 24.5909C57.5398 24.7765 57.4924 24.947 57.3977 25.1023C57.3068 25.2576 57.1837 25.3826 57.0284 25.4773C56.8769 25.5682 56.7064 25.6136 56.517 25.6136ZM72.3295 51.0909C72.0492 51.0909 71.8087 50.9905 71.608 50.7898C71.4072 50.589 71.3068 50.3485 71.3068 50.0682C71.3068 49.7879 71.4072 49.5473 71.608 49.3466C71.8087 49.1458 72.0492 49.0455 72.3295 49.0455C72.6098 49.0455 72.8504 49.1458 73.0511 49.3466C73.2519 49.5473 73.3523 49.7879 73.3523 50.0682C73.3523 50.2538 73.3049 50.4242 73.2102 50.5795C73.1193 50.7348 72.9962 50.8598 72.8409 50.9545C72.6894 51.0455 72.5189 51.0909 72.3295 51.0909ZM72.3295 44.6136C72.0492 44.6136 71.8087 44.5133 71.608 44.3125C71.4072 44.1117 71.3068 43.8712 71.3068 43.5909C71.3068 43.3106 71.4072 43.0701 71.608 42.8693C71.8087 42.6686 72.0492 42.5682 72.3295 42.5682C72.6098 42.5682 72.8504 42.6686 73.0511 42.8693C73.2519 43.0701 73.3523 43.3106 73.3523 43.5909C73.3523 43.7765 73.3049 43.947 73.2102 44.1023C73.1193 44.2576 72.9962 44.3826 72.8409 44.4773C72.6894 44.5682 72.5189 44.6136 72.3295 44.6136ZM190.126 70.0909C189.846 70.0909 189.606 69.9905 189.405 69.7898C189.204 69.589 189.104 69.3485 189.104 69.0682C189.104 68.7879 189.204 68.5473 189.405 68.3466C189.606 68.1458 189.846 68.0455 190.126 68.0455C190.407 68.0455 190.647 68.1458 190.848 68.3466C191.049 68.5473 191.149 68.7879 191.149 69.0682C191.149 69.2538 191.102 69.4242 191.007 69.5795C190.916 69.7348 190.793 69.8598 190.638 69.9545C190.486 70.0455 190.316 70.0909 190.126 70.0909ZM190.126 63.6136C189.846 63.6136 189.606 63.5133 189.405 63.3125C189.204 63.1117 189.104 62.8712 189.104 62.5909C189.104 62.3106 189.204 62.0701 189.405 61.8693C189.606 61.6686 189.846 61.5682 190.126 61.5682C190.407 61.5682 190.647 61.6686 190.848 61.8693C191.049 62.0701 191.149 62.3106 191.149 62.5909C191.149 62.7765 191.102 62.947 191.007 63.1023C190.916 63.2576 190.793 63.3826 190.638 63.4773C190.486 63.5682 190.316 63.6136 190.126 63.6136ZM5.20455 84.0682V84.7727C4.57197 84.7727 4.12879 84.9053 3.875 85.1705C3.625 85.4356 3.5 85.8788 3.5 86.5V88.3182C3.5 88.8409 3.44886 89.2936 3.34659 89.6761C3.24811 90.0587 3.08523 90.375 2.85795 90.625C2.63068 90.875 2.32765 91.0606 1.94886 91.1818C1.57008 91.303 1.10227 91.3636 0.545455 91.3636V90.25C0.984849 90.25 1.32955 90.1799 1.57955 90.0398C1.83333 89.9034 2.01136 89.6932 2.11364 89.4091C2.2197 89.125 2.27273 88.7614 2.27273 88.3182V86.0455C2.27273 85.75 2.31061 85.4811 2.38636 85.2386C2.46591 84.9962 2.60985 84.7879 2.81818 84.6136C3.02652 84.4394 3.32197 84.3049 3.70455 84.2102C4.09091 84.1155 4.59091 84.0682 5.20455 84.0682ZM0.545455 76.8182C1.10227 76.8182 1.57008 76.8788 1.94886 77C2.32765 77.1212 2.63068 77.3068 2.85795 77.5568C3.08523 77.8068 3.24811 78.1231 3.34659 78.5057C3.44886 78.8883 3.5 79.3409 3.5 79.8636V81.6818C3.5 82.303 3.625 82.7462 3.875 83.0114C4.12879 83.2765 4.57197 83.4091 5.20455 83.4091V84.1136C4.59091 84.1136 4.09091 84.0663 3.70455 83.9716C3.32197 83.8769 3.02652 83.7424 2.81818 83.5682C2.60985 83.3939 2.46591 83.1856 2.38636 82.9432C2.31061 82.7008 2.27273 82.4318 2.27273 82.1364V79.8636C2.27273 79.4205 2.2197 79.0568 2.11364 78.7727C2.01136 78.4848 1.83333 78.2727 1.57955 78.1364C1.32955 78 0.984849 77.9318 0.545455 77.9318V76.8182ZM5.20455 83.4091V84.7727H3.86364V83.4091H5.20455Z" fill="white"/>
<path d="M0.772727 24V22.9773C0.772727 22.6667 0.827652 22.3371 0.9375 21.9886C1.05114 21.6364 1.21402 21.2973 1.42614 20.9716C1.64205 20.642 1.90152 20.3561 2.20455 20.1136L2.93182 20.7045C2.69318 21.0455 2.48485 21.4015 2.30682 21.7727C2.13258 22.1402 2.04545 22.5341 2.04545 22.9545V24H0.772727ZM3.68182 24V22.9773C3.68182 22.6667 3.73674 22.3371 3.84659 21.9886C3.96023 21.6364 4.12311 21.2973 4.33523 20.9716C4.55114 20.642 4.81061 20.3561 5.11364 20.1136L5.84091 20.7045C5.60227 21.0455 5.39394 21.4015 5.21591 21.7727C5.04167 22.1402 4.95455 22.5341 4.95455 22.9545V24H3.68182ZM8.66193 26.75V32H7.32102V23.2727H8.61648V24.6364H8.73011C8.93466 24.1932 9.24527 23.8371 9.66193 23.5682C10.0786 23.2955 10.6165 23.1591 11.2756 23.1591C11.8665 23.1591 12.3835 23.2803 12.8267 23.5227C13.2699 23.7614 13.6146 24.125 13.8608 24.6136C14.107 25.0985 14.2301 25.7121 14.2301 26.4545V32H12.8892V26.5455C12.8892 25.8598 12.7112 25.3258 12.3551 24.9432C11.9991 24.5568 11.5104 24.3636 10.8892 24.3636C10.4612 24.3636 10.0786 24.4564 9.74148 24.642C9.40814 24.8277 9.14489 25.0985 8.9517 25.4545C8.75852 25.8106 8.66193 26.2424 8.66193 26.75ZM20.2259 32.1818C19.438 32.1818 18.7467 31.9943 18.152 31.6193C17.5611 31.2443 17.099 30.7197 16.7656 30.0455C16.4361 29.3712 16.2713 28.5833 16.2713 27.6818C16.2713 26.7727 16.4361 25.9792 16.7656 25.3011C17.099 24.6231 17.5611 24.0966 18.152 23.7216C18.7467 23.3466 19.438 23.1591 20.2259 23.1591C21.0137 23.1591 21.7031 23.3466 22.294 23.7216C22.8887 24.0966 23.3509 24.6231 23.6804 25.3011C24.0137 25.9792 24.1804 26.7727 24.1804 27.6818C24.1804 28.5833 24.0137 29.3712 23.6804 30.0455C23.3509 30.7197 22.8887 31.2443 22.294 31.6193C21.7031 31.9943 21.0137 32.1818 20.2259 32.1818ZM20.2259 30.9773C20.8243 30.9773 21.3168 30.8239 21.7031 30.517C22.0895 30.2102 22.3755 29.8068 22.5611 29.3068C22.7467 28.8068 22.8395 28.2652 22.8395 27.6818C22.8395 27.0985 22.7467 26.5549 22.5611 26.0511C22.3755 25.5473 22.0895 25.1402 21.7031 24.8295C21.3168 24.5189 20.8243 24.3636 20.2259 24.3636C19.6274 24.3636 19.1349 24.5189 18.7486 24.8295C18.3622 25.1402 18.0762 25.5473 17.8906 26.0511C17.705 26.5549 17.6122 27.0985 17.6122 27.6818C17.6122 28.2652 17.705 28.8068 17.8906 29.3068C18.0762 29.8068 18.3622 30.2102 18.7486 30.517C19.1349 30.8239 19.6274 30.9773 20.2259 30.9773ZM26.2273 32V23.2727H27.5227V24.6364H27.6364C27.8182 24.1705 28.1117 23.8087 28.517 23.5511C28.9223 23.2898 29.4091 23.1591 29.9773 23.1591C30.553 23.1591 31.0322 23.2898 31.4148 23.5511C31.8011 23.8087 32.1023 24.1705 32.3182 24.6364H32.4091C32.6326 24.1856 32.9678 23.8277 33.4148 23.5625C33.8617 23.2936 34.3977 23.1591 35.0227 23.1591C35.803 23.1591 36.4413 23.4034 36.9375 23.892C37.4337 24.3769 37.6818 25.1326 37.6818 26.1591V32H36.3409V26.1591C36.3409 25.5152 36.1648 25.0549 35.8125 24.7784C35.4602 24.5019 35.0455 24.3636 34.5682 24.3636C33.9545 24.3636 33.4792 24.5492 33.142 24.9205C32.8049 25.2879 32.6364 25.7538 32.6364 26.3182V32H31.2727V26.0227C31.2727 25.5265 31.1117 25.1269 30.7898 24.8239C30.4678 24.517 30.053 24.3636 29.5455 24.3636C29.197 24.3636 28.8712 24.4564 28.5682 24.642C28.2689 24.8277 28.0265 25.0852 27.8409 25.4148C27.6591 25.7405 27.5682 26.1174 27.5682 26.5455V32H26.2273ZM43.7926 32.1818C42.9517 32.1818 42.2263 31.9962 41.6165 31.625C41.0104 31.25 40.5426 30.7273 40.2131 30.0568C39.8873 29.3826 39.7244 28.5985 39.7244 27.7045C39.7244 26.8106 39.8873 26.0227 40.2131 25.3409C40.5426 24.6553 41.0009 24.1212 41.5881 23.7386C42.179 23.3523 42.8684 23.1591 43.6562 23.1591C44.1108 23.1591 44.5597 23.2348 45.0028 23.3864C45.446 23.5379 45.8494 23.7841 46.2131 24.125C46.5767 24.4621 46.8665 24.9091 47.0824 25.4659C47.2983 26.0227 47.4062 26.7083 47.4062 27.5227V28.0909H40.679V26.9318H46.0426C46.0426 26.4394 45.9441 26 45.7472 25.6136C45.554 25.2273 45.2775 24.9223 44.9176 24.6989C44.5616 24.4754 44.1411 24.3636 43.6562 24.3636C43.1222 24.3636 42.66 24.4962 42.2699 24.7614C41.8835 25.0227 41.5862 25.3636 41.3778 25.7841C41.1695 26.2045 41.0653 26.6553 41.0653 27.1364V27.9091C41.0653 28.5682 41.179 29.1269 41.4062 29.5852C41.6373 30.0398 41.9574 30.3864 42.3665 30.625C42.7756 30.8598 43.2509 30.9773 43.7926 30.9773C44.1449 30.9773 44.4631 30.928 44.7472 30.8295C45.035 30.7273 45.2831 30.5758 45.4915 30.375C45.6998 30.1705 45.8608 29.9167 45.9744 29.6136L47.2699 29.9773C47.1335 30.4167 46.9044 30.803 46.5824 31.1364C46.2604 31.4659 45.8627 31.7235 45.3892 31.9091C44.9157 32.0909 44.3835 32.1818 43.7926 32.1818ZM50.6278 20.3636V21.3864C50.6278 21.697 50.571 22.0284 50.4574 22.3807C50.3475 22.7292 50.1847 23.0682 49.9688 23.3977C49.7566 23.7235 49.4991 24.0076 49.196 24.25L48.4688 23.6591C48.7074 23.3182 48.9138 22.964 49.0881 22.5966C49.2661 22.2254 49.3551 21.8295 49.3551 21.4091V20.3636H50.6278ZM53.5369 20.3636V21.3864C53.5369 21.697 53.4801 22.0284 53.3665 22.3807C53.2566 22.7292 53.0938 23.0682 52.8778 23.3977C52.6657 23.7235 52.4081 24.0076 52.1051 24.25L51.3778 23.6591C51.6165 23.3182 51.8229 22.964 51.9972 22.5966C52.1752 22.2254 52.2642 21.8295 52.2642 21.4091V20.3636H53.5369ZM0.772727 43V41.9773C0.772727 41.6667 0.827652 41.3371 0.9375 40.9886C1.05114 40.6364 1.21402 40.2973 1.42614 39.9716C1.64205 39.642 1.90152 39.3561 2.20455 39.1136L2.93182 39.7045C2.69318 40.0455 2.48485 40.4015 2.30682 40.7727C2.13258 41.1402 2.04545 41.5341 2.04545 41.9545V43H0.772727ZM3.68182 43V41.9773C3.68182 41.6667 3.73674 41.3371 3.84659 40.9886C3.96023 40.6364 4.12311 40.2973 4.33523 39.9716C4.55114 39.642 4.81061 39.3561 5.11364 39.1136L5.84091 39.7045C5.60227 40.0455 5.39394 40.4015 5.21591 40.7727C5.04167 41.1402 4.95455 41.5341 4.95455 41.9545V43H3.68182ZM10.8665 51.1818C10.0483 51.1818 9.34375 50.9886 8.75284 50.6023C8.16193 50.2159 7.70739 49.6837 7.3892 49.0057C7.07102 48.3277 6.91193 47.553 6.91193 46.6818C6.91193 45.7955 7.07481 45.0133 7.40057 44.3352C7.73011 43.6534 8.18845 43.1212 8.77557 42.7386C9.36648 42.3523 10.0559 42.1591 10.8438 42.1591C11.4574 42.1591 12.0104 42.2727 12.5028 42.5C12.9953 42.7273 13.3987 43.0455 13.7131 43.4545C14.0275 43.8636 14.2225 44.3409 14.2983 44.8864H12.9574C12.8551 44.4886 12.6278 44.1364 12.2756 43.8295C11.9271 43.5189 11.4574 43.3636 10.8665 43.3636C10.3438 43.3636 9.88542 43.5 9.49148 43.7727C9.10133 44.0417 8.7964 44.4223 8.5767 44.9148C8.3608 45.4034 8.25284 45.9773 8.25284 46.6364C8.25284 47.3106 8.3589 47.8977 8.57102 48.3977C8.78693 48.8977 9.08996 49.286 9.48011 49.5625C9.87405 49.839 10.3362 49.9773 10.8665 49.9773C11.215 49.9773 11.5312 49.9167 11.8153 49.7955C12.0994 49.6742 12.34 49.5 12.5369 49.2727C12.7339 49.0455 12.8741 48.7727 12.9574 48.4545H14.2983C14.2225 48.9697 14.035 49.4337 13.7358 49.8466C13.4403 50.2557 13.0483 50.5814 12.5597 50.8239C12.0748 51.0625 11.5104 51.1818 10.8665 51.1818ZM19.804 51.1818C19.0161 51.1818 18.3248 50.9943 17.7301 50.6193C17.1392 50.2443 16.6771 49.7197 16.3438 49.0455C16.0142 48.3712 15.8494 47.5833 15.8494 46.6818C15.8494 45.7727 16.0142 44.9792 16.3438 44.3011C16.6771 43.6231 17.1392 43.0966 17.7301 42.7216C18.3248 42.3466 19.0161 42.1591 19.804 42.1591C20.5919 42.1591 21.2813 42.3466 21.8722 42.7216C22.4669 43.0966 22.929 43.6231 23.2585 44.3011C23.5919 44.9792 23.7585 45.7727 23.7585 46.6818C23.7585 47.5833 23.5919 48.3712 23.2585 49.0455C22.929 49.7197 22.4669 50.2443 21.8722 50.6193C21.2813 50.9943 20.5919 51.1818 19.804 51.1818ZM19.804 49.9773C20.4025 49.9773 20.8949 49.8239 21.2812 49.517C21.6676 49.2102 21.9536 48.8068 22.1392 48.3068C22.3248 47.8068 22.4176 47.2652 22.4176 46.6818C22.4176 46.0985 22.3248 45.5549 22.1392 45.0511C21.9536 44.5473 21.6676 44.1402 21.2812 43.8295C20.8949 43.5189 20.4025 43.3636 19.804 43.3636C19.2055 43.3636 18.7131 43.5189 18.3267 43.8295C17.9403 44.1402 17.6544 44.5473 17.4688 45.0511C17.2831 45.5549 17.1903 46.0985 17.1903 46.6818C17.1903 47.2652 17.2831 47.8068 17.4688 48.3068C17.6544 48.8068 17.9403 49.2102 18.3267 49.517C18.7131 49.8239 19.2055 49.9773 19.804 49.9773ZM27.1463 45.75V51H25.8054V42.2727H27.1009V43.6364H27.2145C27.419 43.1932 27.7296 42.8371 28.1463 42.5682C28.563 42.2955 29.1009 42.1591 29.7599 42.1591C30.3509 42.1591 30.8679 42.2803 31.3111 42.5227C31.7543 42.7614 32.099 43.125 32.3452 43.6136C32.5914 44.0985 32.7145 44.7121 32.7145 45.4545V51H31.3736V45.5455C31.3736 44.8598 31.1955 44.3258 30.8395 43.9432C30.4834 43.5568 29.9948 43.3636 29.3736 43.3636C28.9455 43.3636 28.563 43.4564 28.2259 43.642C27.8925 43.8277 27.6293 44.0985 27.4361 44.4545C27.2429 44.8106 27.1463 45.2424 27.1463 45.75ZM38.9602 42.2727V43.4091H34.4375V42.2727H38.9602ZM35.7557 40.1818H37.0966V48.5C37.0966 48.8788 37.1515 49.1629 37.2614 49.3523C37.375 49.5379 37.5189 49.6629 37.6932 49.7273C37.8712 49.7879 38.0587 49.8182 38.2557 49.8182C38.4034 49.8182 38.5246 49.8106 38.6193 49.7955C38.714 49.7765 38.7898 49.7614 38.8466 49.75L39.1193 50.9545C39.0284 50.9886 38.9015 51.0227 38.7386 51.0568C38.5758 51.0947 38.3693 51.1136 38.1193 51.1136C37.7405 51.1136 37.3693 51.0322 37.0057 50.8693C36.6458 50.7064 36.3466 50.4583 36.108 50.125C35.8731 49.7917 35.7557 49.3712 35.7557 48.8636V40.1818ZM43.5455 51.2045C42.9924 51.2045 42.4905 51.1004 42.0398 50.892C41.589 50.6799 41.2311 50.375 40.9659 49.9773C40.7008 49.5758 40.5682 49.0909 40.5682 48.5227C40.5682 48.0227 40.6667 47.6174 40.8636 47.3068C41.0606 46.9924 41.3239 46.7462 41.6534 46.5682C41.983 46.3902 42.3466 46.2576 42.7443 46.1705C43.1458 46.0795 43.5492 46.0076 43.9545 45.9545C44.4848 45.8864 44.9148 45.8352 45.2443 45.8011C45.5777 45.7633 45.8201 45.7008 45.9716 45.6136C46.1269 45.5265 46.2045 45.375 46.2045 45.1591V45.1136C46.2045 44.553 46.0511 44.1174 45.7443 43.8068C45.4413 43.4962 44.9811 43.3409 44.3636 43.3409C43.7235 43.3409 43.2216 43.4811 42.858 43.7614C42.4943 44.0417 42.2386 44.3409 42.0909 44.6591L40.8182 44.2045C41.0455 43.6742 41.3485 43.2614 41.7273 42.9659C42.1098 42.6667 42.5265 42.4583 42.9773 42.3409C43.4318 42.2197 43.8788 42.1591 44.3182 42.1591C44.5985 42.1591 44.9205 42.1932 45.2841 42.2614C45.6515 42.3258 46.0057 42.4602 46.3466 42.6648C46.6913 42.8693 46.9773 43.178 47.2045 43.5909C47.4318 44.0038 47.5455 44.5568 47.5455 45.25V51H46.2045V49.8182H46.1364C46.0455 50.0076 45.8939 50.2102 45.6818 50.4261C45.4697 50.642 45.1875 50.8258 44.8352 50.9773C44.483 51.1288 44.053 51.2045 43.5455 51.2045ZM43.75 50C44.2803 50 44.7273 49.8958 45.0909 49.6875C45.4583 49.4792 45.7348 49.2102 45.9205 48.8807C46.1098 48.5511 46.2045 48.2045 46.2045 47.8409V46.6136C46.1477 46.6818 46.0227 46.7443 45.8295 46.8011C45.6402 46.8542 45.4205 46.9015 45.1705 46.9432C44.9242 46.9811 44.6837 47.0152 44.4489 47.0455C44.2178 47.072 44.0303 47.0947 43.8864 47.1136C43.5379 47.1591 43.2121 47.233 42.9091 47.3352C42.6098 47.4337 42.3674 47.5833 42.1818 47.7841C42 47.9811 41.9091 48.25 41.9091 48.5909C41.9091 49.0568 42.0814 49.4091 42.4261 49.6477C42.7746 49.8826 43.2159 50 43.75 50ZM53.7884 42.2727V43.4091H49.2656V42.2727H53.7884ZM50.5838 40.1818H51.9247V48.5C51.9247 48.8788 51.9796 49.1629 52.0895 49.3523C52.2031 49.5379 52.3471 49.6629 52.5213 49.7273C52.6993 49.7879 52.8868 49.8182 53.0838 49.8182C53.2315 49.8182 53.3527 49.8106 53.4474 49.7955C53.5421 49.7765 53.6179 49.7614 53.6747 49.75L53.9474 50.9545C53.8565 50.9886 53.7296 51.0227 53.5668 51.0568C53.4039 51.0947 53.1974 51.1136 52.9474 51.1136C52.5687 51.1136 52.1974 51.0322 51.8338 50.8693C51.474 50.7064 51.1747 50.4583 50.9361 50.125C50.7012 49.7917 50.5838 49.3712 50.5838 48.8636V40.1818ZM59.2571 51.1818C58.4692 51.1818 57.7779 50.9943 57.1832 50.6193C56.5923 50.2443 56.1302 49.7197 55.7969 49.0455C55.4673 48.3712 55.3026 47.5833 55.3026 46.6818C55.3026 45.7727 55.4673 44.9792 55.7969 44.3011C56.1302 43.6231 56.5923 43.0966 57.1832 42.7216C57.7779 42.3466 58.4692 42.1591 59.2571 42.1591C60.045 42.1591 60.7344 42.3466 61.3253 42.7216C61.92 43.0966 62.3821 43.6231 62.7116 44.3011C63.045 44.9792 63.2116 45.7727 63.2116 46.6818C63.2116 47.5833 63.045 48.3712 62.7116 49.0455C62.3821 49.7197 61.92 50.2443 61.3253 50.6193C60.7344 50.9943 60.045 51.1818 59.2571 51.1818ZM59.2571 49.9773C59.8556 49.9773 60.348 49.8239 60.7344 49.517C61.1207 49.2102 61.4067 48.8068 61.5923 48.3068C61.7779 47.8068 61.8707 47.2652 61.8707 46.6818C61.8707 46.0985 61.7779 45.5549 61.5923 45.0511C61.4067 44.5473 61.1207 44.1402 60.7344 43.8295C60.348 43.5189 59.8556 43.3636 59.2571 43.3636C58.6586 43.3636 58.1662 43.5189 57.7798 43.8295C57.3935 44.1402 57.1075 44.5473 56.9219 45.0511C56.7363 45.5549 56.6435 46.0985 56.6435 46.6818C56.6435 47.2652 56.7363 47.8068 56.9219 48.3068C57.1075 48.8068 57.3935 49.2102 57.7798 49.517C58.1662 49.8239 58.6586 49.9773 59.2571 49.9773ZM66.4403 39.3636V40.3864C66.4403 40.697 66.3835 41.0284 66.2699 41.3807C66.16 41.7292 65.9972 42.0682 65.7812 42.3977C65.5691 42.7235 65.3116 43.0076 65.0085 43.25L64.2812 42.6591C64.5199 42.3182 64.7263 41.964 64.9006 41.5966C65.0786 41.2254 65.1676 40.8295 65.1676 40.4091V39.3636H66.4403ZM69.3494 39.3636V40.3864C69.3494 40.697 69.2926 41.0284 69.179 41.3807C69.0691 41.7292 68.9062 42.0682 68.6903 42.3977C68.4782 42.7235 68.2206 43.0076 67.9176 43.25L67.1903 42.6591C67.429 42.3182 67.6354 41.964 67.8097 41.5966C67.9877 41.2254 68.0767 40.8295 68.0767 40.4091V39.3636H69.3494ZM0.772727 62V60.9773C0.772727 60.6667 0.827652 60.3371 0.9375 59.9886C1.05114 59.6364 1.21402 59.2973 1.42614 58.9716C1.64205 58.642 1.90152 58.3561 2.20455 58.1136L2.93182 58.7045C2.69318 59.0455 2.48485 59.4015 2.30682 59.7727C2.13258 60.1402 2.04545 60.5341 2.04545 60.9545V62H0.772727ZM3.68182 62V60.9773C3.68182 60.6667 3.73674 60.3371 3.84659 59.9886C3.96023 59.6364 4.12311 59.2973 4.33523 58.9716C4.55114 58.642 4.81061 58.3561 5.11364 58.1136L5.84091 58.7045C5.60227 59.0455 5.39394 59.4015 5.21591 59.7727C5.04167 60.1402 4.95455 60.5341 4.95455 60.9545V62H3.68182ZM10.6165 70.1818C9.8892 70.1818 9.24716 69.9981 8.69034 69.6307C8.13352 69.2595 7.69792 68.7367 7.38352 68.0625C7.06913 67.3845 6.91193 66.5833 6.91193 65.6591C6.91193 64.7424 7.06913 63.947 7.38352 63.2727C7.69792 62.5985 8.13542 62.0777 8.69602 61.7102C9.25663 61.3428 9.90436 61.1591 10.6392 61.1591C11.2074 61.1591 11.6563 61.2538 11.9858 61.4432C12.3191 61.6288 12.5729 61.8409 12.7472 62.0795C12.9252 62.3144 13.0634 62.5076 13.1619 62.6591H13.2756V58.3636H14.6165V70H13.321V68.6591H13.1619C13.0634 68.8182 12.9233 69.0189 12.7415 69.2614C12.5597 69.5 12.3002 69.714 11.9631 69.9034C11.6259 70.089 11.1771 70.1818 10.6165 70.1818ZM10.7983 68.9773C11.3362 68.9773 11.7907 68.8371 12.1619 68.5568C12.5331 68.2727 12.8153 67.8807 13.0085 67.3807C13.2017 66.8769 13.2983 66.2955 13.2983 65.6364C13.2983 64.9848 13.2036 64.4148 13.0142 63.9261C12.8248 63.4337 12.5445 63.0511 12.1733 62.7784C11.8021 62.5019 11.3438 62.3636 10.7983 62.3636C10.2301 62.3636 9.75663 62.5095 9.37784 62.8011C9.00284 63.089 8.72064 63.4811 8.53125 63.9773C8.34564 64.4697 8.25284 65.0227 8.25284 65.6364C8.25284 66.2576 8.34754 66.822 8.53693 67.3295C8.73011 67.8333 9.0142 68.2348 9.3892 68.5341C9.76799 68.8295 10.2377 68.9773 10.7983 68.9773ZM17.2585 70V61.2727H18.5994V70H17.2585ZM17.9403 59.8182C17.679 59.8182 17.4536 59.7292 17.2642 59.5511C17.0786 59.3731 16.9858 59.1591 16.9858 58.9091C16.9858 58.6591 17.0786 58.4451 17.2642 58.267C17.4536 58.089 17.679 58 17.9403 58C18.2017 58 18.4252 58.089 18.6108 58.267C18.8002 58.4451 18.8949 58.6591 18.8949 58.9091C18.8949 59.1591 18.8002 59.3731 18.6108 59.5511C18.4252 59.7292 18.2017 59.8182 17.9403 59.8182ZM27.2372 63.2273L26.0327 63.5682C25.9569 63.3674 25.8452 63.1723 25.6974 62.983C25.5535 62.7898 25.3565 62.6307 25.1065 62.5057C24.8565 62.3807 24.5365 62.3182 24.1463 62.3182C23.6122 62.3182 23.1671 62.4413 22.8111 62.6875C22.4588 62.9299 22.2827 63.2386 22.2827 63.6136C22.2827 63.947 22.4039 64.2102 22.6463 64.4034C22.8887 64.5966 23.2675 64.7576 23.7827 64.8864L25.0781 65.2045C25.8584 65.3939 26.4399 65.6837 26.8224 66.0739C27.205 66.4602 27.3963 66.9583 27.3963 67.5682C27.3963 68.0682 27.2524 68.5152 26.9645 68.9091C26.6804 69.303 26.2827 69.6136 25.7713 69.8409C25.2599 70.0682 24.6652 70.1818 23.9872 70.1818C23.0971 70.1818 22.3603 69.9886 21.777 69.6023C21.1937 69.2159 20.8243 68.6515 20.669 67.9091L21.9418 67.5909C22.063 68.0606 22.2921 68.4129 22.6293 68.6477C22.9702 68.8826 23.4152 69 23.9645 69C24.5895 69 25.0857 68.8674 25.4531 68.6023C25.8243 68.3333 26.0099 68.0114 26.0099 67.6364C26.0099 67.3333 25.9039 67.0795 25.6918 66.875C25.4796 66.6667 25.1539 66.5114 24.7145 66.4091L23.2599 66.0682C22.4607 65.8788 21.8736 65.5852 21.4986 65.1875C21.1274 64.786 20.9418 64.2841 20.9418 63.6818C20.9418 63.1894 21.08 62.7538 21.3565 62.375C21.6368 61.9962 22.0175 61.6989 22.4986 61.483C22.9834 61.267 23.5327 61.1591 24.1463 61.1591C25.0099 61.1591 25.688 61.3485 26.1804 61.7273C26.6766 62.1061 27.0289 62.6061 27.2372 63.2273ZM29.4148 73.2727V61.2727H30.7102V62.6591H30.8693C30.9678 62.5076 31.1042 62.3144 31.2784 62.0795C31.4564 61.8409 31.7102 61.6288 32.0398 61.4432C32.3731 61.2538 32.8239 61.1591 33.392 61.1591C34.1269 61.1591 34.7746 61.3428 35.3352 61.7102C35.8958 62.0777 36.3333 62.5985 36.6477 63.2727C36.9621 63.947 37.1193 64.7424 37.1193 65.6591C37.1193 66.5833 36.9621 67.3845 36.6477 68.0625C36.3333 68.7367 35.8977 69.2595 35.3409 69.6307C34.7841 69.9981 34.142 70.1818 33.4148 70.1818C32.8542 70.1818 32.4053 70.089 32.0682 69.9034C31.7311 69.714 31.4716 69.5 31.2898 69.2614C31.108 69.0189 30.9678 68.8182 30.8693 68.6591H30.7557V73.2727H29.4148ZM30.733 65.6364C30.733 66.2955 30.8295 66.8769 31.0227 67.3807C31.2159 67.8807 31.4981 68.2727 31.8693 68.5568C32.2405 68.8371 32.6951 68.9773 33.233 68.9773C33.7936 68.9773 34.2614 68.8295 34.6364 68.5341C35.0152 68.2348 35.2992 67.8333 35.4886 67.3295C35.6818 66.822 35.7784 66.2576 35.7784 65.6364C35.7784 65.0227 35.6837 64.4697 35.4943 63.9773C35.3087 63.4811 35.0265 63.089 34.6477 62.8011C34.2727 62.5095 33.8011 62.3636 33.233 62.3636C32.6875 62.3636 32.2292 62.5019 31.858 62.7784C31.4867 63.0511 31.2064 63.4337 31.017 63.9261C30.8277 64.4148 30.733 64.9848 30.733 65.6364ZM42.7102 70.1818C41.9223 70.1818 41.2311 69.9943 40.6364 69.6193C40.0455 69.2443 39.5833 68.7197 39.25 68.0455C38.9205 67.3712 38.7557 66.5833 38.7557 65.6818C38.7557 64.7727 38.9205 63.9792 39.25 63.3011C39.5833 62.6231 40.0455 62.0966 40.6364 61.7216C41.2311 61.3466 41.9223 61.1591 42.7102 61.1591C43.4981 61.1591 44.1875 61.3466 44.7784 61.7216C45.3731 62.0966 45.8352 62.6231 46.1648 63.3011C46.4981 63.9792 46.6648 64.7727 46.6648 65.6818C46.6648 66.5833 46.4981 67.3712 46.1648 68.0455C45.8352 68.7197 45.3731 69.2443 44.7784 69.6193C44.1875 69.9943 43.4981 70.1818 42.7102 70.1818ZM42.7102 68.9773C43.3087 68.9773 43.8011 68.8239 44.1875 68.517C44.5739 68.2102 44.8598 67.8068 45.0455 67.3068C45.2311 66.8068 45.3239 66.2652 45.3239 65.6818C45.3239 65.0985 45.2311 64.5549 45.0455 64.0511C44.8598 63.5473 44.5739 63.1402 44.1875 62.8295C43.8011 62.5189 43.3087 62.3636 42.7102 62.3636C42.1117 62.3636 41.6193 62.5189 41.233 62.8295C40.8466 63.1402 40.5606 63.5473 40.375 64.0511C40.1894 64.5549 40.0966 65.0985 40.0966 65.6818C40.0966 66.2652 40.1894 66.8068 40.375 67.3068C40.5606 67.8068 40.8466 68.2102 41.233 68.517C41.6193 68.8239 42.1117 68.9773 42.7102 68.9773ZM50.0526 64.75V70H48.7116V61.2727H50.0071V62.6364H50.1207C50.3253 62.1932 50.6359 61.8371 51.0526 61.5682C51.4692 61.2955 52.0071 61.1591 52.6662 61.1591C53.2571 61.1591 53.7741 61.2803 54.2173 61.5227C54.6605 61.7614 55.0052 62.125 55.2514 62.6136C55.4976 63.0985 55.6207 63.7121 55.6207 64.4545V70H54.2798V64.5455C54.2798 63.8598 54.1018 63.3258 53.7457 62.9432C53.3897 62.5568 52.901 62.3636 52.2798 62.3636C51.8518 62.3636 51.4692 62.4564 51.1321 62.642C50.7988 62.8277 50.5355 63.0985 50.3423 63.4545C50.1491 63.8106 50.0526 64.2424 50.0526 64.75ZM58.071 70V61.2727H59.4119V70H58.071ZM58.7528 59.8182C58.4915 59.8182 58.2661 59.7292 58.0767 59.5511C57.8911 59.3731 57.7983 59.1591 57.7983 58.9091C57.7983 58.6591 57.8911 58.4451 58.0767 58.267C58.2661 58.089 58.4915 58 58.7528 58C59.0142 58 59.2377 58.089 59.4233 58.267C59.6127 58.4451 59.7074 58.6591 59.7074 58.9091C59.7074 59.1591 59.6127 59.3731 59.4233 59.5511C59.2377 59.7292 59.0142 59.8182 58.7528 59.8182ZM69.0043 61.2727L65.777 70H64.4134L61.1861 61.2727H62.6406L65.0497 68.2273H65.1406L67.5497 61.2727H69.0043ZM74.1207 70.1818C73.2798 70.1818 72.5545 69.9962 71.9446 69.625C71.3385 69.25 70.8707 68.7273 70.5412 68.0568C70.2154 67.3826 70.0526 66.5985 70.0526 65.7045C70.0526 64.8106 70.2154 64.0227 70.5412 63.3409C70.8707 62.6553 71.3291 62.1212 71.9162 61.7386C72.5071 61.3523 73.1965 61.1591 73.9844 61.1591C74.4389 61.1591 74.8878 61.2348 75.331 61.3864C75.7741 61.5379 76.1776 61.7841 76.5412 62.125C76.9048 62.4621 77.1946 62.9091 77.4105 63.4659C77.6264 64.0227 77.7344 64.7083 77.7344 65.5227V66.0909H71.0071V64.9318H76.3707C76.3707 64.4394 76.2723 64 76.0753 63.6136C75.8821 63.2273 75.6056 62.9223 75.2457 62.6989C74.8897 62.4754 74.4692 62.3636 73.9844 62.3636C73.4503 62.3636 72.9882 62.4962 72.598 62.7614C72.2116 63.0227 71.9143 63.3636 71.706 63.7841C71.4976 64.2045 71.3935 64.6553 71.3935 65.1364V65.9091C71.3935 66.5682 71.5071 67.1269 71.7344 67.5852C71.9654 68.0398 72.2855 68.3864 72.6946 68.625C73.1037 68.8598 73.5791 68.9773 74.1207 68.9773C74.473 68.9773 74.7912 68.928 75.0753 68.8295C75.3632 68.7273 75.6113 68.5758 75.8196 68.375C76.0279 68.1705 76.1889 67.9167 76.3026 67.6136L77.598 67.9773C77.4616 68.4167 77.2325 68.803 76.9105 69.1364C76.5885 69.4659 76.1908 69.7235 75.7173 69.9091C75.2438 70.0909 74.7116 70.1818 74.1207 70.1818ZM81.1151 58.3636V70H79.7741V58.3636H81.1151ZM83.7528 70V58.3636H87.6847C88.5975 58.3636 89.3438 58.5284 89.9233 58.858C90.5066 59.1837 90.9384 59.625 91.2188 60.1818C91.4991 60.7386 91.6392 61.3598 91.6392 62.0455C91.6392 62.7311 91.4991 63.3542 91.2188 63.9148C90.9422 64.4754 90.5142 64.9223 89.9347 65.2557C89.3551 65.5852 88.6127 65.75 87.7074 65.75H84.8892V64.5H87.6619C88.2869 64.5 88.7888 64.392 89.1676 64.1761C89.5464 63.9602 89.821 63.6686 89.9915 63.3011C90.1657 62.9299 90.2528 62.5114 90.2528 62.0455C90.2528 61.5795 90.1657 61.1629 89.9915 60.7955C89.821 60.428 89.5445 60.1402 89.1619 59.9318C88.7794 59.7197 88.2718 59.6136 87.6392 59.6136H85.1619V70H83.7528ZM96.2955 70.2045C95.7424 70.2045 95.2405 70.1004 94.7898 69.892C94.339 69.6799 93.9811 69.375 93.7159 68.9773C93.4508 68.5758 93.3182 68.0909 93.3182 67.5227C93.3182 67.0227 93.4167 66.6174 93.6136 66.3068C93.8106 65.9924 94.0739 65.7462 94.4034 65.5682C94.733 65.3902 95.0966 65.2576 95.4943 65.1705C95.8958 65.0795 96.2992 65.0076 96.7045 64.9545C97.2348 64.8864 97.6648 64.8352 97.9943 64.8011C98.3277 64.7633 98.5701 64.7008 98.7216 64.6136C98.8769 64.5265 98.9545 64.375 98.9545 64.1591V64.1136C98.9545 63.553 98.8011 63.1174 98.4943 62.8068C98.1913 62.4962 97.7311 62.3409 97.1136 62.3409C96.4735 62.3409 95.9716 62.4811 95.608 62.7614C95.2443 63.0417 94.9886 63.3409 94.8409 63.6591L93.5682 63.2045C93.7955 62.6742 94.0985 62.2614 94.4773 61.9659C94.8598 61.6667 95.2765 61.4583 95.7273 61.3409C96.1818 61.2197 96.6288 61.1591 97.0682 61.1591C97.3485 61.1591 97.6705 61.1932 98.0341 61.2614C98.4015 61.3258 98.7557 61.4602 99.0966 61.6648C99.4413 61.8693 99.7273 62.178 99.9545 62.5909C100.182 63.0038 100.295 63.5568 100.295 64.25V70H98.9545V68.8182H98.8864C98.7955 69.0076 98.6439 69.2102 98.4318 69.4261C98.2197 69.642 97.9375 69.8258 97.5852 69.9773C97.233 70.1288 96.803 70.2045 96.2955 70.2045ZM96.5 69C97.0303 69 97.4773 68.8958 97.8409 68.6875C98.2083 68.4792 98.4848 68.2102 98.6705 67.8807C98.8598 67.5511 98.9545 67.2045 98.9545 66.8409V65.6136C98.8977 65.6818 98.7727 65.7443 98.5795 65.8011C98.3902 65.8542 98.1705 65.9015 97.9205 65.9432C97.6742 65.9811 97.4337 66.0152 97.1989 66.0455C96.9678 66.072 96.7803 66.0947 96.6364 66.1136C96.2879 66.1591 95.9621 66.233 95.6591 66.3352C95.3598 66.4337 95.1174 66.5833 94.9318 66.7841C94.75 66.9811 94.6591 67.25 94.6591 67.5909C94.6591 68.0568 94.8314 68.4091 95.1761 68.6477C95.5246 68.8826 95.9659 69 96.5 69ZM102.743 70V61.2727H104.038V62.5909H104.129C104.288 62.1591 104.576 61.8087 104.993 61.5398C105.41 61.2708 105.879 61.1364 106.402 61.1364C106.5 61.1364 106.624 61.1383 106.771 61.142C106.919 61.1458 107.031 61.1515 107.107 61.1591V62.5227C107.061 62.5114 106.957 62.4943 106.794 62.4716C106.635 62.4451 106.466 62.4318 106.288 62.4318C105.864 62.4318 105.485 62.5208 105.152 62.6989C104.822 62.8731 104.561 63.1155 104.368 63.4261C104.179 63.733 104.084 64.0833 104.084 64.4773V70H102.743ZM111.264 70.2045C110.711 70.2045 110.209 70.1004 109.759 69.892C109.308 69.6799 108.95 69.375 108.685 68.9773C108.42 68.5758 108.287 68.0909 108.287 67.5227C108.287 67.0227 108.385 66.6174 108.582 66.3068C108.779 65.9924 109.043 65.7462 109.372 65.5682C109.702 65.3902 110.065 65.2576 110.463 65.1705C110.865 65.0795 111.268 65.0076 111.673 64.9545C112.204 64.8864 112.634 64.8352 112.963 64.8011C113.296 64.7633 113.539 64.7008 113.69 64.6136C113.846 64.5265 113.923 64.375 113.923 64.1591V64.1136C113.923 63.553 113.77 63.1174 113.463 62.8068C113.16 62.4962 112.7 62.3409 112.082 62.3409C111.442 62.3409 110.94 62.4811 110.577 62.7614C110.213 63.0417 109.957 63.3409 109.81 63.6591L108.537 63.2045C108.764 62.6742 109.067 62.2614 109.446 61.9659C109.829 61.6667 110.245 61.4583 110.696 61.3409C111.151 61.2197 111.598 61.1591 112.037 61.1591C112.317 61.1591 112.639 61.1932 113.003 61.2614C113.37 61.3258 113.724 61.4602 114.065 61.6648C114.41 61.8693 114.696 62.178 114.923 62.5909C115.151 63.0038 115.264 63.5568 115.264 64.25V70H113.923V68.8182H113.855C113.764 69.0076 113.613 69.2102 113.401 69.4261C113.188 69.642 112.906 69.8258 112.554 69.9773C112.202 70.1288 111.772 70.2045 111.264 70.2045ZM111.469 69C111.999 69 112.446 68.8958 112.81 68.6875C113.177 68.4792 113.454 68.2102 113.639 67.8807C113.829 67.5511 113.923 67.2045 113.923 66.8409V65.6136C113.866 65.6818 113.741 65.7443 113.548 65.8011C113.359 65.8542 113.139 65.9015 112.889 65.9432C112.643 65.9811 112.402 66.0152 112.168 66.0455C111.937 66.072 111.749 66.0947 111.605 66.1136C111.257 66.1591 110.931 66.233 110.628 66.3352C110.329 66.4337 110.086 66.5833 109.901 66.7841C109.719 66.9811 109.628 67.25 109.628 67.5909C109.628 68.0568 109.8 68.4091 110.145 68.6477C110.493 68.8826 110.935 69 111.469 69ZM116.523 59.6136V58.3636H125.25V59.6136H121.591V70H120.182V59.6136H116.523ZM126.337 70V61.2727H127.632V62.5909H127.723C127.882 62.1591 128.17 61.8087 128.587 61.5398C129.003 61.2708 129.473 61.1364 129.996 61.1364C130.094 61.1364 130.217 61.1383 130.365 61.142C130.513 61.1458 130.625 61.1515 130.7 61.1591V62.5227C130.655 62.5114 130.551 62.4943 130.388 62.4716C130.229 62.4451 130.06 62.4318 129.882 62.4318C129.458 62.4318 129.079 62.5208 128.746 62.6989C128.416 62.8731 128.155 63.1155 127.962 63.4261C127.772 63.733 127.678 64.0833 127.678 64.4773V70H126.337ZM134.858 70.2045C134.305 70.2045 133.803 70.1004 133.352 69.892C132.902 69.6799 132.544 69.375 132.278 68.9773C132.013 68.5758 131.881 68.0909 131.881 67.5227C131.881 67.0227 131.979 66.6174 132.176 66.3068C132.373 65.9924 132.636 65.7462 132.966 65.5682C133.295 65.3902 133.659 65.2576 134.057 65.1705C134.458 65.0795 134.862 65.0076 135.267 64.9545C135.797 64.8864 136.227 64.8352 136.557 64.8011C136.89 64.7633 137.133 64.7008 137.284 64.6136C137.439 64.5265 137.517 64.375 137.517 64.1591V64.1136C137.517 63.553 137.364 63.1174 137.057 62.8068C136.754 62.4962 136.294 62.3409 135.676 62.3409C135.036 62.3409 134.534 62.4811 134.17 62.7614C133.807 63.0417 133.551 63.3409 133.403 63.6591L132.131 63.2045C132.358 62.6742 132.661 62.2614 133.04 61.9659C133.422 61.6667 133.839 61.4583 134.29 61.3409C134.744 61.2197 135.191 61.1591 135.631 61.1591C135.911 61.1591 136.233 61.1932 136.597 61.2614C136.964 61.3258 137.318 61.4602 137.659 61.6648C138.004 61.8693 138.29 62.178 138.517 62.5909C138.744 63.0038 138.858 63.5568 138.858 64.25V70H137.517V68.8182H137.449C137.358 69.0076 137.206 69.2102 136.994 69.4261C136.782 69.642 136.5 69.8258 136.148 69.9773C135.795 70.1288 135.366 70.2045 134.858 70.2045ZM135.062 69C135.593 69 136.04 68.8958 136.403 68.6875C136.771 68.4792 137.047 68.2102 137.233 67.8807C137.422 67.5511 137.517 67.2045 137.517 66.8409V65.6136C137.46 65.6818 137.335 65.7443 137.142 65.8011C136.953 65.8542 136.733 65.9015 136.483 65.9432C136.237 65.9811 135.996 66.0152 135.761 66.0455C135.53 66.072 135.343 66.0947 135.199 66.1136C134.85 66.1591 134.525 66.233 134.222 66.3352C133.922 66.4337 133.68 66.5833 133.494 66.7841C133.313 66.9811 133.222 67.25 133.222 67.5909C133.222 68.0568 133.394 68.4091 133.739 68.6477C134.087 68.8826 134.528 69 135.062 69ZM141.487 70V58.3636H142.828V62.6591H142.942C143.04 62.5076 143.177 62.3144 143.351 62.0795C143.529 61.8409 143.783 61.6288 144.112 61.4432C144.446 61.2538 144.896 61.1591 145.464 61.1591C146.199 61.1591 146.847 61.3428 147.408 61.7102C147.968 62.0777 148.406 62.5985 148.72 63.2727C149.035 63.947 149.192 64.7424 149.192 65.6591C149.192 66.5833 149.035 67.3845 148.72 68.0625C148.406 68.7367 147.97 69.2595 147.413 69.6307C146.857 69.9981 146.214 70.1818 145.487 70.1818C144.927 70.1818 144.478 70.089 144.141 69.9034C143.804 69.714 143.544 69.5 143.362 69.2614C143.18 69.0189 143.04 68.8182 142.942 68.6591H142.783V70H141.487ZM142.805 65.6364C142.805 66.2955 142.902 66.8769 143.095 67.3807C143.288 67.8807 143.571 68.2727 143.942 68.5568C144.313 68.8371 144.768 68.9773 145.305 68.9773C145.866 68.9773 146.334 68.8295 146.709 68.5341C147.088 68.2348 147.372 67.8333 147.561 67.3295C147.754 66.822 147.851 66.2576 147.851 65.6364C147.851 65.0227 147.756 64.4697 147.567 63.9773C147.381 63.4811 147.099 63.089 146.72 62.8011C146.345 62.5095 145.874 62.3636 145.305 62.3636C144.76 62.3636 144.302 62.5019 143.93 62.7784C143.559 63.0511 143.279 63.4337 143.089 63.9261C142.9 64.4148 142.805 64.9848 142.805 65.6364ZM153.811 70.2045C153.258 70.2045 152.756 70.1004 152.305 69.892C151.855 69.6799 151.497 69.375 151.232 68.9773C150.966 68.5758 150.834 68.0909 150.834 67.5227C150.834 67.0227 150.932 66.6174 151.129 66.3068C151.326 65.9924 151.589 65.7462 151.919 65.5682C152.249 65.3902 152.612 65.2576 153.01 65.1705C153.411 65.0795 153.815 65.0076 154.22 64.9545C154.75 64.8864 155.18 64.8352 155.51 64.8011C155.843 64.7633 156.086 64.7008 156.237 64.6136C156.393 64.5265 156.47 64.375 156.47 64.1591V64.1136C156.47 63.553 156.317 63.1174 156.01 62.8068C155.707 62.4962 155.247 62.3409 154.629 62.3409C153.989 62.3409 153.487 62.4811 153.124 62.7614C152.76 63.0417 152.504 63.3409 152.357 63.6591L151.084 63.2045C151.311 62.6742 151.614 62.2614 151.993 61.9659C152.375 61.6667 152.792 61.4583 153.243 61.3409C153.697 61.2197 154.144 61.1591 154.584 61.1591C154.864 61.1591 155.186 61.1932 155.55 61.2614C155.917 61.3258 156.271 61.4602 156.612 61.6648C156.957 61.8693 157.243 62.178 157.47 62.5909C157.697 63.0038 157.811 63.5568 157.811 64.25V70H156.47V68.8182H156.402C156.311 69.0076 156.16 69.2102 155.947 69.4261C155.735 69.642 155.453 69.8258 155.101 69.9773C154.749 70.1288 154.319 70.2045 153.811 70.2045ZM154.016 69C154.546 69 154.993 68.8958 155.357 68.6875C155.724 68.4792 156 68.2102 156.186 67.8807C156.375 67.5511 156.47 67.2045 156.47 66.8409V65.6136C156.413 65.6818 156.288 65.7443 156.095 65.8011C155.906 65.8542 155.686 65.9015 155.436 65.9432C155.19 65.9811 154.949 66.0152 154.714 66.0455C154.483 66.072 154.296 66.0947 154.152 66.1136C153.804 66.1591 153.478 66.233 153.175 66.3352C152.875 66.4337 152.633 66.5833 152.447 66.7841C152.266 66.9811 152.175 67.25 152.175 67.5909C152.175 68.0568 152.347 68.4091 152.692 68.6477C153.04 68.8826 153.482 69 154.016 69ZM161.599 58.3636V70H160.259V58.3636H161.599ZM165.396 64.75V70H164.055V58.3636H165.396V62.6364H165.51C165.714 62.1856 166.021 61.8277 166.43 61.5625C166.843 61.2936 167.393 61.1591 168.078 61.1591C168.673 61.1591 169.194 61.2784 169.641 61.517C170.088 61.7519 170.434 62.1136 170.68 62.6023C170.93 63.0871 171.055 63.7045 171.055 64.4545V70H169.714V64.5455C169.714 63.8523 169.535 63.3163 169.175 62.9375C168.819 62.5549 168.324 62.3636 167.692 62.3636C167.252 62.3636 166.858 62.4564 166.51 62.642C166.165 62.8277 165.893 63.0985 165.692 63.4545C165.495 63.8106 165.396 64.2424 165.396 64.75ZM177.054 70.1818C176.266 70.1818 175.575 69.9943 174.98 69.6193C174.389 69.2443 173.927 68.7197 173.594 68.0455C173.264 67.3712 173.099 66.5833 173.099 65.6818C173.099 64.7727 173.264 63.9792 173.594 63.3011C173.927 62.6231 174.389 62.0966 174.98 61.7216C175.575 61.3466 176.266 61.1591 177.054 61.1591C177.842 61.1591 178.531 61.3466 179.122 61.7216C179.717 62.0966 180.179 62.6231 180.509 63.3011C180.842 63.9792 181.009 64.7727 181.009 65.6818C181.009 66.5833 180.842 67.3712 180.509 68.0455C180.179 68.7197 179.717 69.2443 179.122 69.6193C178.531 69.9943 177.842 70.1818 177.054 70.1818ZM177.054 68.9773C177.652 68.9773 178.145 68.8239 178.531 68.517C178.918 68.2102 179.204 67.8068 179.389 67.3068C179.575 66.8068 179.668 66.2652 179.668 65.6818C179.668 65.0985 179.575 64.5549 179.389 64.0511C179.204 63.5473 178.918 63.1402 178.531 62.8295C178.145 62.5189 177.652 62.3636 177.054 62.3636C176.455 62.3636 175.963 62.5189 175.577 62.8295C175.19 63.1402 174.904 63.5473 174.719 64.0511C174.533 64.5549 174.44 65.0985 174.44 65.6818C174.44 66.2652 174.533 66.8068 174.719 67.3068C174.904 67.8068 175.19 68.2102 175.577 68.517C175.963 68.8239 176.455 68.9773 177.054 68.9773ZM184.237 58.3636V59.3864C184.237 59.697 184.18 60.0284 184.067 60.3807C183.957 60.7292 183.794 61.0682 183.578 61.3977C183.366 61.7235 183.108 62.0076 182.805 62.25L182.078 61.6591C182.317 61.3182 182.523 60.964 182.697 60.5966C182.875 60.2254 182.964 59.8295 182.964 59.4091V58.3636H184.237ZM187.146 58.3636V59.3864C187.146 59.697 187.089 60.0284 186.976 60.3807C186.866 60.7292 186.703 61.0682 186.487 61.3977C186.275 61.7235 186.018 62.0076 185.714 62.25L184.987 61.6591C185.226 61.3182 185.432 60.964 185.607 60.5966C185.785 60.2254 185.874 59.8295 185.874 59.4091V58.3636H187.146ZM197.601 59.6136V58.3636H206.328V59.6136H202.669V70H201.26V59.6136H197.601ZM207.415 70V61.2727H208.71V62.5909H208.801C208.96 62.1591 209.248 61.8087 209.665 61.5398C210.081 61.2708 210.551 61.1364 211.074 61.1364C211.172 61.1364 211.295 61.1383 211.443 61.142C211.591 61.1458 211.703 61.1515 211.778 61.1591V62.5227C211.733 62.5114 211.629 62.4943 211.466 62.4716C211.307 62.4451 211.138 62.4318 210.96 62.4318C210.536 62.4318 210.157 62.5208 209.824 62.6989C209.494 62.8731 209.233 63.1155 209.04 63.4261C208.85 63.733 208.756 64.0833 208.756 64.4773V70H207.415ZM218.868 66.4318V61.2727H220.209V70H218.868V68.5227H218.777C218.572 68.9659 218.254 69.3428 217.822 69.6534C217.391 69.9602 216.845 70.1136 216.186 70.1136C215.641 70.1136 215.156 69.9943 214.732 69.7557C214.307 69.5133 213.974 69.1496 213.732 68.6648C213.489 68.1761 213.368 67.5606 213.368 66.8182V61.2727H214.709V66.7273C214.709 67.3636 214.887 67.8712 215.243 68.25C215.603 68.6288 216.061 68.8182 216.618 68.8182C216.951 68.8182 217.29 68.733 217.635 68.5625C217.983 68.392 218.275 68.1307 218.51 67.7784C218.749 67.4261 218.868 66.9773 218.868 66.4318ZM226.324 70.1818C225.483 70.1818 224.758 69.9962 224.148 69.625C223.542 69.25 223.074 68.7273 222.744 68.0568C222.419 67.3826 222.256 66.5985 222.256 65.7045C222.256 64.8106 222.419 64.0227 222.744 63.3409C223.074 62.6553 223.532 62.1212 224.119 61.7386C224.71 61.3523 225.4 61.1591 226.188 61.1591C226.642 61.1591 227.091 61.2348 227.534 61.3864C227.977 61.5379 228.381 61.7841 228.744 62.125C229.108 62.4621 229.398 62.9091 229.614 63.4659C229.83 64.0227 229.938 64.7083 229.938 65.5227V66.0909H223.21V64.9318H228.574C228.574 64.4394 228.475 64 228.278 63.6136C228.085 63.2273 227.809 62.9223 227.449 62.6989C227.093 62.4754 226.672 62.3636 226.188 62.3636C225.653 62.3636 225.191 62.4962 224.801 62.7614C224.415 63.0227 224.117 63.3636 223.909 63.7841C223.701 64.2045 223.597 64.6553 223.597 65.1364V65.9091C223.597 66.5682 223.71 67.1269 223.938 67.5852C224.169 68.0398 224.489 68.3864 224.898 68.625C225.307 68.8598 225.782 68.9773 226.324 68.9773C226.676 68.9773 226.994 68.928 227.278 68.8295C227.566 68.7273 227.814 68.5758 228.023 68.375C228.231 68.1705 228.392 67.9167 228.506 67.6136L229.801 67.9773C229.665 68.4167 229.436 68.803 229.114 69.1364C228.792 69.4659 228.394 69.7235 227.92 69.9091C227.447 70.0909 226.915 70.1818 226.324 70.1818Z" fill="#0068B3"/>
<path d="M63.9915 24V22.9773C63.9915 22.6667 64.0464 22.3371 64.1562 21.9886C64.2699 21.6364 64.4328 21.2973 64.6449 20.9716C64.8608 20.642 65.1203 20.3561 65.4233 20.1136L66.1506 20.7045C65.9119 21.0455 65.7036 21.4015 65.5256 21.7727C65.3513 22.1402 65.2642 22.5341 65.2642 22.9545V24H63.9915ZM66.9006 24V22.9773C66.9006 22.6667 66.9555 22.3371 67.0653 21.9886C67.179 21.6364 67.3419 21.2973 67.554 20.9716C67.7699 20.642 68.0294 20.3561 68.3324 20.1136L69.0597 20.7045C68.821 21.0455 68.6127 21.4015 68.4347 21.7727C68.2604 22.1402 68.1733 22.5341 68.1733 22.9545V24H66.9006ZM80.0852 24H78.6761C78.5928 23.5947 78.447 23.2386 78.2386 22.9318C78.0341 22.625 77.7841 22.3674 77.4886 22.1591C77.197 21.947 76.8731 21.7879 76.517 21.6818C76.161 21.5758 75.7898 21.5227 75.4034 21.5227C74.6989 21.5227 74.0606 21.7008 73.4886 22.0568C72.9205 22.4129 72.4678 22.9375 72.1307 23.6307C71.7973 24.3239 71.6307 25.1742 71.6307 26.1818C71.6307 27.1894 71.7973 28.0398 72.1307 28.733C72.4678 29.4261 72.9205 29.9508 73.4886 30.3068C74.0606 30.6629 74.6989 30.8409 75.4034 30.8409C75.7898 30.8409 76.161 30.7879 76.517 30.6818C76.8731 30.5758 77.197 30.4186 77.4886 30.2102C77.7841 29.9981 78.0341 29.7386 78.2386 29.4318C78.447 29.1212 78.5928 28.7652 78.6761 28.3636H80.0852C79.9792 28.9583 79.786 29.4905 79.5057 29.9602C79.2254 30.4299 78.8769 30.8295 78.4602 31.1591C78.0436 31.4848 77.5758 31.733 77.0568 31.9034C76.5417 32.0739 75.9905 32.1591 75.4034 32.1591C74.411 32.1591 73.5284 31.9167 72.7557 31.4318C71.983 30.947 71.375 30.2576 70.9318 29.3636C70.4886 28.4697 70.267 27.4091 70.267 26.1818C70.267 24.9545 70.4886 23.8939 70.9318 23C71.375 22.1061 71.983 21.4167 72.7557 20.9318C73.5284 20.447 74.411 20.2045 75.4034 20.2045C75.9905 20.2045 76.5417 20.2898 77.0568 20.4602C77.5758 20.6307 78.0436 20.8807 78.4602 21.2102C78.8769 21.536 79.2254 21.9337 79.5057 22.4034C79.786 22.8693 79.9792 23.4015 80.0852 24ZM84.7486 32.2045C84.1955 32.2045 83.6937 32.1004 83.2429 31.892C82.7921 31.6799 82.4342 31.375 82.169 30.9773C81.9039 30.5758 81.7713 30.0909 81.7713 29.5227C81.7713 29.0227 81.8698 28.6174 82.0668 28.3068C82.2637 27.9924 82.527 27.7462 82.8565 27.5682C83.1861 27.3902 83.5497 27.2576 83.9474 27.1705C84.349 27.0795 84.7524 27.0076 85.1577 26.9545C85.688 26.8864 86.1179 26.8352 86.4474 26.8011C86.7808 26.7633 87.0232 26.7008 87.1747 26.6136C87.33 26.5265 87.4077 26.375 87.4077 26.1591V26.1136C87.4077 25.553 87.2543 25.1174 86.9474 24.8068C86.6444 24.4962 86.1842 24.3409 85.5668 24.3409C84.9266 24.3409 84.4247 24.4811 84.0611 24.7614C83.6974 25.0417 83.4418 25.3409 83.294 25.6591L82.0213 25.2045C82.2486 24.6742 82.5516 24.2614 82.9304 23.9659C83.313 23.6667 83.7296 23.4583 84.1804 23.3409C84.6349 23.2197 85.0819 23.1591 85.5213 23.1591C85.8016 23.1591 86.1236 23.1932 86.4872 23.2614C86.8546 23.3258 87.2088 23.4602 87.5497 23.6648C87.8944 23.8693 88.1804 24.178 88.4077 24.5909C88.6349 25.0038 88.7486 25.5568 88.7486 26.25V32H87.4077V30.8182H87.3395C87.2486 31.0076 87.0971 31.2102 86.8849 31.4261C86.6728 31.642 86.3906 31.8258 86.0384 31.9773C85.6861 32.1288 85.2562 32.2045 84.7486 32.2045ZM84.9531 31C85.4834 31 85.9304 30.8958 86.294 30.6875C86.6615 30.4792 86.938 30.2102 87.1236 29.8807C87.313 29.5511 87.4077 29.2045 87.4077 28.8409V27.6136C87.3509 27.6818 87.2259 27.7443 87.0327 27.8011C86.8433 27.8542 86.6236 27.9015 86.3736 27.9432C86.1274 27.9811 85.8868 28.0152 85.652 28.0455C85.4209 28.072 85.2334 28.0947 85.0895 28.1136C84.741 28.1591 84.4152 28.233 84.1122 28.3352C83.813 28.4337 83.5705 28.5833 83.3849 28.7841C83.2031 28.9811 83.1122 29.25 83.1122 29.5909C83.1122 30.0568 83.2846 30.4091 83.6293 30.6477C83.9777 30.8826 84.419 31 84.9531 31ZM91.196 32V23.2727H92.4915V24.5909H92.5824C92.7415 24.1591 93.0294 23.8087 93.446 23.5398C93.8627 23.2708 94.3324 23.1364 94.8551 23.1364C94.9536 23.1364 95.0767 23.1383 95.2244 23.142C95.3722 23.1458 95.4839 23.1515 95.5597 23.1591V24.5227C95.5142 24.5114 95.41 24.4943 95.2472 24.4716C95.0881 24.4451 94.9195 24.4318 94.7415 24.4318C94.3172 24.4318 93.9384 24.5208 93.6051 24.6989C93.2756 24.8731 93.0142 25.1155 92.821 25.4261C92.6316 25.733 92.5369 26.0833 92.5369 26.4773V32H91.196ZM98.4901 20.3636V32H97.1491V20.3636H98.4901ZM104.491 32.1818C103.704 32.1818 103.012 31.9943 102.418 31.6193C101.827 31.2443 101.365 30.7197 101.031 30.0455C100.702 29.3712 100.537 28.5833 100.537 27.6818C100.537 26.7727 100.702 25.9792 101.031 25.3011C101.365 24.6231 101.827 24.0966 102.418 23.7216C103.012 23.3466 103.704 23.1591 104.491 23.1591C105.279 23.1591 105.969 23.3466 106.56 23.7216C107.154 24.0966 107.616 24.6231 107.946 25.3011C108.279 25.9792 108.446 26.7727 108.446 27.6818C108.446 28.5833 108.279 29.3712 107.946 30.0455C107.616 30.7197 107.154 31.2443 106.56 31.6193C105.969 31.9943 105.279 32.1818 104.491 32.1818ZM104.491 30.9773C105.09 30.9773 105.582 30.8239 105.969 30.517C106.355 30.2102 106.641 29.8068 106.827 29.3068C107.012 28.8068 107.105 28.2652 107.105 27.6818C107.105 27.0985 107.012 26.5549 106.827 26.0511C106.641 25.5473 106.355 25.1402 105.969 24.8295C105.582 24.5189 105.09 24.3636 104.491 24.3636C103.893 24.3636 103.401 24.5189 103.014 24.8295C102.628 25.1402 102.342 25.5473 102.156 26.0511C101.971 26.5549 101.878 27.0985 101.878 27.6818C101.878 28.2652 101.971 28.8068 102.156 29.3068C102.342 29.8068 102.628 30.2102 103.014 30.517C103.401 30.8239 103.893 30.9773 104.491 30.9773ZM116.675 25.2273L115.47 25.5682C115.394 25.3674 115.283 25.1723 115.135 24.983C114.991 24.7898 114.794 24.6307 114.544 24.5057C114.294 24.3807 113.974 24.3182 113.584 24.3182C113.05 24.3182 112.605 24.4413 112.249 24.6875C111.896 24.9299 111.72 25.2386 111.72 25.6136C111.72 25.947 111.841 26.2102 112.084 26.4034C112.326 26.5966 112.705 26.7576 113.22 26.8864L114.516 27.2045C115.296 27.3939 115.877 27.6837 116.26 28.0739C116.643 28.4602 116.834 28.9583 116.834 29.5682C116.834 30.0682 116.69 30.5152 116.402 30.9091C116.118 31.303 115.72 31.6136 115.209 31.8409C114.697 32.0682 114.103 32.1818 113.425 32.1818C112.535 32.1818 111.798 31.9886 111.214 31.6023C110.631 31.2159 110.262 30.6515 110.107 29.9091L111.379 29.5909C111.5 30.0606 111.73 30.4129 112.067 30.6477C112.408 30.8826 112.853 31 113.402 31C114.027 31 114.523 30.8674 114.891 30.6023C115.262 30.3333 115.447 30.0114 115.447 29.6364C115.447 29.3333 115.341 29.0795 115.129 28.875C114.917 28.6667 114.591 28.5114 114.152 28.4091L112.697 28.0682C111.898 27.8788 111.311 27.5852 110.936 27.1875C110.565 26.786 110.379 26.2841 110.379 25.6818C110.379 25.1894 110.518 24.7538 110.794 24.375C111.074 23.9962 111.455 23.6989 111.936 23.483C112.421 23.267 112.97 23.1591 113.584 23.1591C114.447 23.1591 115.125 23.3485 115.618 23.7273C116.114 24.1061 116.466 24.6061 116.675 25.2273ZM131.17 20.3636H132.58V28.0682C132.58 28.8636 132.392 29.5739 132.017 30.1989C131.646 30.8201 131.121 31.3106 130.443 31.6705C129.765 32.0265 128.97 32.2045 128.057 32.2045C127.144 32.2045 126.348 32.0265 125.67 31.6705C124.992 31.3106 124.466 30.8201 124.091 30.1989C123.72 29.5739 123.534 28.8636 123.534 28.0682V20.3636H124.943V27.9545C124.943 28.5227 125.068 29.0284 125.318 29.4716C125.568 29.911 125.924 30.2576 126.386 30.5114C126.852 30.7614 127.409 30.8864 128.057 30.8864C128.705 30.8864 129.261 30.7614 129.727 30.5114C130.193 30.2576 130.549 29.911 130.795 29.4716C131.045 29.0284 131.17 28.5227 131.17 27.9545V20.3636ZM134.962 32V30.9773L139.916 24.6136V24.5227H135.121V23.2727H141.643V24.3409L136.825 30.6591V30.75H141.803V32H134.962ZM147.277 32.1818C146.436 32.1818 145.711 31.9962 145.101 31.625C144.495 31.25 144.027 30.7273 143.697 30.0568C143.372 29.3826 143.209 28.5985 143.209 27.7045C143.209 26.8106 143.372 26.0227 143.697 25.3409C144.027 24.6553 144.485 24.1212 145.072 23.7386C145.663 23.3523 146.353 23.1591 147.141 23.1591C147.595 23.1591 148.044 23.2348 148.487 23.3864C148.93 23.5379 149.334 23.7841 149.697 24.125C150.061 24.4621 150.351 24.9091 150.567 25.4659C150.783 26.0227 150.891 26.7083 150.891 27.5227V28.0909H144.163V26.9318H149.527C149.527 26.4394 149.429 26 149.232 25.6136C149.038 25.2273 148.762 24.9223 148.402 24.6989C148.046 24.4754 147.625 24.3636 147.141 24.3636C146.607 24.3636 146.144 24.4962 145.754 24.7614C145.368 25.0227 145.071 25.3636 144.862 25.7841C144.654 26.2045 144.55 26.6553 144.55 27.1364V27.9091C144.55 28.5682 144.663 29.1269 144.891 29.5852C145.122 30.0398 145.442 30.3864 145.851 30.625C146.26 30.8598 146.735 30.9773 147.277 30.9773C147.629 30.9773 147.947 30.928 148.232 30.8295C148.519 30.7273 148.768 30.5758 148.976 30.375C149.184 30.1705 149.345 29.9167 149.459 29.6136L150.754 29.9773C150.618 30.4167 150.389 30.803 150.067 31.1364C149.745 31.4659 149.347 31.7235 148.874 31.9091C148.4 32.0909 147.868 32.1818 147.277 32.1818ZM156.226 32.1818C155.499 32.1818 154.857 31.9981 154.3 31.6307C153.743 31.2595 153.307 30.7367 152.993 30.0625C152.679 29.3845 152.521 28.5833 152.521 27.6591C152.521 26.7424 152.679 25.947 152.993 25.2727C153.307 24.5985 153.745 24.0777 154.305 23.7102C154.866 23.3428 155.514 23.1591 156.249 23.1591C156.817 23.1591 157.266 23.2538 157.595 23.4432C157.929 23.6288 158.182 23.8409 158.357 24.0795C158.535 24.3144 158.673 24.5076 158.771 24.6591H158.885V20.3636H160.226V32H158.93V30.6591H158.771C158.673 30.8182 158.533 31.0189 158.351 31.2614C158.169 31.5 157.91 31.714 157.572 31.9034C157.235 32.089 156.786 32.1818 156.226 32.1818ZM156.408 30.9773C156.946 30.9773 157.4 30.8371 157.771 30.5568C158.143 30.2727 158.425 29.8807 158.618 29.3807C158.811 28.8769 158.908 28.2955 158.908 27.6364C158.908 26.9848 158.813 26.4148 158.624 25.9261C158.434 25.4337 158.154 25.0511 157.783 24.7784C157.411 24.5019 156.953 24.3636 156.408 24.3636C155.839 24.3636 155.366 24.5095 154.987 24.8011C154.612 25.089 154.33 25.4811 154.141 25.9773C153.955 26.4697 153.862 27.0227 153.862 27.6364C153.862 28.2576 153.957 28.822 154.146 29.3295C154.339 29.8333 154.624 30.2348 154.999 30.5341C155.377 30.8295 155.847 30.9773 156.408 30.9773ZM165.436 32.2045C164.883 32.2045 164.381 32.1004 163.93 31.892C163.48 31.6799 163.122 31.375 162.857 30.9773C162.591 30.5758 162.459 30.0909 162.459 29.5227C162.459 29.0227 162.557 28.6174 162.754 28.3068C162.951 27.9924 163.214 27.7462 163.544 27.5682C163.874 27.3902 164.237 27.2576 164.635 27.1705C165.036 27.0795 165.44 27.0076 165.845 26.9545C166.375 26.8864 166.805 26.8352 167.135 26.8011C167.468 26.7633 167.711 26.7008 167.862 26.6136C168.018 26.5265 168.095 26.375 168.095 26.1591V26.1136C168.095 25.553 167.942 25.1174 167.635 24.8068C167.332 24.4962 166.872 24.3409 166.254 24.3409C165.614 24.3409 165.112 24.4811 164.749 24.7614C164.385 25.0417 164.129 25.3409 163.982 25.6591L162.709 25.2045C162.936 24.6742 163.239 24.2614 163.618 23.9659C164 23.6667 164.417 23.4583 164.868 23.3409C165.322 23.2197 165.769 23.1591 166.209 23.1591C166.489 23.1591 166.811 23.1932 167.175 23.2614C167.542 23.3258 167.896 23.4602 168.237 23.6648C168.582 23.8693 168.868 24.178 169.095 24.5909C169.322 25.0038 169.436 25.5568 169.436 26.25V32H168.095V30.8182H168.027C167.936 31.0076 167.785 31.2102 167.572 31.4261C167.36 31.642 167.078 31.8258 166.726 31.9773C166.374 32.1288 165.944 32.2045 165.436 32.2045ZM165.641 31C166.171 31 166.618 30.8958 166.982 30.6875C167.349 30.4792 167.625 30.2102 167.811 29.8807C168 29.5511 168.095 29.2045 168.095 28.8409V27.6136C168.038 27.6818 167.913 27.7443 167.72 27.8011C167.531 27.8542 167.311 27.9015 167.061 27.9432C166.815 27.9811 166.574 28.0152 166.339 28.0455C166.108 28.072 165.921 28.0947 165.777 28.1136C165.429 28.1591 165.103 28.233 164.8 28.3352C164.5 28.4337 164.258 28.5833 164.072 28.7841C163.891 28.9811 163.8 29.25 163.8 29.5909C163.8 30.0568 163.972 30.4091 164.317 30.6477C164.665 30.8826 165.107 31 165.641 31ZM173.065 20.3636V21.3864C173.065 21.697 173.009 22.0284 172.895 22.3807C172.785 22.7292 172.622 23.0682 172.406 23.3977C172.194 23.7235 171.937 24.0076 171.634 24.25L170.906 23.6591C171.145 23.3182 171.351 22.964 171.526 22.5966C171.704 22.2254 171.793 21.8295 171.793 21.4091V20.3636H173.065ZM175.974 20.3636V21.3864C175.974 21.697 175.918 22.0284 175.804 22.3807C175.694 22.7292 175.531 23.0682 175.315 23.3977C175.103 23.7235 174.846 24.0076 174.543 24.25L173.815 23.6591C174.054 23.3182 174.26 22.964 174.435 22.5966C174.613 22.2254 174.702 21.8295 174.702 21.4091V20.3636H175.974ZM178.384 30.4091L178.293 31.0227C178.228 31.4545 178.13 31.9167 177.997 32.4091C177.868 32.9015 177.734 33.3655 177.594 33.8011C177.454 34.2367 177.338 34.5833 177.247 34.8409H176.224C176.274 34.5985 176.338 34.2784 176.418 33.8807C176.497 33.483 176.577 33.0379 176.656 32.5455C176.74 32.0568 176.808 31.5568 176.861 31.0455L176.929 30.4091H178.384ZM79.804 43V41.9773C79.804 41.6667 79.8589 41.3371 79.9688 40.9886C80.0824 40.6364 80.2453 40.2973 80.4574 39.9716C80.6733 39.642 80.9328 39.3561 81.2358 39.1136L81.9631 39.7045C81.7244 40.0455 81.5161 40.4015 81.3381 40.7727C81.1638 41.1402 81.0767 41.5341 81.0767 41.9545V43H79.804ZM82.7131 43V41.9773C82.7131 41.6667 82.768 41.3371 82.8778 40.9886C82.9915 40.6364 83.1544 40.2973 83.3665 39.9716C83.5824 39.642 83.8419 39.3561 84.1449 39.1136L84.8722 39.7045C84.6335 40.0455 84.4252 40.4015 84.2472 40.7727C84.0729 41.1402 83.9858 41.5341 83.9858 41.9545V43H82.7131ZM89.8977 51.1818C89.0795 51.1818 88.375 50.9886 87.7841 50.6023C87.1932 50.2159 86.7386 49.6837 86.4205 49.0057C86.1023 48.3277 85.9432 47.553 85.9432 46.6818C85.9432 45.7955 86.1061 45.0133 86.4318 44.3352C86.7614 43.6534 87.2197 43.1212 87.8068 42.7386C88.3977 42.3523 89.0871 42.1591 89.875 42.1591C90.4886 42.1591 91.0417 42.2727 91.5341 42.5C92.0265 42.7273 92.4299 43.0455 92.7443 43.4545C93.0587 43.8636 93.2538 44.3409 93.3295 44.8864H91.9886C91.8864 44.4886 91.6591 44.1364 91.3068 43.8295C90.9583 43.5189 90.4886 43.3636 89.8977 43.3636C89.375 43.3636 88.9167 43.5 88.5227 43.7727C88.1326 44.0417 87.8277 44.4223 87.608 44.9148C87.392 45.4034 87.2841 45.9773 87.2841 46.6364C87.2841 47.3106 87.3902 47.8977 87.6023 48.3977C87.8182 48.8977 88.1212 49.286 88.5114 49.5625C88.9053 49.839 89.3674 49.9773 89.8977 49.9773C90.2462 49.9773 90.5625 49.9167 90.8466 49.7955C91.1307 49.6742 91.3712 49.5 91.5682 49.2727C91.7652 49.0455 91.9053 48.7727 91.9886 48.4545H93.3295C93.2538 48.9697 93.0663 49.4337 92.767 49.8466C92.4716 50.2557 92.0795 50.5814 91.5909 50.8239C91.1061 51.0625 90.5417 51.1818 89.8977 51.1818ZM97.858 51.2045C97.3049 51.2045 96.803 51.1004 96.3523 50.892C95.9015 50.6799 95.5436 50.375 95.2784 49.9773C95.0133 49.5758 94.8807 49.0909 94.8807 48.5227C94.8807 48.0227 94.9792 47.6174 95.1761 47.3068C95.3731 46.9924 95.6364 46.7462 95.9659 46.5682C96.2955 46.3902 96.6591 46.2576 97.0568 46.1705C97.4583 46.0795 97.8617 46.0076 98.267 45.9545C98.7973 45.8864 99.2273 45.8352 99.5568 45.8011C99.8902 45.7633 100.133 45.7008 100.284 45.6136C100.439 45.5265 100.517 45.375 100.517 45.1591V45.1136C100.517 44.553 100.364 44.1174 100.057 43.8068C99.7538 43.4962 99.2936 43.3409 98.6761 43.3409C98.036 43.3409 97.5341 43.4811 97.1705 43.7614C96.8068 44.0417 96.5511 44.3409 96.4034 44.6591L95.1307 44.2045C95.358 43.6742 95.661 43.2614 96.0398 42.9659C96.4223 42.6667 96.839 42.4583 97.2898 42.3409C97.7443 42.2197 98.1913 42.1591 98.6307 42.1591C98.911 42.1591 99.233 42.1932 99.5966 42.2614C99.964 42.3258 100.318 42.4602 100.659 42.6648C101.004 42.8693 101.29 43.178 101.517 43.5909C101.744 44.0038 101.858 44.5568 101.858 45.25V51H100.517V49.8182H100.449C100.358 50.0076 100.206 50.2102 99.9943 50.4261C99.7822 50.642 99.5 50.8258 99.1477 50.9773C98.7955 51.1288 98.3655 51.2045 97.858 51.2045ZM98.0625 50C98.5928 50 99.0398 49.8958 99.4034 49.6875C99.7708 49.4792 100.047 49.2102 100.233 48.8807C100.422 48.5511 100.517 48.2045 100.517 47.8409V46.6136C100.46 46.6818 100.335 46.7443 100.142 46.8011C99.9527 46.8542 99.733 46.9015 99.483 46.9432C99.2367 46.9811 98.9962 47.0152 98.7614 47.0455C98.5303 47.072 98.3428 47.0947 98.1989 47.1136C97.8504 47.1591 97.5246 47.233 97.2216 47.3352C96.9223 47.4337 96.6799 47.5833 96.4943 47.7841C96.3125 47.9811 96.2216 48.25 96.2216 48.5909C96.2216 49.0568 96.3939 49.4091 96.7386 49.6477C97.0871 49.8826 97.5284 50 98.0625 50ZM104.305 51V42.2727H105.601V43.5909H105.692C105.851 43.1591 106.139 42.8087 106.555 42.5398C106.972 42.2708 107.442 42.1364 107.964 42.1364C108.063 42.1364 108.186 42.1383 108.334 42.142C108.482 42.1458 108.593 42.1515 108.669 42.1591V43.5227C108.624 43.5114 108.519 43.4943 108.357 43.4716C108.197 43.4451 108.029 43.4318 107.851 43.4318C107.427 43.4318 107.048 43.5208 106.714 43.6989C106.385 43.8731 106.124 44.1155 105.93 44.4261C105.741 44.733 105.646 45.0833 105.646 45.4773V51H104.305ZM111.599 39.3636V51H110.259V39.3636H111.599ZM117.601 51.1818C116.813 51.1818 116.122 50.9943 115.527 50.6193C114.936 50.2443 114.474 49.7197 114.141 49.0455C113.811 48.3712 113.646 47.5833 113.646 46.6818C113.646 45.7727 113.811 44.9792 114.141 44.3011C114.474 43.6231 114.936 43.0966 115.527 42.7216C116.122 42.3466 116.813 42.1591 117.601 42.1591C118.389 42.1591 119.078 42.3466 119.669 42.7216C120.264 43.0966 120.726 43.6231 121.055 44.3011C121.389 44.9792 121.555 45.7727 121.555 46.6818C121.555 47.5833 121.389 48.3712 121.055 49.0455C120.726 49.7197 120.264 50.2443 119.669 50.6193C119.078 50.9943 118.389 51.1818 117.601 51.1818ZM117.601 49.9773C118.199 49.9773 118.692 49.8239 119.078 49.517C119.464 49.2102 119.75 48.8068 119.936 48.3068C120.122 47.8068 120.214 47.2652 120.214 46.6818C120.214 46.0985 120.122 45.5549 119.936 45.0511C119.75 44.5473 119.464 44.1402 119.078 43.8295C118.692 43.5189 118.199 43.3636 117.601 43.3636C117.002 43.3636 116.51 43.5189 116.124 43.8295C115.737 44.1402 115.451 44.5473 115.266 45.0511C115.08 45.5549 114.987 46.0985 114.987 46.6818C114.987 47.2652 115.08 47.8068 115.266 48.3068C115.451 48.8068 115.737 49.2102 116.124 49.517C116.51 49.8239 117.002 49.9773 117.601 49.9773ZM129.784 44.2273L128.58 44.5682C128.504 44.3674 128.392 44.1723 128.244 43.983C128.1 43.7898 127.903 43.6307 127.653 43.5057C127.403 43.3807 127.083 43.3182 126.693 43.3182C126.159 43.3182 125.714 43.4413 125.358 43.6875C125.006 43.9299 124.83 44.2386 124.83 44.6136C124.83 44.947 124.951 45.2102 125.193 45.4034C125.436 45.5966 125.814 45.7576 126.33 45.8864L127.625 46.2045C128.405 46.3939 128.987 46.6837 129.369 47.0739C129.752 47.4602 129.943 47.9583 129.943 48.5682C129.943 49.0682 129.799 49.5152 129.511 49.9091C129.227 50.303 128.83 50.6136 128.318 50.8409C127.807 51.0682 127.212 51.1818 126.534 51.1818C125.644 51.1818 124.907 50.9886 124.324 50.6023C123.741 50.2159 123.371 49.6515 123.216 48.9091L124.489 48.5909C124.61 49.0606 124.839 49.4129 125.176 49.6477C125.517 49.8826 125.962 50 126.511 50C127.136 50 127.633 49.8674 128 49.6023C128.371 49.3333 128.557 49.0114 128.557 48.6364C128.557 48.3333 128.451 48.0795 128.239 47.875C128.027 47.6667 127.701 47.5114 127.261 47.4091L125.807 47.0682C125.008 46.8788 124.42 46.5852 124.045 46.1875C123.674 45.786 123.489 45.2841 123.489 44.6818C123.489 44.1894 123.627 43.7538 123.903 43.375C124.184 42.9962 124.564 42.6989 125.045 42.483C125.53 42.267 126.08 42.1591 126.693 42.1591C127.557 42.1591 128.235 42.3485 128.727 42.7273C129.223 43.1061 129.576 43.6061 129.784 44.2273ZM137.462 47.4318V42.2727H138.803V51H137.462V49.5227H137.371C137.166 49.9659 136.848 50.3428 136.416 50.6534C135.984 50.9602 135.439 51.1136 134.78 51.1136C134.234 51.1136 133.75 50.9943 133.325 50.7557C132.901 50.5133 132.568 50.1496 132.325 49.6648C132.083 49.1761 131.962 48.5606 131.962 47.8182V42.2727H133.303V47.7273C133.303 48.3636 133.481 48.8712 133.837 49.25C134.196 49.6288 134.655 49.8182 135.212 49.8182C135.545 49.8182 135.884 49.733 136.229 49.5625C136.577 49.392 136.869 49.1307 137.104 48.7784C137.342 48.4261 137.462 47.9773 137.462 47.4318ZM141.009 51V49.9773L145.963 43.6136V43.5227H141.168V42.2727H147.69V43.3409L142.872 49.6591V49.75H147.849V51H141.009ZM153.324 51.1818C152.483 51.1818 151.758 50.9962 151.148 50.625C150.542 50.25 150.074 49.7273 149.744 49.0568C149.419 48.3826 149.256 47.5985 149.256 46.7045C149.256 45.8106 149.419 45.0227 149.744 44.3409C150.074 43.6553 150.532 43.1212 151.119 42.7386C151.71 42.3523 152.4 42.1591 153.188 42.1591C153.642 42.1591 154.091 42.2348 154.534 42.3864C154.977 42.5379 155.381 42.7841 155.744 43.125C156.108 43.4621 156.398 43.9091 156.614 44.4659C156.83 45.0227 156.938 45.7083 156.938 46.5227V47.0909H150.21V45.9318H155.574C155.574 45.4394 155.475 45 155.278 44.6136C155.085 44.2273 154.809 43.9223 154.449 43.6989C154.093 43.4754 153.672 43.3636 153.188 43.3636C152.653 43.3636 152.191 43.4962 151.801 43.7614C151.415 44.0227 151.117 44.3636 150.909 44.7841C150.701 45.2045 150.597 45.6553 150.597 46.1364V46.9091C150.597 47.5682 150.71 48.1269 150.938 48.5852C151.169 49.0398 151.489 49.3864 151.898 49.625C152.307 49.8598 152.782 49.9773 153.324 49.9773C153.676 49.9773 153.994 49.928 154.278 49.8295C154.566 49.7273 154.814 49.5758 155.023 49.375C155.231 49.1705 155.392 48.9167 155.506 48.6136L156.801 48.9773C156.665 49.4167 156.436 49.803 156.114 50.1364C155.792 50.4659 155.394 50.7235 154.92 50.9091C154.447 51.0909 153.915 51.1818 153.324 51.1818ZM162.273 51.1818C161.545 51.1818 160.903 50.9981 160.347 50.6307C159.79 50.2595 159.354 49.7367 159.04 49.0625C158.725 48.3845 158.568 47.5833 158.568 46.6591C158.568 45.7424 158.725 44.947 159.04 44.2727C159.354 43.5985 159.792 43.0777 160.352 42.7102C160.913 42.3428 161.561 42.1591 162.295 42.1591C162.864 42.1591 163.313 42.2538 163.642 42.4432C163.975 42.6288 164.229 42.8409 164.403 43.0795C164.581 43.3144 164.72 43.5076 164.818 43.6591H164.932V39.3636H166.273V51H164.977V49.6591H164.818C164.72 49.8182 164.58 50.0189 164.398 50.2614C164.216 50.5 163.956 50.714 163.619 50.9034C163.282 51.089 162.833 51.1818 162.273 51.1818ZM162.455 49.9773C162.992 49.9773 163.447 49.8371 163.818 49.5568C164.189 49.2727 164.472 48.8807 164.665 48.3807C164.858 47.8769 164.955 47.2955 164.955 46.6364C164.955 45.9848 164.86 45.4148 164.67 44.9261C164.481 44.4337 164.201 44.0511 163.83 43.7784C163.458 43.5019 163 43.3636 162.455 43.3636C161.886 43.3636 161.413 43.5095 161.034 43.8011C160.659 44.089 160.377 44.4811 160.188 44.9773C160.002 45.4697 159.909 46.0227 159.909 46.6364C159.909 47.2576 160.004 47.822 160.193 48.3295C160.386 48.8333 160.67 49.2348 161.045 49.5341C161.424 49.8295 161.894 49.9773 162.455 49.9773ZM171.483 51.2045C170.93 51.2045 170.428 51.1004 169.977 50.892C169.527 50.6799 169.169 50.375 168.903 49.9773C168.638 49.5758 168.506 49.0909 168.506 48.5227C168.506 48.0227 168.604 47.6174 168.801 47.3068C168.998 46.9924 169.261 46.7462 169.591 46.5682C169.92 46.3902 170.284 46.2576 170.682 46.1705C171.083 46.0795 171.487 46.0076 171.892 45.9545C172.422 45.8864 172.852 45.8352 173.182 45.8011C173.515 45.7633 173.758 45.7008 173.909 45.6136C174.064 45.5265 174.142 45.375 174.142 45.1591V45.1136C174.142 44.553 173.989 44.1174 173.682 43.8068C173.379 43.4962 172.919 43.3409 172.301 43.3409C171.661 43.3409 171.159 43.4811 170.795 43.7614C170.432 44.0417 170.176 44.3409 170.028 44.6591L168.756 44.2045C168.983 43.6742 169.286 43.2614 169.665 42.9659C170.047 42.6667 170.464 42.4583 170.915 42.3409C171.369 42.2197 171.816 42.1591 172.256 42.1591C172.536 42.1591 172.858 42.1932 173.222 42.2614C173.589 42.3258 173.943 42.4602 174.284 42.6648C174.629 42.8693 174.915 43.178 175.142 43.5909C175.369 44.0038 175.483 44.5568 175.483 45.25V51H174.142V49.8182H174.074C173.983 50.0076 173.831 50.2102 173.619 50.4261C173.407 50.642 173.125 50.8258 172.773 50.9773C172.42 51.1288 171.991 51.2045 171.483 51.2045ZM171.688 50C172.218 50 172.665 49.8958 173.028 49.6875C173.396 49.4792 173.672 49.2102 173.858 48.8807C174.047 48.5511 174.142 48.2045 174.142 47.8409V46.6136C174.085 46.6818 173.96 46.7443 173.767 46.8011C173.578 46.8542 173.358 46.9015 173.108 46.9432C172.862 46.9811 172.621 47.0152 172.386 47.0455C172.155 47.072 171.968 47.0947 171.824 47.1136C171.475 47.1591 171.15 47.233 170.847 47.3352C170.547 47.4337 170.305 47.5833 170.119 47.7841C169.938 47.9811 169.847 48.25 169.847 48.5909C169.847 49.0568 170.019 49.4091 170.364 49.6477C170.712 49.8826 171.153 50 171.688 50ZM178.908 51.0909C178.627 51.0909 178.387 50.9905 178.186 50.7898C177.985 50.589 177.885 50.3485 177.885 50.0682C177.885 49.7879 177.985 49.5473 178.186 49.3466C178.387 49.1458 178.627 49.0455 178.908 49.0455C179.188 49.0455 179.429 49.1458 179.629 49.3466C179.83 49.5473 179.93 49.7879 179.93 50.0682C179.93 50.2538 179.883 50.4242 179.788 50.5795C179.697 50.7348 179.574 50.8598 179.419 50.9545C179.268 51.0455 179.097 51.0909 178.908 51.0909ZM185.632 51.1818C184.905 51.1818 184.263 50.9981 183.706 50.6307C183.149 50.2595 182.714 49.7367 182.399 49.0625C182.085 48.3845 181.928 47.5833 181.928 46.6591C181.928 45.7424 182.085 44.947 182.399 44.2727C182.714 43.5985 183.151 43.0777 183.712 42.7102C184.272 42.3428 184.92 42.1591 185.655 42.1591C186.223 42.1591 186.672 42.2538 187.001 42.4432C187.335 42.6288 187.589 42.8409 187.763 43.0795C187.941 43.3144 188.079 43.5076 188.178 43.6591H188.291V39.3636H189.632V51H188.337V49.6591H188.178C188.079 49.8182 187.939 50.0189 187.757 50.2614C187.575 50.5 187.316 50.714 186.979 50.9034C186.642 51.089 186.193 51.1818 185.632 51.1818ZM185.814 49.9773C186.352 49.9773 186.806 49.8371 187.178 49.5568C187.549 49.2727 187.831 48.8807 188.024 48.3807C188.217 47.8769 188.314 47.2955 188.314 46.6364C188.314 45.9848 188.219 45.4148 188.03 44.9261C187.84 44.4337 187.56 44.0511 187.189 43.7784C186.818 43.5019 186.359 43.3636 185.814 43.3636C185.246 43.3636 184.772 43.5095 184.393 43.8011C184.018 44.089 183.736 44.4811 183.547 44.9773C183.361 45.4697 183.268 46.0227 183.268 46.6364C183.268 47.2576 183.363 47.822 183.553 48.3295C183.746 48.8333 184.03 49.2348 184.405 49.5341C184.784 49.8295 185.253 49.9773 185.814 49.9773ZM195.933 51.1818C195.092 51.1818 194.367 50.9962 193.757 50.625C193.151 50.25 192.683 49.7273 192.354 49.0568C192.028 48.3826 191.865 47.5985 191.865 46.7045C191.865 45.8106 192.028 45.0227 192.354 44.3409C192.683 43.6553 193.142 43.1212 193.729 42.7386C194.32 42.3523 195.009 42.1591 195.797 42.1591C196.251 42.1591 196.7 42.2348 197.143 42.3864C197.587 42.5379 197.99 42.7841 198.354 43.125C198.717 43.4621 199.007 43.9091 199.223 44.4659C199.439 45.0227 199.547 45.7083 199.547 46.5227V47.0909H192.82V45.9318H198.183C198.183 45.4394 198.085 45 197.888 44.6136C197.695 44.2273 197.418 43.9223 197.058 43.6989C196.702 43.4754 196.282 43.3636 195.797 43.3636C195.263 43.3636 194.801 43.4962 194.411 43.7614C194.024 44.0227 193.727 44.3636 193.518 44.7841C193.31 45.2045 193.206 45.6553 193.206 46.1364V46.9091C193.206 47.5682 193.32 48.1269 193.547 48.5852C193.778 49.0398 194.098 49.3864 194.507 49.625C194.916 49.8598 195.392 49.9773 195.933 49.9773C196.286 49.9773 196.604 49.928 196.888 49.8295C197.176 49.7273 197.424 49.5758 197.632 49.375C197.84 49.1705 198.001 48.9167 198.115 48.6136L199.411 48.9773C199.274 49.4167 199.045 49.803 198.723 50.1364C198.401 50.4659 198.003 50.7235 197.53 50.9091C197.056 51.0909 196.524 51.1818 195.933 51.1818ZM208.457 42.2727L205.23 51H203.866L200.639 42.2727H202.094L204.503 49.2273H204.594L207.003 42.2727H208.457ZM216.932 54.0682C215.773 54.0682 214.748 53.9091 213.858 53.5909C212.968 53.2765 212.22 52.8125 211.614 52.1989C211.008 51.5852 210.549 50.8333 210.239 49.9432C209.928 49.053 209.773 48.0341 209.773 46.8864C209.773 45.7765 209.93 44.7841 210.244 43.9091C210.563 43.0341 211.023 42.2917 211.625 41.6818C212.231 41.0682 212.966 40.6004 213.83 40.2784C214.697 39.9564 215.678 39.7955 216.773 39.7955C217.837 39.7955 218.769 39.9697 219.568 40.3182C220.371 40.6629 221.042 41.1307 221.58 41.7216C222.121 42.3087 222.527 42.9697 222.795 43.7045C223.068 44.4394 223.205 45.197 223.205 45.9773C223.205 46.5265 223.178 47.0833 223.125 47.6477C223.072 48.2121 222.96 48.7311 222.79 49.2045C222.619 49.6742 222.356 50.053 222 50.3409C221.648 50.6288 221.17 50.7727 220.568 50.7727C220.303 50.7727 220.011 50.7311 219.693 50.6477C219.375 50.5644 219.093 50.4261 218.847 50.233C218.6 50.0398 218.455 49.7803 218.409 49.4545H218.341C218.25 49.6742 218.11 49.8826 217.92 50.0795C217.735 50.2765 217.491 50.4337 217.188 50.5511C216.888 50.6686 216.523 50.7197 216.091 50.7045C215.598 50.6856 215.165 50.5758 214.79 50.375C214.415 50.1705 214.1 49.8939 213.847 49.5455C213.597 49.1932 213.407 48.786 213.278 48.3239C213.153 47.858 213.091 47.3561 213.091 46.8182C213.091 46.3068 213.167 45.839 213.318 45.4148C213.47 44.9905 213.68 44.6193 213.949 44.3011C214.222 43.983 214.54 43.7292 214.903 43.5398C215.271 43.3466 215.667 43.2273 216.091 43.1818C216.47 43.1439 216.814 43.161 217.125 43.233C217.436 43.3011 217.691 43.4053 217.892 43.5455C218.093 43.6818 218.22 43.8333 218.273 44H218.341V43.3636H219.545V48.5C219.545 48.8182 219.634 49.0985 219.812 49.3409C219.991 49.5833 220.25 49.7045 220.591 49.7045C220.977 49.7045 221.273 49.572 221.477 49.3068C221.686 49.0417 221.828 48.6326 221.903 48.0795C221.983 47.5265 222.023 46.8182 222.023 45.9545C222.023 45.447 221.953 44.947 221.812 44.4545C221.676 43.9583 221.468 43.4943 221.188 43.0625C220.911 42.6307 220.561 42.25 220.136 41.9205C219.712 41.5909 219.214 41.3333 218.642 41.1477C218.074 40.9583 217.428 40.8636 216.705 40.8636C215.814 40.8636 215.017 41.0019 214.312 41.2784C213.612 41.5511 213.015 41.9508 212.523 42.4773C212.034 43 211.661 43.6364 211.403 44.3864C211.15 45.1326 211.023 45.9811 211.023 46.9318C211.023 47.8977 211.15 48.7557 211.403 49.5057C211.661 50.2557 212.04 50.8883 212.54 51.4034C213.044 51.9186 213.667 52.3087 214.409 52.5739C215.152 52.8428 216.008 52.9773 216.977 52.9773C217.394 52.9773 217.805 52.9375 218.21 52.858C218.616 52.7784 218.973 52.6913 219.284 52.5966C219.595 52.5019 219.818 52.4318 219.955 52.3864L220.273 53.4318C220.038 53.5303 219.731 53.6288 219.352 53.7273C218.977 53.8258 218.576 53.9072 218.148 53.9716C217.723 54.036 217.318 54.0682 216.932 54.0682ZM216.273 49.5455C216.78 49.5455 217.191 49.4432 217.506 49.2386C217.82 49.0341 218.049 48.7254 218.193 48.3125C218.337 47.8996 218.409 47.3788 218.409 46.75C218.409 46.1136 218.33 45.6174 218.17 45.2614C218.011 44.9053 217.777 44.6553 217.466 44.5114C217.155 44.3674 216.773 44.2955 216.318 44.2955C215.886 44.2955 215.517 44.4091 215.21 44.6364C214.907 44.8598 214.674 45.1591 214.511 45.5341C214.352 45.9053 214.273 46.3106 214.273 46.75C214.273 47.2348 214.337 47.6913 214.466 48.1193C214.595 48.5436 214.805 48.8883 215.097 49.1534C215.388 49.4148 215.78 49.5455 216.273 49.5455ZM228.734 54.4545C228.087 54.4545 227.53 54.3712 227.064 54.2045C226.598 54.0417 226.21 53.8258 225.899 53.5568C225.592 53.2917 225.348 53.0076 225.166 52.7045L226.234 51.9545C226.356 52.1136 226.509 52.2955 226.695 52.5C226.88 52.7083 227.134 52.8883 227.456 53.0398C227.782 53.1951 228.208 53.2727 228.734 53.2727C229.439 53.2727 230.02 53.1023 230.479 52.7614C230.937 52.4205 231.166 51.8864 231.166 51.1591V49.3864H231.053C230.954 49.5455 230.814 49.7424 230.632 49.9773C230.454 50.2083 230.196 50.4148 229.859 50.5966C229.526 50.7746 229.075 50.8636 228.507 50.8636C227.803 50.8636 227.17 50.697 226.609 50.3636C226.053 50.0303 225.611 49.5455 225.286 48.9091C224.964 48.2727 224.803 47.5 224.803 46.5909C224.803 45.697 224.96 44.9186 225.274 44.2557C225.589 43.589 226.026 43.0739 226.587 42.7102C227.147 42.3428 227.795 42.1591 228.53 42.1591C229.098 42.1591 229.549 42.2538 229.882 42.4432C230.219 42.6288 230.477 42.8409 230.655 43.0795C230.837 43.3144 230.977 43.5076 231.075 43.6591H231.212V42.2727H232.507V51.25C232.507 52 232.337 52.6098 231.996 53.0795C231.659 53.553 231.204 53.8996 230.632 54.1193C230.064 54.3428 229.431 54.4545 228.734 54.4545ZM228.689 49.6591C229.227 49.6591 229.681 49.536 230.053 49.2898C230.424 49.0436 230.706 48.6894 230.899 48.2273C231.092 47.7652 231.189 47.2121 231.189 46.5682C231.189 45.9394 231.094 45.3845 230.905 44.9034C230.715 44.4223 230.435 44.0455 230.064 43.7727C229.693 43.5 229.234 43.3636 228.689 43.3636C228.121 43.3636 227.647 43.5076 227.268 43.7955C226.893 44.0833 226.611 44.4697 226.422 44.9545C226.236 45.4394 226.143 45.9773 226.143 46.5682C226.143 47.1742 226.238 47.7102 226.428 48.1761C226.621 48.6383 226.905 49.0019 227.28 49.267C227.659 49.5284 228.128 49.6591 228.689 49.6591ZM234.962 51V42.2727H236.257V43.6364H236.371C236.553 43.1705 236.846 42.8087 237.251 42.5511C237.657 42.2898 238.143 42.1591 238.712 42.1591C239.287 42.1591 239.767 42.2898 240.149 42.5511C240.536 42.8087 240.837 43.1705 241.053 43.6364H241.143C241.367 43.1856 241.702 42.8277 242.149 42.5625C242.596 42.2936 243.132 42.1591 243.757 42.1591C244.537 42.1591 245.176 42.4034 245.672 42.892C246.168 43.3769 246.416 44.1326 246.416 45.1591V51H245.075V45.1591C245.075 44.5152 244.899 44.0549 244.547 43.7784C244.195 43.5019 243.78 43.3636 243.303 43.3636C242.689 43.3636 242.214 43.5492 241.876 43.9205C241.539 44.2879 241.371 44.7538 241.371 45.3182V51H240.007V45.0227C240.007 44.5265 239.846 44.1269 239.524 43.8239C239.202 43.517 238.787 43.3636 238.28 43.3636C237.931 43.3636 237.606 43.4564 237.303 43.642C237.003 43.8277 236.761 44.0852 236.575 44.4148C236.393 44.7405 236.303 45.1174 236.303 45.5455V51H234.962ZM251.436 51.2045C250.883 51.2045 250.381 51.1004 249.93 50.892C249.48 50.6799 249.122 50.375 248.857 49.9773C248.591 49.5758 248.459 49.0909 248.459 48.5227C248.459 48.0227 248.557 47.6174 248.754 47.3068C248.951 46.9924 249.214 46.7462 249.544 46.5682C249.874 46.3902 250.237 46.2576 250.635 46.1705C251.036 46.0795 251.44 46.0076 251.845 45.9545C252.375 45.8864 252.805 45.8352 253.135 45.8011C253.468 45.7633 253.711 45.7008 253.862 45.6136C254.018 45.5265 254.095 45.375 254.095 45.1591V45.1136C254.095 44.553 253.942 44.1174 253.635 43.8068C253.332 43.4962 252.872 43.3409 252.254 43.3409C251.614 43.3409 251.112 43.4811 250.749 43.7614C250.385 44.0417 250.129 44.3409 249.982 44.6591L248.709 44.2045C248.936 43.6742 249.239 43.2614 249.618 42.9659C250 42.6667 250.417 42.4583 250.868 42.3409C251.322 42.2197 251.769 42.1591 252.209 42.1591C252.489 42.1591 252.811 42.1932 253.175 42.2614C253.542 42.3258 253.896 42.4602 254.237 42.6648C254.582 42.8693 254.868 43.178 255.095 43.5909C255.322 44.0038 255.436 44.5568 255.436 45.25V51H254.095V49.8182H254.027C253.936 50.0076 253.785 50.2102 253.572 50.4261C253.36 50.642 253.078 50.8258 252.726 50.9773C252.374 51.1288 251.944 51.2045 251.436 51.2045ZM251.641 50C252.171 50 252.618 49.8958 252.982 49.6875C253.349 49.4792 253.625 49.2102 253.811 48.8807C254 48.5511 254.095 48.2045 254.095 47.8409V46.6136C254.038 46.6818 253.913 46.7443 253.72 46.8011C253.531 46.8542 253.311 46.9015 253.061 46.9432C252.815 46.9811 252.574 47.0152 252.339 47.0455C252.108 47.072 251.921 47.0947 251.777 47.1136C251.429 47.1591 251.103 47.233 250.8 47.3352C250.5 47.4337 250.258 47.5833 250.072 47.7841C249.891 47.9811 249.8 48.25 249.8 48.5909C249.8 49.0568 249.972 49.4091 250.317 49.6477C250.665 49.8826 251.107 50 251.641 50ZM257.884 51V42.2727H259.224V51H257.884ZM258.565 40.8182C258.304 40.8182 258.079 40.7292 257.889 40.5511C257.704 40.3731 257.611 40.1591 257.611 39.9091C257.611 39.6591 257.704 39.4451 257.889 39.267C258.079 39.089 258.304 39 258.565 39C258.827 39 259.05 39.089 259.236 39.267C259.425 39.4451 259.52 39.6591 259.52 39.9091C259.52 40.1591 259.425 40.3731 259.236 40.5511C259.05 40.7292 258.827 40.8182 258.565 40.8182ZM263.021 39.3636V51H261.68V39.3636H263.021ZM266.455 51.0909C266.174 51.0909 265.934 50.9905 265.733 50.7898C265.532 50.589 265.432 50.3485 265.432 50.0682C265.432 49.7879 265.532 49.5473 265.733 49.3466C265.934 49.1458 266.174 49.0455 266.455 49.0455C266.735 49.0455 266.975 49.1458 267.176 49.3466C267.377 49.5473 267.477 49.7879 267.477 50.0682C267.477 50.2538 267.43 50.4242 267.335 50.5795C267.244 50.7348 267.121 50.8598 266.966 50.9545C266.814 51.0455 266.644 51.0909 266.455 51.0909ZM273.429 51.1818C272.611 51.1818 271.906 50.9886 271.315 50.6023C270.724 50.2159 270.27 49.6837 269.952 49.0057C269.634 48.3277 269.474 47.553 269.474 46.6818C269.474 45.7955 269.637 45.0133 269.963 44.3352C270.293 43.6534 270.751 43.1212 271.338 42.7386C271.929 42.3523 272.618 42.1591 273.406 42.1591C274.02 42.1591 274.573 42.2727 275.065 42.5C275.558 42.7273 275.961 43.0455 276.276 43.4545C276.59 43.8636 276.785 44.3409 276.861 44.8864H275.52C275.418 44.4886 275.19 44.1364 274.838 43.8295C274.49 43.5189 274.02 43.3636 273.429 43.3636C272.906 43.3636 272.448 43.5 272.054 43.7727C271.664 44.0417 271.359 44.4223 271.139 44.9148C270.923 45.4034 270.815 45.9773 270.815 46.6364C270.815 47.3106 270.921 47.8977 271.134 48.3977C271.349 48.8977 271.652 49.286 272.043 49.5625C272.437 49.839 272.899 49.9773 273.429 49.9773C273.777 49.9773 274.094 49.9167 274.378 49.7955C274.662 49.6742 274.902 49.5 275.099 49.2727C275.296 49.0455 275.437 48.7727 275.52 48.4545H276.861C276.785 48.9697 276.598 49.4337 276.298 49.8466C276.003 50.2557 275.611 50.5814 275.122 50.8239C274.637 51.0625 274.073 51.1818 273.429 51.1818ZM282.366 51.1818C281.579 51.1818 280.887 50.9943 280.293 50.6193C279.702 50.2443 279.24 49.7197 278.906 49.0455C278.577 48.3712 278.412 47.5833 278.412 46.6818C278.412 45.7727 278.577 44.9792 278.906 44.3011C279.24 43.6231 279.702 43.0966 280.293 42.7216C280.887 42.3466 281.579 42.1591 282.366 42.1591C283.154 42.1591 283.844 42.3466 284.435 42.7216C285.029 43.0966 285.491 43.6231 285.821 44.3011C286.154 44.9792 286.321 45.7727 286.321 46.6818C286.321 47.5833 286.154 48.3712 285.821 49.0455C285.491 49.7197 285.029 50.2443 284.435 50.6193C283.844 50.9943 283.154 51.1818 282.366 51.1818ZM282.366 49.9773C282.965 49.9773 283.457 49.8239 283.844 49.517C284.23 49.2102 284.516 48.8068 284.702 48.3068C284.887 47.8068 284.98 47.2652 284.98 46.6818C284.98 46.0985 284.887 45.5549 284.702 45.0511C284.516 44.5473 284.23 44.1402 283.844 43.8295C283.457 43.5189 282.965 43.3636 282.366 43.3636C281.768 43.3636 281.276 43.5189 280.889 43.8295C280.503 44.1402 280.217 44.5473 280.031 45.0511C279.846 45.5549 279.753 46.0985 279.753 46.6818C279.753 47.2652 279.846 47.8068 280.031 48.3068C280.217 48.8068 280.503 49.2102 280.889 49.517C281.276 49.8239 281.768 49.9773 282.366 49.9773ZM288.368 51V42.2727H289.663V43.6364H289.777C289.959 43.1705 290.252 42.8087 290.658 42.5511C291.063 42.2898 291.55 42.1591 292.118 42.1591C292.694 42.1591 293.173 42.2898 293.555 42.5511C293.942 42.8087 294.243 43.1705 294.459 43.6364H294.55C294.773 43.1856 295.108 42.8277 295.555 42.5625C296.002 42.2936 296.538 42.1591 297.163 42.1591C297.944 42.1591 298.582 42.4034 299.078 42.892C299.574 43.3769 299.822 44.1326 299.822 45.1591V51H298.482V45.1591C298.482 44.5152 298.305 44.0549 297.953 43.7784C297.601 43.5019 297.186 43.3636 296.709 43.3636C296.095 43.3636 295.62 43.5492 295.283 43.9205C294.946 44.2879 294.777 44.7538 294.777 45.3182V51H293.413V45.0227C293.413 44.5265 293.252 44.1269 292.93 43.8239C292.608 43.517 292.194 43.3636 291.686 43.3636C291.338 43.3636 291.012 43.4564 290.709 43.642C290.41 43.8277 290.167 44.0852 289.982 44.4148C289.8 44.7405 289.709 45.1174 289.709 45.5455V51H288.368ZM303.456 39.3636V40.3864C303.456 40.697 303.399 41.0284 303.286 41.3807C303.176 41.7292 303.013 42.0682 302.797 42.3977C302.585 42.7235 302.327 43.0076 302.024 43.25L301.297 42.6591C301.536 42.3182 301.742 41.964 301.916 41.5966C302.094 41.2254 302.183 40.8295 302.183 40.4091V39.3636H303.456ZM306.365 39.3636V40.3864C306.365 40.697 306.308 41.0284 306.195 41.3807C306.085 41.7292 305.922 42.0682 305.706 42.3977C305.494 42.7235 305.236 43.0076 304.933 43.25L304.206 42.6591C304.445 42.3182 304.651 41.964 304.825 41.5966C305.003 41.2254 305.092 40.8295 305.092 40.4091V39.3636H306.365Z" fill="#B39600"/>
</svg>
