<svg width="194" height="193" viewBox="0 0 194 193" fill="none" xmlns="http://www.w3.org/2000/svg">
<g clip-path="url(#clip0_3754_45)">
<path d="M98.7265 125.986C116.027 125.986 130.052 111.961 130.052 94.6604C130.052 77.3597 116.027 63.3346 98.7265 63.3346C81.4257 63.3346 67.4006 77.3597 67.4006 94.6604C67.4006 111.961 81.4257 125.986 98.7265 125.986Z" fill="#A0616A"/>
<path d="M72.798 133.001L79.3281 116.313L113.067 111.234L116.692 148.175L82.5903 148.9L72.798 133.001Z" fill="#A0616A"/>
<path d="M130.356 100.44C129.949 102.069 129.127 105.947 127.844 105.966C126.795 105.982 125.792 89.1569 126.839 86.374C128.042 83.1769 124.881 79.1326 122.499 77.0566C118.216 73.3238 108.711 81.3391 99.0446 77.7081C98.7883 77.612 98.8394 77.6228 95.787 76.4051C86.3947 72.6576 85.901 72.5495 85.3629 72.496C80.8098 72.0456 75.2532 75.7714 72.9842 80.3141C70.6256 85.0363 72.5963 89.0866 70.3782 100.511C70.1198 101.843 69.7138 103.74 69.0752 103.768C67.9077 103.819 66.7677 97.5835 66.4692 95.9503C65.2183 89.1076 64.0123 82.5104 66.4692 75.1021C66.7372 74.294 68.3889 71.2948 71.6812 65.3295C76.4244 56.7358 78.81 52.4227 79.4993 51.6478C84.4435 46.0877 93.4431 41.0156 100.999 43.1782C104.818 44.2712 104.133 46.0285 108.817 47.7387C117.164 50.7863 124.419 47.0592 125.756 49.6933C126.465 51.0885 124.482 52.2389 124.453 54.9053C124.404 59.4805 130.19 60.8026 133.574 65.3295C135.394 67.7631 138.507 67.7892 130.356 100.44Z" fill="#2F2E41"/>
<path d="M169.165 160.571C167.902 161.99 166.593 163.379 165.236 164.736C147.01 182.962 122.776 193 97 193C74.7216 193 53.5968 185.501 36.5061 171.698C36.4952 171.69 36.488 171.683 36.4772 171.672C34.2098 169.844 32.0149 167.899 29.8962 165.846C29.9361 165.527 29.9797 165.211 30.0268 164.899C30.3243 162.795 30.6545 160.789 31.0244 158.942C34.0537 143.807 73.9126 127.917 74.9501 127.503C74.9646 127.5 74.9719 127.496 74.9719 127.496C74.9719 127.496 80.1017 146.404 102.083 146.161C117.055 145.998 114.152 127.496 114.152 127.496C114.152 127.496 114.334 127.532 114.675 127.605C118.999 128.523 149.023 135.118 160.868 144.119C164.477 146.861 167.068 152.702 168.929 159.668C169.009 159.965 169.085 160.27 169.165 160.571Z" fill="#0068B3"/>
<path d="M165.236 28.2644C147.01 10.0385 122.776 0 97 0C71.2243 0 46.9906 10.0385 28.7643 28.2644C10.5382 46.4906 0.5 70.7244 0.5 96.5C0.5 120.027 8.86214 142.269 24.186 159.831C25.6481 161.511 27.1754 163.147 28.7643 164.736C29.138 165.109 29.5153 165.483 29.8962 165.846C32.0149 167.899 34.2098 169.844 36.4771 171.672C36.488 171.683 36.4952 171.69 36.5061 171.698C53.5968 185.501 74.7216 193 97 193C122.776 193 147.01 182.962 165.236 164.736C166.592 163.379 167.902 161.99 169.165 160.571C184.898 142.896 193.5 120.36 193.5 96.5C193.5 70.7244 183.462 46.4906 165.236 28.2644ZM168.929 159.668C166.074 162.915 163.005 165.969 159.739 168.803C153.547 174.19 146.654 178.79 139.221 182.454C136.612 183.742 133.938 184.914 131.203 185.962C120.577 190.04 109.044 192.274 97 192.274C85.3764 192.274 74.2318 190.192 63.9179 186.383C59.6842 184.823 55.5921 182.969 51.6631 180.847C51.0863 180.535 50.5132 180.219 49.9436 179.897C46.947 178.199 44.0484 176.345 41.2658 174.342C37.2789 171.484 33.5204 168.324 30.0268 164.899C28.0678 162.98 26.1959 160.981 24.4074 158.902C9.96501 142.127 1.22556 120.317 1.22556 96.5C1.22556 43.6901 44.1898 0.725564 97 0.725564C149.81 0.725564 192.774 43.6901 192.774 96.5C192.774 120.683 183.767 142.798 168.929 159.668Z" fill="#3F3D56"/>
</g>
<defs>
<clipPath id="clip0_3754_45">
<rect width="193" height="193" fill="white" transform="translate(0.5)"/>
</clipPath>
</defs>
</svg>
